<svg xmlns="http://www.w3.org/2000/svg" viewBox="0 0 800 400" width="800" height="400">
<rect x="0" y="0" width="800" height="400" fill="#1a5f8a"/>
<circle cx="588.22" cy="63.01" r="7.136496464611085" fill="#1a5f8a"/>
<circle cx="550.51" cy="61.07" r="7.136496464611085" fill="#1a5f8a"/>
<circle cx="583.89" cy="45.39" r="7.136496464611085" fill="#1a5f8a"/>
<circle cx="573.53" cy="56.04" r="7.136496464611085" fill="#1a5f8a"/>
<circle cx="512.74" cy="63.7" r="7.136496464611085" fill="#1a5f8a"/>
<circle cx="480.01" cy="70.39" r="7.136496464611085" fill="#1a5f8a"/>
<circle cx="483.48" cy="50.37" r="7.136496464611085" fill="#1a5f8a"/>
<circle cx="492.24" cy="61.13" r="7.136496464611085" fill="#1a5f8a"/>
<circle cx="573.6" cy="27.7" r="7.136496464611085" fill="#1a5f8a"/>
<circle cx="491.82" cy="30.27" r="7.136496464611085" fill="#1a5f8a"/>
<circle cx="530.79" cy="10.97" r="7.136496464611085" fill="#1a5f8a"/>
<circle cx="530.84" cy="22.02" r="7.136496464611085" fill="#1a5f8a"/>
<circle cx="531.23" cy="56.11" r="7.136496464611085" fill="#1a5f8a"/>
<circle cx="502.28" cy="41.19" r="7.136496464611085" fill="#1a5f8a"/>
<circle cx="561.66" cy="38.58" r="7.136496464611085" fill="#1a5f8a"/>
<circle cx="531.11" cy="44.63" r="7.136496464611085" fill="#1a5f8a"/>
<circle cx="451.93" cy="80.76" r="7.136496464611085" fill="#1a5f8a"/>
<circle cx="430.98" cy="92.62" r="7.136496464611085" fill="#1a5f8a"/>
<circle cx="418.04" cy="76.1" r="7.136496464611085" fill="#1a5f8a"/>
<circle cx="433.79" cy="82.8" r="7.136496464611085" fill="#1a5f8a"/>
<circle cx="413.95" cy="105.97" r="7.136496464611085" fill="#1a5f8a"/>
<circle cx="400.0" cy="120.0" r="7.136496464611085" fill="#1a5f8a"/>
<circle cx="386.05" cy="105.97" r="7.136496464611085" fill="#1a5f8a"/>
<circle cx="400.0" cy="110.4" r="7.136496464611085" fill="#1a5f8a"/>
<circle cx="381.96" cy="76.1" r="7.136496464611085" fill="#e8f4f8"/>
<circle cx="369.02" cy="92.62" r="7.136496464611085" fill="#d4a76a"/>
<circle cx="348.07" cy="80.76" r="7.136496464611085" fill="#2d5a27"/>
<circle cx="366.21" cy="82.8" r="7.136496464611085" fill="#2d5a27"/>
<circle cx="415.07" cy="96.11" r="7.136496464611085" fill="#1a5f8a"/>
<circle cx="384.93" cy="96.11" r="7.136496464611085" fill="#2d5a27"/>
<circle cx="400.0" cy="80.5" r="7.136496464611085" fill="#2d5a27"/>
<circle cx="400.0" cy="90.61" r="7.136496464611085" fill="#2d5a27"/>
<circle cx="269.21" cy="10.97" r="7.136496464611085" fill="#1a5f8a"/>
<circle cx="308.18" cy="30.27" r="7.136496464611085" fill="#1a5f8a"/>
<circle cx="226.4" cy="27.7" r="7.136496464611085" fill="#1a5f8a"/>
<circle cx="269.16" cy="22.02" r="7.136496464611085" fill="#1a5f8a"/>
<circle cx="316.52" cy="50.37" r="7.136496464611085" fill="#1a5f8a"/>
<circle cx="319.99" cy="70.39" r="7.136496464611085" fill="#1a5f8a"/>
<circle cx="287.26" cy="63.7" r="7.136496464611085" fill="#1a5f8a"/>
<circle cx="307.76" cy="61.13" r="7.136496464611085" fill="#1a5f8a"/>
<circle cx="216.11" cy="45.39" r="7.136496464611085" fill="#1a5f8a"/>
<circle cx="249.49" cy="61.07" r="7.136496464611085" fill="#1a5f8a"/>
<circle cx="211.78" cy="63.01" r="7.136496464611085" fill="#1a5f8a"/>
<circle cx="226.47" cy="56.04" r="7.136496464611085" fill="#1a5f8a"/>
<circle cx="297.72" cy="41.19" r="7.136496464611085" fill="#1a5f8a"/>
<circle cx="268.77" cy="56.11" r="7.136496464611085" fill="#1a5f8a"/>
<circle cx="238.34" cy="38.58" r="7.136496464611085" fill="#1a5f8a"/>
<circle cx="268.89" cy="44.63" r="7.136496464611085" fill="#1a5f8a"/>
<circle cx="459.14" cy="70.56" r="7.136496464611085" fill="#1a5f8a"/>
<circle cx="420.86" cy="65.22" r="7.136496464611085" fill="#e8f4f8"/>
<circle cx="455.0" cy="50.53" r="7.136496464611085" fill="#1a5f8a"/>
<circle cx="444.65" cy="61.61" r="7.136496464611085" fill="#1a5f8a"/>
<circle cx="379.14" cy="65.22" r="7.136496464611085" fill="#e8f4f8"/>
<circle cx="340.86" cy="70.56" r="7.136496464611085" fill="#e8f4f8"/>
<circle cx="345.0" cy="50.53" r="7.136496464611085" fill="#1a5f8a"/>
<circle cx="355.35" cy="61.61" r="7.136496464611085" fill="#e8f4f8"/>
<circle cx="445.06" cy="30.38" r="7.136496464611085" fill="#1a5f8a"/>
<circle cx="354.94" cy="30.38" r="7.136496464611085" fill="#1a5f8a"/>
<circle cx="400.0" cy="11.36" r="7.136496464611085" fill="#1a5f8a"/>
<circle cx="400.0" cy="22.82" r="7.136496464611085" fill="#1a5f8a"/>
<circle cx="400.0" cy="58.52" r="7.136496464611085" fill="#e8f4f8"/>
<circle cx="367.19" cy="41.69" r="7.136496464611085" fill="#e8f4f8"/>
<circle cx="432.81" cy="41.69" r="7.136496464611085" fill="#d4a76a"/>
<circle cx="400.0" cy="46.46" r="7.136496464611085" fill="#e8f4f8"/>
<circle cx="611.78" cy="63.01" r="7.136496464611085" fill="#1a5f8a"/>
<circle cx="616.11" cy="45.39" r="7.136496464611085" fill="#d4a76a"/>
<circle cx="649.49" cy="61.07" r="7.136496464611085" fill="#1a5f8a"/>
<circle cx="626.47" cy="56.04" r="7.136496464611085" fill="#e8f4f8"/>
<circle cx="626.4" cy="27.7" r="7.136496464611085" fill="#1a5f8a"/>
<circle cx="669.21" cy="10.97" r="7.136496464611085" fill="#1a5f8a"/>
<circle cx="708.18" cy="30.27" r="7.136496464611085" fill="#e8f4f8"/>
<circle cx="669.16" cy="22.02" r="7.136496464611085" fill="#e8f4f8"/>
<circle cx="687.26" cy="63.7" r="7.136496464611085" fill="#e8f4f8"/>
<circle cx="716.52" cy="50.37" r="7.136496464611085" fill="#e8f4f8"/>
<circle cx="719.99" cy="70.39" r="7.136496464611085" fill="#e8f4f8"/>
<circle cx="707.76" cy="61.13" r="7.136496464611085" fill="#e8f4f8"/>
<circle cx="638.34" cy="38.58" r="7.136496464611085" fill="#e8f4f8"/>
<circle cx="697.72" cy="41.19" r="7.136496464611085" fill="#e8f4f8"/>
<circle cx="668.77" cy="56.11" r="7.136496464611085" fill="#e8f4f8"/>
<circle cx="668.89" cy="44.63" r="7.136496464611085" fill="#e8f4f8"/>
<circle cx="130.79" cy="10.97" r="7.136496464611085" fill="#1a5f8a"/>
<circle cx="173.6" cy="27.7" r="7.136496464611085" fill="#1a5f8a"/>
<circle cx="91.82" cy="30.27" r="7.136496464611085" fill="#1a5f8a"/>
<circle cx="130.84" cy="22.02" r="7.136496464611085" fill="#1a5f8a"/>
<circle cx="183.89" cy="45.39" r="7.136496464611085" fill="#1a5f8a"/>
<circle cx="188.22" cy="63.01" r="7.136496464611085" fill="#1a5f8a"/>
<circle cx="150.51" cy="61.07" r="7.136496464611085" fill="#1a5f8a"/>
<circle cx="173.53" cy="56.04" r="7.136496464611085" fill="#1a5f8a"/>
<circle cx="83.48" cy="50.37" r="7.136496464611085" fill="#1a5f8a"/>
<circle cx="112.74" cy="63.7" r="7.136496464611085" fill="#1a5f8a"/>
<circle cx="80.01" cy="70.39" r="7.136496464611085" fill="#d4a76a"/>
<circle cx="92.24" cy="61.13" r="7.136496464611085" fill="#1a5f8a"/>
<circle cx="161.66" cy="38.58" r="7.136496464611085" fill="#1a5f8a"/>
<circle cx="131.23" cy="56.11" r="7.136496464611085" fill="#1a5f8a"/>
<circle cx="102.28" cy="41.19" r="7.136496464611085" fill="#1a5f8a"/>
<circle cx="131.11" cy="44.63" r="7.136496464611085" fill="#1a5f8a"/>
<circle cx="748.07" cy="80.76" r="7.136496464611085" fill="#d4a76a"/>
<circle cx="781.96" cy="76.1" r="7.136496464611085" fill="#1a5f8a"/>
<circle cx="769.02" cy="92.62" r="7.136496464611085" fill="#1a5f8a"/>
<circle cx="766.21" cy="82.8" r="7.136496464611085" fill="#1a5f8a"/>
<circle cx="18.04" cy="76.1" r="7.136496464611085" fill="#1a5f8a"/>
<circle cx="51.93" cy="80.76" r="7.136496464611085" fill="#2d5a27"/>
<circle cx="30.98" cy="92.62" r="7.136496464611085" fill="#1a5f8a"/>
<circle cx="33.79" cy="82.8" r="7.136496464611085" fill="#2d5a27"/>
<circle cx="786.05" cy="105.97" r="7.136496464611085" fill="#2d5a27"/>
<circle cx="13.95" cy="105.97" r="7.136496464611085" fill="#2d5a27"/>
<circle cx="800.0" cy="120.0" r="7.136496464611085" fill="#1a5f8a"/>
<circle cx="800.0" cy="110.4" r="7.136496464611085" fill="#2d5a27"/>
<circle cx="800.0" cy="80.5" r="7.136496464611085" fill="#1a5f8a"/>
<circle cx="15.07" cy="96.11" r="7.136496464611085" fill="#d4a76a"/>
<circle cx="784.93" cy="96.11" r="7.136496464611085" fill="#d4a76a"/>
<circle cx="800.0" cy="90.61" r="7.136496464611085" fill="#d4a76a"/>
<circle cx="800.0" cy="11.36" r="7.136496464611085" fill="#1a5f8a"/>
<circle cx="45.06" cy="30.38" r="7.136496464611085" fill="#1a5f8a"/>
<circle cx="754.94" cy="30.38" r="7.136496464611085" fill="#e8f4f8"/>
<circle cx="800.0" cy="22.82" r="7.136496464611085" fill="#1a5f8a"/>
<circle cx="55.0" cy="50.53" r="7.136496464611085" fill="#1a5f8a"/>
<circle cx="59.14" cy="70.56" r="7.136496464611085" fill="#e8f4f8"/>
<circle cx="20.86" cy="65.22" r="7.136496464611085" fill="#1a5f8a"/>
<circle cx="44.65" cy="61.61" r="7.136496464611085" fill="#1a5f8a"/>
<circle cx="745.0" cy="50.53" r="7.136496464611085" fill="#e8f4f8"/>
<circle cx="779.14" cy="65.22" r="7.136496464611085" fill="#d4a76a"/>
<circle cx="740.86" cy="70.56" r="7.136496464611085" fill="#1a5f8a"/>
<circle cx="755.35" cy="61.61" r="7.136496464611085" fill="#e8f4f8"/>
<circle cx="32.81" cy="41.69" r="7.136496464611085" fill="#1a5f8a"/>
<circle cx="800.0" cy="58.52" r="7.136496464611085" fill="#e8f4f8"/>
<circle cx="767.19" cy="41.69" r="7.136496464611085" fill="#e8f4f8"/>
<circle cx="800.0" cy="46.46" r="7.136496464611085" fill="#e8f4f8"/>
<circle cx="616.53" cy="73.92" r="7.136496464611085" fill="#1a5f8a"/>
<circle cx="649.06" cy="72.29" r="7.136496464611085" fill="#1a5f8a"/>
<circle cx="630.21" cy="89.64" r="7.136496464611085" fill="#1a5f8a"/>
<circle cx="631.73" cy="78.3" r="7.136496464611085" fill="#1a5f8a"/>
<circle cx="681.68" cy="74.65" r="7.136496464611085" fill="#1a5f8a"/>
<circle cx="710.92" cy="80.54" r="7.136496464611085" fill="#2d5a27"/>
<circle cx="685.59" cy="92.81" r="7.136496464611085" fill="#1a5f8a"/>
<circle cx="692.65" cy="82.36" r="7.136496464611085" fill="#2d5a27"/>
<circle cx="640.63" cy="106.03" r="7.136496464611085" fill="#1a5f8a"/>
<circle cx="665.27" cy="107.13" r="7.136496464611085" fill="#1a5f8a"/>
<circle cx="648.83" cy="122.55" r="7.136496464611085" fill="#1a5f8a"/>
<circle cx="651.51" cy="111.71" r="7.136496464611085" fill="#1a5f8a"/>
<circle cx="662.89" cy="78.48" r="7.136496464611085" fill="#1a5f8a"/>
<circle cx="669.7" cy="96.3" r="7.136496464611085" fill="#1a5f8a"/>
<circle cx="642.88" cy="94.86" r="7.136496464611085" fill="#1a5f8a"/>
<circle cx="658.31" cy="89.62" r="7.136496464611085" fill="#1a5f8a"/>
<circle cx="737.23" cy="89.88" r="7.136496464611085" fill="#d4a76a"/>
<circle cx="757.71" cy="100.83" r="7.136496464611085" fill="#2d5a27"/>
<circle cx="736.1" cy="109.95" r="7.136496464611085" fill="#2d5a27"/>
<circle cx="743.69" cy="100.03" r="7.136496464611085" fill="#2d5a27"/>
<circle cx="774.92" cy="113.36" r="7.136496464611085" fill="#2d5a27"/>
<circle cx="789.21" cy="126.78" r="7.136496464611085" fill="#1a5f8a"/>
<circle cx="770.05" cy="133.58" r="7.136496464611085" fill="#8cb369"/>
<circle cx="778.04" cy="124.45" r="7.136496464611085" fill="#d4a76a"/>
<circle cx="735.38" cy="130.2" r="7.136496464611085" fill="#8cb369"/>
<circle cx="751.83" cy="141.53" r="7.136496464611085" fill="#7a9a4a"/>
<circle cx="734.92" cy="150.27" r="7.136496464611085" fill="#8cb369"/>
<circle cx="740.73" cy="140.57" r="7.136496464611085" fill="#8cb369"/>
<circle cx="762.33" cy="111.59" r="7.136496464611085" fill="#2d5a27"/>
<circle cx="758.74" cy="132.01" r="7.136496464611085" fill="#8cb369"/>
<circle cx="741.88" cy="120.29" r="7.136496464611085" fill="#2d5a27"/>
<circle cx="754.28" cy="121.15" r="7.136496464611085" fill="#2d5a27"/>
<circle cx="656.15" cy="140.24" r="7.136496464611085" fill="#1a5f8a"/>
<circle cx="677.65" cy="145.54" r="7.136496464611085" fill="#1a5f8a"/>
<circle cx="662.27" cy="157.04" r="7.136496464611085" fill="#1a5f8a"/>
<circle cx="665.38" cy="147.49" r="7.136496464611085" fill="#1a5f8a"/>
<circle cx="698.39" cy="152.34" r="7.136496464611085" fill="#1a5f8a"/>
<circle cx="717.99" cy="160.26" r="7.136496464611085" fill="#1a5f8a"/>
<circle cx="702.75" cy="170.18" r="7.136496464611085" fill="#1a5f8a"/>
<circle cx="706.4" cy="160.84" r="7.136496464611085" fill="#8cb369"/>
<circle cx="667.97" cy="174.09" r="7.136496464611085" fill="#1a5f8a"/>
<circle cx="687.86" cy="180.56" r="7.136496464611085" fill="#1a5f8a"/>
<circle cx="673.43" cy="190.95" r="7.136496464611085" fill="#1a5f8a"/>
<circle cx="676.43" cy="181.82" r="7.136496464611085" fill="#1a5f8a"/>
<circle cx="686.34" cy="153.5" r="7.136496464611085" fill="#1a5f8a"/>
<circle cx="691.2" cy="171.23" r="7.136496464611085" fill="#1a5f8a"/>
<circle cx="671.01" cy="164.65" r="7.136496464611085" fill="#1a5f8a"/>
<circle cx="682.86" cy="163.05" r="7.136496464611085" fill="#1a5f8a"/>
<circle cx="720.31" cy="89.83" r="7.136496464611085" fill="#2d5a27"/>
<circle cx="721.66" cy="109.92" r="7.136496464611085" fill="#2d5a27"/>
<circle cx="695.9" cy="101.18" r="7.136496464611085" fill="#1a5f8a"/>
<circle cx="712.59" cy="100.03" r="7.136496464611085" fill="#2d5a27"/>
<circle cx="722.52" cy="130.28" r="7.136496464611085" fill="#7a9a4a"/>
<circle cx="723.07" cy="150.39" r="7.136496464611085" fill="#8cb369"/>
<circle cx="702.94" cy="142.18" r="7.136496464611085" fill="#1a5f8a"/>
<circle cx="716.14" cy="140.81" r="7.136496464611085" fill="#8cb369"/>
<circle cx="675.6" cy="114.75" r="7.136496464611085" fill="#1a5f8a"/>
<circle cx="681.37" cy="135.08" r="7.136496464611085" fill="#1a5f8a"/>
<circle cx="658.93" cy="129.54" r="7.136496464611085" fill="#1a5f8a"/>
<circle cx="671.96" cy="126.3" r="7.136496464611085" fill="#1a5f8a"/>
<circle cx="714.76" cy="120.41" r="7.136496464611085" fill="#2d5a27"/>
<circle cx="694.72" cy="132.86" r="7.136496464611085" fill="#1a5f8a"/>
<circle cx="690.43" cy="112.26" r="7.136496464611085" fill="#1a5f8a"/>
<circle cx="700.0" cy="121.63" r="7.136496464611085" fill="#1a5f8a"/>
<circle cx="600.0" cy="80.0" r="7.136496464611085" fill="#1a5f8a"/>
<circle cx="615.22" cy="94.87" r="7.136496464611085" fill="#1a5f8a"/>
<circle cx="584.78" cy="94.87" r="7.136496464611085" fill="#1a5f8a"/>
<circle cx="600.0" cy="89.6" r="7.136496464611085" fill="#1a5f8a"/>
<circle cx="626.9" cy="110.68" r="7.136496464611085" fill="#1a5f8a"/>
<circle cx="636.15" cy="126.77" r="7.136496464611085" fill="#1a5f8a"/>
<circle cx="612.2" cy="124.77" r="7.136496464611085" fill="#1a5f8a"/>
<circle cx="625.07" cy="120.56" r="7.136496464611085" fill="#1a5f8a"/>
<circle cx="573.1" cy="110.68" r="7.136496464611085" fill="#1a5f8a"/>
<circle cx="587.8" cy="124.77" r="7.136496464611085" fill="#1a5f8a"/>
<circle cx="563.85" cy="126.77" r="7.136496464611085" fill="#1a5f8a"/>
<circle cx="574.93" cy="120.56" r="7.136496464611085" fill="#1a5f8a"/>
<circle cx="614.08" cy="104.72" r="7.136496464611085" fill="#1a5f8a"/>
<circle cx="600.0" cy="119.5" r="7.136496464611085" fill="#1a5f8a"/>
<circle cx="585.92" cy="104.72" r="7.136496464611085" fill="#1a5f8a"/>
<circle cx="600.0" cy="109.39" r="7.136496464611085" fill="#1a5f8a"/>
<circle cx="644.3" cy="144.14" r="7.136496464611085" fill="#1a5f8a"/>
<circle cx="650.98" cy="160.72" r="7.136496464611085" fill="#1a5f8a"/>
<circle cx="631.75" cy="160.47" r="7.136496464611085" fill="#1a5f8a"/>
<circle cx="642.31" cy="155.03" r="7.136496464611085" fill="#1a5f8a"/>
<circle cx="657.12" cy="177.62" r="7.136496464611085" fill="#1a5f8a"/>
<circle cx="662.78" cy="194.41" r="7.136496464611085" fill="#1a5f8a"/>
<circle cx="645.06" cy="194.39" r="7.136496464611085" fill="#1a5f8a"/>
<circle cx="654.97" cy="188.79" r="7.136496464611085" fill="#1a5f8a"/>
<circle cx="620.2" cy="177.36" r="7.136496464611085" fill="#1a5f8a"/>
<circle cx="627.12" cy="194.34" r="7.136496464611085" fill="#1a5f8a"/>
<circle cx="609.4" cy="194.33" r="7.136496464611085" fill="#1a5f8a"/>
<circle cx="618.9" cy="188.66" r="7.136496464611085" fill="#1a5f8a"/>
<circle cx="648.94" cy="171.84" r="7.136496464611085" fill="#1a5f8a"/>
<circle cx="636.94" cy="188.72" r="7.136496464611085" fill="#1a5f8a"/>
<circle cx="630.15" cy="171.66" r="7.136496464611085" fill="#1a5f8a"/>
<circle cx="638.67" cy="177.36" r="7.136496464611085" fill="#1a5f8a"/>
<circle cx="555.7" cy="144.14" r="7.136496464611085" fill="#1a5f8a"/>
<circle cx="568.25" cy="160.47" r="7.136496464611085" fill="#1a5f8a"/>
<circle cx="549.02" cy="160.72" r="7.136496464611085" fill="#1a5f8a"/>
<circle cx="557.69" cy="155.03" r="7.136496464611085" fill="#1a5f8a"/>
<circle cx="579.8" cy="177.36" r="7.136496464611085" fill="#1a5f8a"/>
<circle cx="590.6" cy="194.33" r="7.136496464611085" fill="#2d5a27"/>
<circle cx="572.88" cy="194.34" r="7.136496464611085" fill="#2d5a27"/>
<circle cx="581.1" cy="188.66" r="7.136496464611085" fill="#1a5f8a"/>
<circle cx="542.88" cy="177.62" r="7.136496464611085" fill="#d4a76a"/>
<circle cx="554.94" cy="194.39" r="7.136496464611085" fill="#2d5a27"/>
<circle cx="537.22" cy="194.41" r="7.136496464611085" fill="#1a5f8a"/>
<circle cx="545.03" cy="188.79" r="7.136496464611085" fill="#2d5a27"/>
<circle cx="569.85" cy="171.66" r="7.136496464611085" fill="#2d5a27"/>
<circle cx="563.06" cy="188.72" r="7.136496464611085" fill="#2d5a27"/>
<circle cx="551.06" cy="171.84" r="7.136496464611085" fill="#1a5f8a"/>
<circle cx="561.33" cy="177.36" r="7.136496464611085" fill="#2d5a27"/>
<circle cx="634.43" cy="137.63" r="7.136496464611085" fill="#1a5f8a"/>
<circle cx="622.12" cy="154.33" r="7.136496464611085" fill="#1a5f8a"/>
<circle cx="611.64" cy="135.73" r="7.136496464611085" fill="#1a5f8a"/>
<circle cx="622.74" cy="142.43" r="7.136496464611085" fill="#1a5f8a"/>
<circle cx="610.71" cy="171.53" r="7.136496464611085" fill="#1a5f8a"/>
<circle cx="600.0" cy="188.64" r="7.136496464611085" fill="#1a5f8a"/>
<circle cx="589.29" cy="171.53" r="7.136496464611085" fill="#2d5a27"/>
<circle cx="600.0" cy="177.18" r="7.136496464611085" fill="#1a5f8a"/>
<circle cx="588.36" cy="135.73" r="7.136496464611085" fill="#1a5f8a"/>
<circle cx="577.88" cy="154.33" r="7.136496464611085" fill="#1a5f8a"/>
<circle cx="565.57" cy="137.63" r="7.136496464611085" fill="#1a5f8a"/>
<circle cx="577.26" cy="142.43" r="7.136496464611085" fill="#d4a76a"/>
<circle cx="610.99" cy="159.73" r="7.136496464611085" fill="#1a5f8a"/>
<circle cx="589.01" cy="159.73" r="7.136496464611085" fill="#8cb369"/>
<circle cx="600.0" cy="141.48" r="7.136496464611085" fill="#1a5f8a"/>
<circle cx="600.0" cy="153.54" r="7.136496464611085" fill="#8cb369"/>
<circle cx="583.47" cy="73.92" r="7.136496464611085" fill="#1a5f8a"/>
<circle cx="569.79" cy="89.64" r="7.136496464611085" fill="#1a5f8a"/>
<circle cx="550.94" cy="72.29" r="7.136496464611085" fill="#1a5f8a"/>
<circle cx="568.27" cy="78.3" r="7.136496464611085" fill="#1a5f8a"/>
<circle cx="559.37" cy="106.03" r="7.136496464611085" fill="#1a5f8a"/>
<circle cx="551.17" cy="122.55" r="7.136496464611085" fill="#1a5f8a"/>
<circle cx="534.73" cy="107.13" r="7.136496464611085" fill="#1a5f8a"/>
<circle cx="548.49" cy="111.71" r="7.136496464611085" fill="#1a5f8a"/>
<circle cx="518.32" cy="74.65" r="7.136496464611085" fill="#1a5f8a"/>
<circle cx="514.41" cy="92.81" r="7.136496464611085" fill="#1a5f8a"/>
<circle cx="489.08" cy="80.54" r="7.136496464611085" fill="#1a5f8a"/>
<circle cx="507.35" cy="82.36" r="7.136496464611085" fill="#1a5f8a"/>
<circle cx="557.12" cy="94.86" r="7.136496464611085" fill="#1a5f8a"/>
<circle cx="530.3" cy="96.3" r="7.136496464611085" fill="#1a5f8a"/>
<circle cx="537.11" cy="78.48" r="7.136496464611085" fill="#1a5f8a"/>
<circle cx="541.69" cy="89.62" r="7.136496464611085" fill="#1a5f8a"/>
<circle cx="543.85" cy="140.24" r="7.136496464611085" fill="#1a5f8a"/>
<circle cx="537.73" cy="157.04" r="7.136496464611085" fill="#1a5f8a"/>
<circle cx="522.35" cy="145.54" r="7.136496464611085" fill="#1a5f8a"/>
<circle cx="534.62" cy="147.49" r="7.136496464611085" fill="#1a5f8a"/>
<circle cx="532.03" cy="174.09" r="7.136496464611085" fill="#1a5f8a"/>
<circle cx="526.57" cy="190.95" r="7.136496464611085" fill="#1a5f8a"/>
<circle cx="512.14" cy="180.56" r="7.136496464611085" fill="#1a5f8a"/>
<circle cx="523.57" cy="181.82" r="7.136496464611085" fill="#1a5f8a"/>
<circle cx="501.61" cy="152.34" r="7.136496464611085" fill="#1a5f8a"/>
<circle cx="497.25" cy="170.18" r="7.136496464611085" fill="#1a5f8a"/>
<circle cx="482.01" cy="160.26" r="7.136496464611085" fill="#1a5f8a"/>
<circle cx="493.6" cy="160.84" r="7.136496464611085" fill="#1a5f8a"/>
<circle cx="528.99" cy="164.65" r="7.136496464611085" fill="#1a5f8a"/>
<circle cx="508.8" cy="171.23" r="7.136496464611085" fill="#1a5f8a"/>
<circle cx="513.66" cy="153.5" r="7.136496464611085" fill="#1a5f8a"/>
<circle cx="517.14" cy="163.05" r="7.136496464611085" fill="#1a5f8a"/>
<circle cx="462.77" cy="89.88" r="7.136496464611085" fill="#1a5f8a"/>
<circle cx="463.9" cy="109.95" r="7.136496464611085" fill="#1a5f8a"/>
<circle cx="442.29" cy="100.83" r="7.136496464611085" fill="#1a5f8a"/>
<circle cx="456.31" cy="100.03" r="7.136496464611085" fill="#1a5f8a"/>
<circle cx="464.62" cy="130.2" r="7.136496464611085" fill="#1a5f8a"/>
<circle cx="465.08" cy="150.27" r="7.136496464611085" fill="#1a5f8a"/>
<circle cx="448.17" cy="141.53" r="7.136496464611085" fill="#1a5f8a"/>
<circle cx="459.27" cy="140.57" r="7.136496464611085" fill="#1a5f8a"/>
<circle cx="425.08" cy="113.36" r="7.136496464611085" fill="#1a5f8a"/>
<circle cx="429.95" cy="133.58" r="7.136496464611085" fill="#1a5f8a"/>
<circle cx="410.79" cy="126.78" r="7.136496464611085" fill="#1a5f8a"/>
<circle cx="421.96" cy="124.45" r="7.136496464611085" fill="#1a5f8a"/>
<circle cx="458.12" cy="120.29" r="7.136496464611085" fill="#1a5f8a"/>
<circle cx="441.26" cy="132.01" r="7.136496464611085" fill="#1a5f8a"/>
<circle cx="437.67" cy="111.59" r="7.136496464611085" fill="#1a5f8a"/>
<circle cx="445.72" cy="121.15" r="7.136496464611085" fill="#1a5f8a"/>
<circle cx="541.07" cy="129.54" r="7.136496464611085" fill="#1a5f8a"/>
<circle cx="518.63" cy="135.08" r="7.136496464611085" fill="#1a5f8a"/>
<circle cx="524.4" cy="114.75" r="7.136496464611085" fill="#1a5f8a"/>
<circle cx="528.04" cy="126.3" r="7.136496464611085" fill="#1a5f8a"/>
<circle cx="497.06" cy="142.18" r="7.136496464611085" fill="#1a5f8a"/>
<circle cx="476.93" cy="150.39" r="7.136496464611085" fill="#1a5f8a"/>
<circle cx="477.48" cy="130.28" r="7.136496464611085" fill="#1a5f8a"/>
<circle cx="483.86" cy="140.81" r="7.136496464611085" fill="#1a5f8a"/>
<circle cx="504.1" cy="101.18" r="7.136496464611085" fill="#1a5f8a"/>
<circle cx="478.34" cy="109.92" r="7.136496464611085" fill="#1a5f8a"/>
<circle cx="479.69" cy="89.83" r="7.136496464611085" fill="#1a5f8a"/>
<circle cx="487.41" cy="100.03" r="7.136496464611085" fill="#1a5f8a"/>
<circle cx="505.28" cy="132.86" r="7.136496464611085" fill="#1a5f8a"/>
<circle cx="485.24" cy="120.41" r="7.136496464611085" fill="#1a5f8a"/>
<circle cx="509.57" cy="112.26" r="7.136496464611085" fill="#1a5f8a"/>
<circle cx="500.0" cy="121.63" r="7.136496464611085" fill="#1a5f8a"/>
<circle cx="216.53" cy="73.92" r="7.136496464611085" fill="#1a5f8a"/>
<circle cx="249.06" cy="72.29" r="7.136496464611085" fill="#1a5f8a"/>
<circle cx="230.21" cy="89.64" r="7.136496464611085" fill="#1a5f8a"/>
<circle cx="231.73" cy="78.3" r="7.136496464611085" fill="#1a5f8a"/>
<circle cx="281.68" cy="74.65" r="7.136496464611085" fill="#1a5f8a"/>
<circle cx="310.92" cy="80.54" r="7.136496464611085" fill="#1a5f8a"/>
<circle cx="285.59" cy="92.81" r="7.136496464611085" fill="#1a5f8a"/>
<circle cx="292.65" cy="82.36" r="7.136496464611085" fill="#1a5f8a"/>
<circle cx="240.63" cy="106.03" r="7.136496464611085" fill="#1a5f8a"/>
<circle cx="265.27" cy="107.13" r="7.136496464611085" fill="#2d5a27"/>
<circle cx="248.83" cy="122.55" r="7.136496464611085" fill="#1a5f8a"/>
<circle cx="251.51" cy="111.71" r="7.136496464611085" fill="#1a5f8a"/>
<circle cx="262.89" cy="78.48" r="7.136496464611085" fill="#1a5f8a"/>
<circle cx="269.7" cy="96.3" r="7.136496464611085" fill="#2d5a27"/>
<circle cx="242.88" cy="94.86" r="7.136496464611085" fill="#1a5f8a"/>
<circle cx="258.31" cy="89.62" r="7.136496464611085" fill="#1a5f8a"/>
<circle cx="337.23" cy="89.88" r="7.136496464611085" fill="#2d5a27"/>
<circle cx="357.71" cy="100.83" r="7.136496464611085" fill="#1a5f8a"/>
<circle cx="336.1" cy="109.95" r="7.136496464611085" fill="#d4a76a"/>
<circle cx="343.69" cy="100.03" r="7.136496464611085" fill="#2d5a27"/>
<circle cx="374.92" cy="113.36" r="7.136496464611085" fill="#1a5f8a"/>
<circle cx="389.21" cy="126.78" r="7.136496464611085" fill="#d4a76a"/>
<circle cx="370.05" cy="133.58" r="7.136496464611085" fill="#1a5f8a"/>
<circle cx="378.04" cy="124.45" r="7.136496464611085" fill="#1a5f8a"/>
<circle cx="335.38" cy="130.2" r="7.136496464611085" fill="#1a5f8a"/>
<circle cx="351.83" cy="141.53" r="7.136496464611085" fill="#8cb369"/>
<circle cx="334.92" cy="150.27" r="7.136496464611085" fill="#1a5f8a"/>
<circle cx="340.73" cy="140.57" r="7.136496464611085" fill="#d4a76a"/>
<circle cx="362.33" cy="111.59" r="7.136496464611085" fill="#1a5f8a"/>
<circle cx="358.74" cy="132.01" r="7.136496464611085" fill="#1a5f8a"/>
<circle cx="341.88" cy="120.29" r="7.136496464611085" fill="#1a5f8a"/>
<circle cx="354.28" cy="121.15" r="7.136496464611085" fill="#1a5f8a"/>
<circle cx="256.15" cy="140.24" r="7.136496464611085" fill="#1a5f8a"/>
<circle cx="277.65" cy="145.54" r="7.136496464611085" fill="#d4a76a"/>
<circle cx="262.27" cy="157.04" r="7.136496464611085" fill="#d4a76a"/>
<circle cx="265.38" cy="147.49" r="7.136496464611085" fill="#1a5f8a"/>
<circle cx="298.39" cy="152.34" r="7.136496464611085" fill="#8cb369"/>
<circle cx="317.99" cy="160.26" r="7.136496464611085" fill="#1a5f8a"/>
<circle cx="302.75" cy="170.18" r="7.136496464611085" fill="#1a5f8a"/>
<circle cx="306.4" cy="160.84" r="7.136496464611085" fill="#1a5f8a"/>
<circle cx="267.97" cy="174.09" r="7.136496464611085" fill="#2d5a27"/>
<circle cx="287.86" cy="180.56" r="7.136496464611085" fill="#1a5f8a"/>
<circle cx="273.43" cy="190.95" r="7.136496464611085" fill="#1a5f8a"/>
<circle cx="276.43" cy="181.82" r="7.136496464611085" fill="#1a5f8a"/>
<circle cx="286.34" cy="153.5" r="7.136496464611085" fill="#1a5f8a"/>
<circle cx="291.2" cy="171.23" r="7.136496464611085" fill="#1a5f8a"/>
<circle cx="271.01" cy="164.65" r="7.136496464611085" fill="#8cb369"/>
<circle cx="282.86" cy="163.05" r="7.136496464611085" fill="#1a5f8a"/>
<circle cx="320.31" cy="89.83" r="7.136496464611085" fill="#1a5f8a"/>
<circle cx="321.66" cy="109.92" r="7.136496464611085" fill="#2d5a27"/>
<circle cx="295.9" cy="101.18" r="7.136496464611085" fill="#1a5f8a"/>
<circle cx="312.59" cy="100.03" r="7.136496464611085" fill="#2d5a27"/>
<circle cx="322.52" cy="130.28" r="7.136496464611085" fill="#1a5f8a"/>
<circle cx="323.07" cy="150.39" r="7.136496464611085" fill="#8cb369"/>
<circle cx="302.94" cy="142.18" r="7.136496464611085" fill="#8cb369"/>
<circle cx="316.14" cy="140.81" r="7.136496464611085" fill="#8cb369"/>
<circle cx="275.6" cy="114.75" r="7.136496464611085" fill="#2d5a27"/>
<circle cx="281.37" cy="135.08" r="7.136496464611085" fill="#d4a76a"/>
<circle cx="258.93" cy="129.54" r="7.136496464611085" fill="#d4a76a"/>
<circle cx="271.96" cy="126.3" r="7.136496464611085" fill="#7a9a4a"/>
<circle cx="314.76" cy="120.41" r="7.136496464611085" fill="#d4a76a"/>
<circle cx="294.72" cy="132.86" r="7.136496464611085" fill="#d4a76a"/>
<circle cx="290.43" cy="112.26" r="7.136496464611085" fill="#2d5a27"/>
<circle cx="300.0" cy="121.63" r="7.136496464611085" fill="#1a5f8a"/>
<circle cx="10.79" cy="126.78" r="7.136496464611085" fill="#1a5f8a"/>
<circle cx="25.08" cy="113.36" r="7.136496464611085" fill="#2d5a27"/>
<circle cx="29.95" cy="133.58" r="7.136496464611085" fill="#1a5f8a"/>
<circle cx="21.96" cy="124.45" r="7.136496464611085" fill="#1a5f8a"/>
<circle cx="42.29" cy="100.83" r="7.136496464611085" fill="#2d5a27"/>
<circle cx="62.77" cy="89.88" r="7.136496464611085" fill="#2d5a27"/>
<circle cx="63.9" cy="109.95" r="7.136496464611085" fill="#2d5a27"/>
<circle cx="56.31" cy="100.03" r="7.136496464611085" fill="#1a5f8a"/>
<circle cx="48.17" cy="141.53" r="7.136496464611085" fill="#1a5f8a"/>
<circle cx="64.62" cy="130.2" r="7.136496464611085" fill="#8cb369"/>
<circle cx="65.08" cy="150.27" r="7.136496464611085" fill="#1a5f8a"/>
<circle cx="59.27" cy="140.57" r="7.136496464611085" fill="#1a5f8a"/>
<circle cx="37.67" cy="111.59" r="7.136496464611085" fill="#2d5a27"/>
<circle cx="58.12" cy="120.29" r="7.136496464611085" fill="#d4a76a"/>
<circle cx="41.26" cy="132.01" r="7.136496464611085" fill="#8cb369"/>
<circle cx="45.72" cy="121.15" r="7.136496464611085" fill="#2d5a27"/>
<circle cx="89.08" cy="80.54" r="7.136496464611085" fill="#1a5f8a"/>
<circle cx="118.32" cy="74.65" r="7.136496464611085" fill="#1a5f8a"/>
<circle cx="114.41" cy="92.81" r="7.136496464611085" fill="#d4a76a"/>
<circle cx="107.35" cy="82.36" r="7.136496464611085" fill="#1a5f8a"/>
<circle cx="150.94" cy="72.29" r="7.136496464611085" fill="#1a5f8a"/>
<circle cx="183.47" cy="73.92" r="7.136496464611085" fill="#1a5f8a"/>
<circle cx="169.79" cy="89.64" r="7.136496464611085" fill="#1a5f8a"/>
<circle cx="168.27" cy="78.3" r="7.136496464611085" fill="#1a5f8a"/>
<circle cx="134.73" cy="107.13" r="7.136496464611085" fill="#2d5a27"/>
<circle cx="159.37" cy="106.03" r="7.136496464611085" fill="#2d5a27"/>
<circle cx="151.17" cy="122.55" r="7.136496464611085" fill="#1a5f8a"/>
<circle cx="148.49" cy="111.71" r="7.136496464611085" fill="#1a5f8a"/>
<circle cx="137.11" cy="78.48" r="7.136496464611085" fill="#1a5f8a"/>
<circle cx="157.12" cy="94.86" r="7.136496464611085" fill="#2d5a27"/>
<circle cx="130.3" cy="96.3" r="7.136496464611085" fill="#2d5a27"/>
<circle cx="141.69" cy="89.62" r="7.136496464611085" fill="#1a5f8a"/>
<circle cx="82.01" cy="160.26" r="7.136496464611085" fill="#1a5f8a"/>
<circle cx="101.61" cy="152.34" r="7.136496464611085" fill="#8cb369"/>
<circle cx="97.25" cy="170.18" r="7.136496464611085" fill="#1a5f8a"/>
<circle cx="93.6" cy="160.84" r="7.136496464611085" fill="#1a5f8a"/>
<circle cx="122.35" cy="145.54" r="7.136496464611085" fill="#8cb369"/>
<circle cx="143.85" cy="140.24" r="7.136496464611085" fill="#1a5f8a"/>
<circle cx="137.73" cy="157.04" r="7.136496464611085" fill="#1a5f8a"/>
<circle cx="134.62" cy="147.49" r="7.136496464611085" fill="#1a5f8a"/>
<circle cx="112.14" cy="180.56" r="7.136496464611085" fill="#1a5f8a"/>
<circle cx="132.03" cy="174.09" r="7.136496464611085" fill="#d4a76a"/>
<circle cx="126.57" cy="190.95" r="7.136496464611085" fill="#1a5f8a"/>
<circle cx="123.57" cy="181.82" r="7.136496464611085" fill="#1a5f8a"/>
<circle cx="113.66" cy="153.5" r="7.136496464611085" fill="#8cb369"/>
<circle cx="128.99" cy="164.65" r="7.136496464611085" fill="#d4a76a"/>
<circle cx="108.8" cy="171.23" r="7.136496464611085" fill="#1a5f8a"/>
<circle cx="117.14" cy="163.05" r="7.136496464611085" fill="#d4a76a"/>
<circle cx="79.69" cy="89.83" r="7.136496464611085" fill="#2d5a27"/>
<circle cx="104.1" cy="101.18" r="7.136496464611085" fill="#1a5f8a"/>
<circle cx="78.34" cy="109.92" r="7.136496464611085" fill="#2d5a27"/>
<circle cx="87.41" cy="100.03" r="7.136496464611085" fill="#2d5a27"/>
<circle cx="124.4" cy="114.75" r="7.136496464611085" fill="#1a5f8a"/>
<circle cx="141.07" cy="129.54" r="7.136496464611085" fill="#1a5f8a"/>
<circle cx="118.63" cy="135.08" r="7.136496464611085" fill="#8cb369"/>
<circle cx="128.04" cy="126.3" r="7.136496464611085" fill="#1a5f8a"/>
<circle cx="77.48" cy="130.28" r="7.136496464611085" fill="#1a5f8a"/>
<circle cx="97.06" cy="142.18" r="7.136496464611085" fill="#8cb369"/>
<circle cx="76.93" cy="150.39" r="7.136496464611085" fill="#1a5f8a"/>
<circle cx="83.86" cy="140.81" r="7.136496464611085" fill="#1a5f8a"/>
<circle cx="109.57" cy="112.26" r="7.136496464611085" fill="#1a5f8a"/>
<circle cx="105.28" cy="132.86" r="7.136496464611085" fill="#8cb369"/>
<circle cx="85.24" cy="120.41" r="7.136496464611085" fill="#d4a76a"/>
<circle cx="100.0" cy="121.63" r="7.136496464611085" fill="#1a5f8a"/>
<circle cx="680.0" cy="200.0" r="7.136496464611085" fill="#1a5f8a"/>
<circle cx="694.41" cy="189.69" r="7.136496464611085" fill="#1a5f8a"/>
<circle cx="694.41" cy="210.31" r="7.136496464611085" fill="#1a5f8a"/>
<circle cx="689.6" cy="200.0" r="7.136496464611085" fill="#1a5f8a"/>
<circle cx="709.27" cy="179.52" r="7.136496464611085" fill="#1a5f8a"/>
<circle cx="724.37" cy="169.79" r="7.136496464611085" fill="#1a5f8a"/>
<circle cx="724.5" cy="189.87" r="7.136496464611085" fill="#1a5f8a"/>
<circle cx="719.38" cy="179.7" r="7.136496464611085" fill="#1a5f8a"/>
<circle cx="709.27" cy="220.48" r="7.136496464611085" fill="#1a5f8a"/>
<circle cx="724.5" cy="210.13" r="7.136496464611085" fill="#1a5f8a"/>
<circle cx="724.37" cy="230.21" r="7.136496464611085" fill="#1a5f8a"/>
<circle cx="719.38" cy="220.3" r="7.136496464611085" fill="#1a5f8a"/>
<circle cx="704.33" cy="189.69" r="7.136496464611085" fill="#1a5f8a"/>
<circle cx="719.5" cy="200.0" r="7.136496464611085" fill="#1a5f8a"/>
<circle cx="704.33" cy="210.31" r="7.136496464611085" fill="#1a5f8a"/>
<circle cx="709.39" cy="200.0" r="7.136496464611085" fill="#1a5f8a"/>
<circle cx="741.05" cy="160.04" r="7.136496464611085" fill="#8cb369"/>
<circle cx="757.58" cy="151.55" r="7.136496464611085" fill="#8cb369"/>
<circle cx="759.3" cy="169.8" r="7.136496464611085" fill="#1a5f8a"/>
<circle cx="752.66" cy="160.39" r="7.136496464611085" fill="#d4a76a"/>
<circle cx="775.22" cy="143.82" r="7.136496464611085" fill="#d4a76a"/>
<circle cx="793.66" cy="137.29" r="7.136496464611085" fill="#1a5f8a"/>
<circle cx="794.02" cy="154.99" r="7.136496464611085" fill="#1a5f8a"/>
<circle cx="787.66" cy="145.25" r="7.136496464611085" fill="#1a5f8a"/>
<circle cx="777.08" cy="180.12" r="7.136496464611085" fill="#2d5a27"/>
<circle cx="794.21" cy="172.9" r="7.136496464611085" fill="#2d5a27"/>
<circle cx="794.31" cy="190.61" r="7.136496464611085" fill="#2d5a27"/>
<circle cx="788.53" cy="181.18" r="7.136496464611085" fill="#2d5a27"/>
<circle cx="769.7" cy="152.31" r="7.136496464611085" fill="#1a5f8a"/>
<circle cx="788.23" cy="163.21" r="7.136496464611085" fill="#8cb369"/>
<circle cx="770.88" cy="170.61" r="7.136496464611085" fill="#2d5a27"/>
<circle cx="776.3" cy="161.96" r="7.136496464611085" fill="#8cb369"/>
<circle cx="741.05" cy="239.96" r="7.136496464611085" fill="#1a5f8a"/>
<circle cx="759.3" cy="230.2" r="7.136496464611085" fill="#1a5f8a"/>
<circle cx="757.58" cy="248.45" r="7.136496464611085" fill="#1a5f8a"/>
<circle cx="752.66" cy="239.61" r="7.136496464611085" fill="#1a5f8a"/>
<circle cx="777.08" cy="219.88" r="7.136496464611085" fill="#2d5a27"/>
<circle cx="794.31" cy="209.39" r="7.136496464611085" fill="#2d5a27"/>
<circle cx="794.21" cy="227.1" r="7.136496464611085" fill="#1a5f8a"/>
<circle cx="788.53" cy="218.82" r="7.136496464611085" fill="#d4a76a"/>
<circle cx="775.22" cy="256.18" r="7.136496464611085" fill="#1a5f8a"/>
<circle cx="794.02" cy="245.01" r="7.136496464611085" fill="#1a5f8a"/>
<circle cx="793.66" cy="262.71" r="7.136496464611085" fill="#1a5f8a"/>
<circle cx="787.66" cy="254.75" r="7.136496464611085" fill="#1a5f8a"/>
<circle cx="770.88" cy="229.39" r="7.136496464611085" fill="#d4a76a"/>
<circle cx="788.23" cy="236.79" r="7.136496464611085" fill="#1a5f8a"/>
<circle cx="769.7" cy="247.69" r="7.136496464611085" fill="#1a5f8a"/>
<circle cx="776.3" cy="238.04" r="7.136496464611085" fill="#d4a76a"/>
<circle cx="735.66" cy="169.7" r="7.136496464611085" fill="#d4a76a"/>
<circle cx="753.69" cy="179.3" r="7.136496464611085" fill="#2d5a27"/>
<circle cx="735.51" cy="189.81" r="7.136496464611085" fill="#2d5a27"/>
<circle cx="741.62" cy="179.56" r="7.136496464611085" fill="#2d5a27"/>
<circle cx="771.44" cy="189.56" r="7.136496464611085" fill="#2d5a27"/>
<circle cx="788.64" cy="200.0" r="7.136496464611085" fill="#2d5a27"/>
<circle cx="771.44" cy="210.44" r="7.136496464611085" fill="#d4a76a"/>
<circle cx="777.18" cy="200.0" r="7.136496464611085" fill="#d4a76a"/>
<circle cx="735.51" cy="210.19" r="7.136496464611085" fill="#1a5f8a"/>
<circle cx="753.69" cy="220.7" r="7.136496464611085" fill="#1a5f8a"/>
<circle cx="735.66" cy="230.3" r="7.136496464611085" fill="#1a5f8a"/>
<circle cx="741.62" cy="220.44" r="7.136496464611085" fill="#1a5f8a"/>
<circle cx="759.59" cy="189.55" r="7.136496464611085" fill="#2d5a27"/>
<circle cx="759.59" cy="210.45" r="7.136496464611085" fill="#d4a76a"/>
<circle cx="741.48" cy="200.0" r="7.136496464611085" fill="#2d5a27"/>
<circle cx="753.54" cy="200.0" r="7.136496464611085" fill="#d4a76a"/>
<circle cx="537.22" cy="205.59" r="7.136496464611085" fill="#1a5f8a"/>
<circle cx="554.94" cy="205.61" r="7.136496464611085" fill="#1a5f8a"/>
<circle cx="542.88" cy="222.38" r="7.136496464611085" fill="#1a5f8a"/>
<circle cx="545.03" cy="211.21" r="7.136496464611085" fill="#1a5f8a"/>
<circle cx="572.88" cy="205.66" r="7.136496464611085" fill="#2d5a27"/>
<circle cx="590.6" cy="205.67" r="7.136496464611085" fill="#2d5a27"/>
<circle cx="579.8" cy="222.64" r="7.136496464611085" fill="#1a5f8a"/>
<circle cx="581.1" cy="211.34" r="7.136496464611085" fill="#2d5a27"/>
<circle cx="549.02" cy="239.28" r="7.136496464611085" fill="#7a9a4a"/>
<circle cx="568.25" cy="239.53" r="7.136496464611085" fill="#8cb369"/>
<circle cx="555.7" cy="255.86" r="7.136496464611085" fill="#7a9a4a"/>
<circle cx="557.69" cy="244.97" r="7.136496464611085" fill="#8cb369"/>
<circle cx="563.06" cy="211.28" r="7.136496464611085" fill="#d4a76a"/>
<circle cx="569.85" cy="228.34" r="7.136496464611085" fill="#1a5f8a"/>
<circle cx="551.06" cy="228.16" r="7.136496464611085" fill="#2d5a27"/>
<circle cx="561.33" cy="222.64" r="7.136496464611085" fill="#d4a76a"/>
<circle cx="609.4" cy="205.67" r="7.136496464611085" fill="#d4a76a"/>
<circle cx="627.12" cy="205.66" r="7.136496464611085" fill="#1a5f8a"/>
<circle cx="620.2" cy="222.64" r="7.136496464611085" fill="#1a5f8a"/>
<circle cx="618.9" cy="211.34" r="7.136496464611085" fill="#1a5f8a"/>
<circle cx="645.06" cy="205.61" r="7.136496464611085" fill="#1a5f8a"/>
<circle cx="662.78" cy="205.59" r="7.136496464611085" fill="#1a5f8a"/>
<circle cx="657.12" cy="222.38" r="7.136496464611085" fill="#1a5f8a"/>
<circle cx="654.97" cy="211.21" r="7.136496464611085" fill="#1a5f8a"/>
<circle cx="631.75" cy="239.53" r="7.136496464611085" fill="#1a5f8a"/>
<circle cx="650.98" cy="239.28" r="7.136496464611085" fill="#1a5f8a"/>
<circle cx="644.3" cy="255.86" r="7.136496464611085" fill="#1a5f8a"/>
<circle cx="642.31" cy="244.97" r="7.136496464611085" fill="#1a5f8a"/>
<circle cx="636.94" cy="211.28" r="7.136496464611085" fill="#1a5f8a"/>
<circle cx="648.94" cy="228.16" r="7.136496464611085" fill="#1a5f8a"/>
<circle cx="630.15" cy="228.34" r="7.136496464611085" fill="#1a5f8a"/>
<circle cx="638.67" cy="222.64" r="7.136496464611085" fill="#1a5f8a"/>
<circle cx="563.85" cy="273.23" r="7.136496464611085" fill="#8cb369"/>
<circle cx="587.8" cy="275.23" r="7.136496464611085" fill="#1a5f8a"/>
<circle cx="573.1" cy="289.32" r="7.136496464611085" fill="#1a5f8a"/>
<circle cx="574.93" cy="279.44" r="7.136496464611085" fill="#d4a76a"/>
<circle cx="612.2" cy="275.23" r="7.136496464611085" fill="#1a5f8a"/>
<circle cx="636.15" cy="273.23" r="7.136496464611085" fill="#d4a76a"/>
<circle cx="626.9" cy="289.32" r="7.136496464611085" fill="#1a5f8a"/>
<circle cx="625.07" cy="279.44" r="7.136496464611085" fill="#d4a76a"/>
<circle cx="584.78" cy="305.13" r="7.136496464611085" fill="#1a5f8a"/>
<circle cx="615.22" cy="305.13" r="7.136496464611085" fill="#1a5f8a"/>
<circle cx="600.0" cy="320.0" r="7.136496464611085" fill="#1a5f8a"/>
<circle cx="600.0" cy="310.4" r="7.136496464611085" fill="#1a5f8a"/>
<circle cx="600.0" cy="280.5" r="7.136496464611085" fill="#1a5f8a"/>
<circle cx="614.08" cy="295.28" r="7.136496464611085" fill="#d4a76a"/>
<circle cx="585.92" cy="295.28" r="7.136496464611085" fill="#1a5f8a"/>
<circle cx="600.0" cy="290.61" r="7.136496464611085" fill="#1a5f8a"/>
<circle cx="600.0" cy="211.36" r="7.136496464611085" fill="#2d5a27"/>
<circle cx="610.71" cy="228.47" r="7.136496464611085" fill="#d4a76a"/>
<circle cx="589.29" cy="228.47" r="7.136496464611085" fill="#1a5f8a"/>
<circle cx="600.0" cy="222.82" r="7.136496464611085" fill="#1a5f8a"/>
<circle cx="622.12" cy="245.67" r="7.136496464611085" fill="#1a5f8a"/>
<circle cx="634.43" cy="262.37" r="7.136496464611085" fill="#1a5f8a"/>
<circle cx="611.64" cy="264.27" r="7.136496464611085" fill="#1a5f8a"/>
<circle cx="622.74" cy="257.57" r="7.136496464611085" fill="#1a5f8a"/>
<circle cx="577.88" cy="245.67" r="7.136496464611085" fill="#d4a76a"/>
<circle cx="588.36" cy="264.27" r="7.136496464611085" fill="#1a5f8a"/>
<circle cx="565.57" cy="262.37" r="7.136496464611085" fill="#7a9a4a"/>
<circle cx="577.26" cy="257.57" r="7.136496464611085" fill="#8cb369"/>
<circle cx="610.99" cy="240.27" r="7.136496464611085" fill="#1a5f8a"/>
<circle cx="600.0" cy="258.52" r="7.136496464611085" fill="#1a5f8a"/>
<circle cx="589.01" cy="240.27" r="7.136496464611085" fill="#d4a76a"/>
<circle cx="600.0" cy="246.46" r="7.136496464611085" fill="#d4a76a"/>
<circle cx="406.34" cy="137.29" r="7.136496464611085" fill="#1a5f8a"/>
<circle cx="424.78" cy="143.82" r="7.136496464611085" fill="#1a5f8a"/>
<circle cx="405.98" cy="154.99" r="7.136496464611085" fill="#1a5f8a"/>
<circle cx="412.34" cy="145.25" r="7.136496464611085" fill="#1a5f8a"/>
<circle cx="442.42" cy="151.55" r="7.136496464611085" fill="#1a5f8a"/>
<circle cx="458.95" cy="160.04" r="7.136496464611085" fill="#1a5f8a"/>
<circle cx="440.7" cy="169.8" r="7.136496464611085" fill="#1a5f8a"/>
<circle cx="447.34" cy="160.39" r="7.136496464611085" fill="#1a5f8a"/>
<circle cx="405.79" cy="172.9" r="7.136496464611085" fill="#1a5f8a"/>
<circle cx="422.92" cy="180.12" r="7.136496464611085" fill="#1a5f8a"/>
<circle cx="405.69" cy="190.61" r="7.136496464611085" fill="#1a5f8a"/>
<circle cx="411.47" cy="181.18" r="7.136496464611085" fill="#1a5f8a"/>
<circle cx="430.3" cy="152.31" r="7.136496464611085" fill="#1a5f8a"/>
<circle cx="429.12" cy="170.61" r="7.136496464611085" fill="#1a5f8a"/>
<circle cx="411.77" cy="163.21" r="7.136496464611085" fill="#1a5f8a"/>
<circle cx="423.7" cy="161.96" r="7.136496464611085" fill="#1a5f8a"/>
<circle cx="475.63" cy="169.79" r="7.136496464611085" fill="#1a5f8a"/>
<circle cx="490.73" cy="179.52" r="7.136496464611085" fill="#1a5f8a"/>
<circle cx="475.5" cy="189.87" r="7.136496464611085" fill="#1a5f8a"/>
<circle cx="480.62" cy="179.7" r="7.136496464611085" fill="#1a5f8a"/>
<circle cx="505.59" cy="189.69" r="7.136496464611085" fill="#1a5f8a"/>
<circle cx="520.0" cy="200.0" r="7.136496464611085" fill="#1a5f8a"/>
<circle cx="505.59" cy="210.31" r="7.136496464611085" fill="#1a5f8a"/>
<circle cx="510.4" cy="200.0" r="7.136496464611085" fill="#1a5f8a"/>
<circle cx="475.5" cy="210.13" r="7.136496464611085" fill="#1a5f8a"/>
<circle cx="490.73" cy="220.48" r="7.136496464611085" fill="#1a5f8a"/>
<circle cx="475.63" cy="230.21" r="7.136496464611085" fill="#1a5f8a"/>
<circle cx="480.62" cy="220.3" r="7.136496464611085" fill="#1a5f8a"/>
<circle cx="495.67" cy="189.69" r="7.136496464611085" fill="#1a5f8a"/>
<circle cx="495.67" cy="210.31" r="7.136496464611085" fill="#1a5f8a"/>
<circle cx="480.5" cy="200.0" r="7.136496464611085" fill="#1a5f8a"/>
<circle cx="490.61" cy="200.0" r="7.136496464611085" fill="#1a5f8a"/>
<circle cx="405.69" cy="209.39" r="7.136496464611085" fill="#1a5f8a"/>
<circle cx="422.92" cy="219.88" r="7.136496464611085" fill="#d4a76a"/>
<circle cx="405.79" cy="227.1" r="7.136496464611085" fill="#1a5f8a"/>
<circle cx="411.47" cy="218.82" r="7.136496464611085" fill="#1a5f8a"/>
<circle cx="440.7" cy="230.2" r="7.136496464611085" fill="#2d5a27"/>
<circle cx="458.95" cy="239.96" r="7.136496464611085" fill="#d4a76a"/>
<circle cx="442.42" cy="248.45" r="7.136496464611085" fill="#1a5f8a"/>
<circle cx="447.34" cy="239.61" r="7.136496464611085" fill="#1a5f8a"/>
<circle cx="405.98" cy="245.01" r="7.136496464611085" fill="#1a5f8a"/>
<circle cx="424.78" cy="256.18" r="7.136496464611085" fill="#1a5f8a"/>
<circle cx="406.34" cy="262.71" r="7.136496464611085" fill="#1a5f8a"/>
<circle cx="412.34" cy="254.75" r="7.136496464611085" fill="#1a5f8a"/>
<circle cx="429.12" cy="229.39" r="7.136496464611085" fill="#1a5f8a"/>
<circle cx="430.3" cy="247.69" r="7.136496464611085" fill="#d4a76a"/>
<circle cx="411.77" cy="236.79" r="7.136496464611085" fill="#1a5f8a"/>
<circle cx="423.7" cy="238.04" r="7.136496464611085" fill="#8cb369"/>
<circle cx="464.34" cy="169.7" r="7.136496464611085" fill="#1a5f8a"/>
<circle cx="464.49" cy="189.81" r="7.136496464611085" fill="#1a5f8a"/>
<circle cx="446.31" cy="179.3" r="7.136496464611085" fill="#1a5f8a"/>
<circle cx="458.38" cy="179.56" r="7.136496464611085" fill="#1a5f8a"/>
<circle cx="464.49" cy="210.19" r="7.136496464611085" fill="#1a5f8a"/>
<circle cx="464.34" cy="230.3" r="7.136496464611085" fill="#1a5f8a"/>
<circle cx="446.31" cy="220.7" r="7.136496464611085" fill="#d4a76a"/>
<circle cx="458.38" cy="220.44" r="7.136496464611085" fill="#1a5f8a"/>
<circle cx="428.56" cy="189.56" r="7.136496464611085" fill="#1a5f8a"/>
<circle cx="428.56" cy="210.44" r="7.136496464611085" fill="#1a5f8a"/>
<circle cx="411.36" cy="200.0" r="7.136496464611085" fill="#1a5f8a"/>
<circle cx="422.82" cy="200.0" r="7.136496464611085" fill="#1a5f8a"/>
<circle cx="458.52" cy="200.0" r="7.136496464611085" fill="#1a5f8a"/>
<circle cx="440.41" cy="210.45" r="7.136496464611085" fill="#2d5a27"/>
<circle cx="440.41" cy="189.55" r="7.136496464611085" fill="#1a5f8a"/>
<circle cx="446.46" cy="200.0" r="7.136496464611085" fill="#1a5f8a"/>
<circle cx="200.0" cy="320.0" r="7.136496464611085" fill="#1a5f8a"/>
<circle cx="215.22" cy="305.13" r="7.136496464611085" fill="#1a5f8a"/>
<circle cx="184.78" cy="305.13" r="7.136496464611085" fill="#2d5a27"/>
<circle cx="200.0" cy="310.4" r="7.136496464611085" fill="#d4a76a"/>
<circle cx="226.9" cy="289.32" r="7.136496464611085" fill="#1a5f8a"/>
<circle cx="236.15" cy="273.23" r="7.136496464611085" fill="#1a5f8a"/>
<circle cx="212.2" cy="275.23" r="7.136496464611085" fill="#1a5f8a"/>
<circle cx="225.07" cy="279.44" r="7.136496464611085" fill="#1a5f8a"/>
<circle cx="173.1" cy="289.32" r="7.136496464611085" fill="#2d5a27"/>
<circle cx="187.8" cy="275.23" r="7.136496464611085" fill="#7a9a4a"/>
<circle cx="163.85" cy="273.23" r="7.136496464611085" fill="#8cb369"/>
<circle cx="174.93" cy="279.44" r="7.136496464611085" fill="#2d5a27"/>
<circle cx="214.08" cy="295.28" r="7.136496464611085" fill="#1a5f8a"/>
<circle cx="200.0" cy="280.5" r="7.136496464611085" fill="#2d5a27"/>
<circle cx="185.92" cy="295.28" r="7.136496464611085" fill="#2d5a27"/>
<circle cx="200.0" cy="290.61" r="7.136496464611085" fill="#2d5a27"/>
<circle cx="244.3" cy="255.86" r="7.136496464611085" fill="#1a5f8a"/>
<circle cx="250.98" cy="239.28" r="7.136496464611085" fill="#1a5f8a"/>
<circle cx="231.75" cy="239.53" r="7.136496464611085" fill="#1a5f8a"/>
<circle cx="242.31" cy="244.97" r="7.136496464611085" fill="#1a5f8a"/>
<circle cx="257.12" cy="222.38" r="7.136496464611085" fill="#1a5f8a"/>
<circle cx="262.78" cy="205.59" r="7.136496464611085" fill="#1a5f8a"/>
<circle cx="245.06" cy="205.61" r="7.136496464611085" fill="#1a5f8a"/>
<circle cx="254.97" cy="211.21" r="7.136496464611085" fill="#1a5f8a"/>
<circle cx="220.2" cy="222.64" r="7.136496464611085" fill="#1a5f8a"/>
<circle cx="227.12" cy="205.66" r="7.136496464611085" fill="#1a5f8a"/>
<circle cx="209.4" cy="205.67" r="7.136496464611085" fill="#2d5a27"/>
<circle cx="218.9" cy="211.34" r="7.136496464611085" fill="#1a5f8a"/>
<circle cx="248.94" cy="228.16" r="7.136496464611085" fill="#1a5f8a"/>
<circle cx="236.94" cy="211.28" r="7.136496464611085" fill="#1a5f8a"/>
<circle cx="230.15" cy="228.34" r="7.136496464611085" fill="#1a5f8a"/>
<circle cx="238.67" cy="222.64" r="7.136496464611085" fill="#1a5f8a"/>
<circle cx="155.7" cy="255.86" r="7.136496464611085" fill="#8cb369"/>
<circle cx="168.25" cy="239.53" r="7.136496464611085" fill="#8cb369"/>
<circle cx="149.02" cy="239.28" r="7.136496464611085" fill="#1a5f8a"/>
<circle cx="157.69" cy="244.97" r="7.136496464611085" fill="#d4a76a"/>
<circle cx="179.8" cy="222.64" r="7.136496464611085" fill="#1a5f8a"/>
<circle cx="190.6" cy="205.67" r="7.136496464611085" fill="#2d5a27"/>
<circle cx="172.88" cy="205.66" r="7.136496464611085" fill="#1a5f8a"/>
<circle cx="181.1" cy="211.34" r="7.136496464611085" fill="#1a5f8a"/>
<circle cx="142.88" cy="222.38" r="7.136496464611085" fill="#1a5f8a"/>
<circle cx="154.94" cy="205.61" r="7.136496464611085" fill="#1a5f8a"/>
<circle cx="137.22" cy="205.59" r="7.136496464611085" fill="#1a5f8a"/>
<circle cx="145.03" cy="211.21" r="7.136496464611085" fill="#1a5f8a"/>
<circle cx="169.85" cy="228.34" r="7.136496464611085" fill="#1a5f8a"/>
<circle cx="163.06" cy="211.28" r="7.136496464611085" fill="#1a5f8a"/>
<circle cx="151.06" cy="228.16" r="7.136496464611085" fill="#1a5f8a"/>
<circle cx="161.33" cy="222.64" r="7.136496464611085" fill="#1a5f8a"/>
<circle cx="234.43" cy="262.37" r="7.136496464611085" fill="#1a5f8a"/>
<circle cx="222.12" cy="245.67" r="7.136496464611085" fill="#1a5f8a"/>
<circle cx="211.64" cy="264.27" r="7.136496464611085" fill="#1a5f8a"/>
<circle cx="222.74" cy="257.57" r="7.136496464611085" fill="#1a5f8a"/>
<circle cx="210.71" cy="228.47" r="7.136496464611085" fill="#1a5f8a"/>
<circle cx="200.0" cy="211.36" r="7.136496464611085" fill="#d4a76a"/>
<circle cx="189.29" cy="228.47" r="7.136496464611085" fill="#1a5f8a"/>
<circle cx="200.0" cy="222.82" r="7.136496464611085" fill="#1a5f8a"/>
<circle cx="188.36" cy="264.27" r="7.136496464611085" fill="#8cb369"/>
<circle cx="177.88" cy="245.67" r="7.136496464611085" fill="#8cb369"/>
<circle cx="165.57" cy="262.37" r="7.136496464611085" fill="#8cb369"/>
<circle cx="177.26" cy="257.57" r="7.136496464611085" fill="#8cb369"/>
<circle cx="210.99" cy="240.27" r="7.136496464611085" fill="#1a5f8a"/>
<circle cx="189.01" cy="240.27" r="7.136496464611085" fill="#1a5f8a"/>
<circle cx="200.0" cy="258.52" r="7.136496464611085" fill="#1a5f8a"/>
<circle cx="200.0" cy="246.46" r="7.136496464611085" fill="#1a5f8a"/>
<circle cx="183.47" cy="326.08" r="7.136496464611085" fill="#1a5f8a"/>
<circle cx="169.79" cy="310.36" r="7.136496464611085" fill="#1a5f8a"/>
<circle cx="150.94" cy="327.71" r="7.136496464611085" fill="#2d5a27"/>
<circle cx="168.27" cy="321.7" r="7.136496464611085" fill="#1a5f8a"/>
<circle cx="159.37" cy="293.97" r="7.136496464611085" fill="#2d5a27"/>
<circle cx="151.17" cy="277.45" r="7.136496464611085" fill="#8cb369"/>
<circle cx="134.73" cy="292.87" r="7.136496464611085" fill="#1a5f8a"/>
<circle cx="148.49" cy="288.29" r="7.136496464611085" fill="#2d5a27"/>
<circle cx="118.32" cy="325.35" r="7.136496464611085" fill="#e8f4f8"/>
<circle cx="114.41" cy="307.19" r="7.136496464611085" fill="#d4a76a"/>
<circle cx="89.08" cy="319.46" r="7.136496464611085" fill="#1a5f8a"/>
<circle cx="107.35" cy="317.64" r="7.136496464611085" fill="#2d5a27"/>
<circle cx="157.12" cy="305.14" r="7.136496464611085" fill="#1a5f8a"/>
<circle cx="130.3" cy="303.7" r="7.136496464611085" fill="#1a5f8a"/>
<circle cx="137.11" cy="321.52" r="7.136496464611085" fill="#2d5a27"/>
<circle cx="141.69" cy="310.38" r="7.136496464611085" fill="#1a5f8a"/>
<circle cx="143.85" cy="259.76" r="7.136496464611085" fill="#1a5f8a"/>
<circle cx="137.73" cy="242.96" r="7.136496464611085" fill="#1a5f8a"/>
<circle cx="122.35" cy="254.46" r="7.136496464611085" fill="#1a5f8a"/>
<circle cx="134.62" cy="252.51" r="7.136496464611085" fill="#1a5f8a"/>
<circle cx="132.03" cy="225.91" r="7.136496464611085" fill="#1a5f8a"/>
<circle cx="126.57" cy="209.05" r="7.136496464611085" fill="#1a5f8a"/>
<circle cx="112.14" cy="219.44" r="7.136496464611085" fill="#1a5f8a"/>
<circle cx="123.57" cy="218.18" r="7.136496464611085" fill="#1a5f8a"/>
<circle cx="101.61" cy="247.66" r="7.136496464611085" fill="#1a5f8a"/>
<circle cx="97.25" cy="229.82" r="7.136496464611085" fill="#1a5f8a"/>
<circle cx="82.01" cy="239.74" r="7.136496464611085" fill="#1a5f8a"/>
<circle cx="93.6" cy="239.16" r="7.136496464611085" fill="#1a5f8a"/>
<circle cx="128.99" cy="235.35" r="7.136496464611085" fill="#1a5f8a"/>
<circle cx="108.8" cy="228.77" r="7.136496464611085" fill="#1a5f8a"/>
<circle cx="113.66" cy="246.5" r="7.136496464611085" fill="#1a5f8a"/>
<circle cx="117.14" cy="236.95" r="7.136496464611085" fill="#1a5f8a"/>
<circle cx="62.77" cy="310.12" r="7.136496464611085" fill="#1a5f8a"/>
<circle cx="63.9" cy="290.05" r="7.136496464611085" fill="#1a5f8a"/>
<circle cx="42.29" cy="299.17" r="7.136496464611085" fill="#1a5f8a"/>
<circle cx="56.31" cy="299.97" r="7.136496464611085" fill="#1a5f8a"/>
<circle cx="64.62" cy="269.8" r="7.136496464611085" fill="#1a5f8a"/>
<circle cx="65.08" cy="249.73" r="7.136496464611085" fill="#1a5f8a"/>
<circle cx="48.17" cy="258.47" r="7.136496464611085" fill="#1a5f8a"/>
<circle cx="59.27" cy="259.43" r="7.136496464611085" fill="#1a5f8a"/>
<circle cx="25.08" cy="286.64" r="7.136496464611085" fill="#1a5f8a"/>
<circle cx="29.95" cy="266.42" r="7.136496464611085" fill="#1a5f8a"/>
<circle cx="10.79" cy="273.22" r="7.136496464611085" fill="#1a5f8a"/>
<circle cx="21.96" cy="275.55" r="7.136496464611085" fill="#1a5f8a"/>
<circle cx="58.12" cy="279.71" r="7.136496464611085" fill="#1a5f8a"/>
<circle cx="41.26" cy="267.99" r="7.136496464611085" fill="#1a5f8a"/>
<circle cx="37.67" cy="288.41" r="7.136496464611085" fill="#1a5f8a"/>
<circle cx="45.72" cy="278.85" r="7.136496464611085" fill="#1a5f8a"/>
<circle cx="141.07" cy="270.46" r="7.136496464611085" fill="#1a5f8a"/>
<circle cx="118.63" cy="264.92" r="7.136496464611085" fill="#1a5f8a"/>
<circle cx="124.4" cy="285.25" r="7.136496464611085" fill="#2d5a27"/>
<circle cx="128.04" cy="273.7" r="7.136496464611085" fill="#d4a76a"/>
<circle cx="97.06" cy="257.82" r="7.136496464611085" fill="#1a5f8a"/>
<circle cx="76.93" cy="249.61" r="7.136496464611085" fill="#1a5f8a"/>
<circle cx="77.48" cy="269.72" r="7.136496464611085" fill="#1a5f8a"/>
<circle cx="83.86" cy="259.19" r="7.136496464611085" fill="#d4a76a"/>
<circle cx="104.1" cy="298.82" r="7.136496464611085" fill="#1a5f8a"/>
<circle cx="78.34" cy="290.08" r="7.136496464611085" fill="#1a5f8a"/>
<circle cx="79.69" cy="310.17" r="7.136496464611085" fill="#1a5f8a"/>
<circle cx="87.41" cy="299.97" r="7.136496464611085" fill="#1a5f8a"/>
<circle cx="105.28" cy="267.14" r="7.136496464611085" fill="#8cb369"/>
<circle cx="85.24" cy="279.59" r="7.136496464611085" fill="#1a5f8a"/>
<circle cx="109.57" cy="287.74" r="7.136496464611085" fill="#1a5f8a"/>
<circle cx="100.0" cy="278.37" r="7.136496464611085" fill="#d4a76a"/>
<circle cx="188.22" cy="336.99" r="7.136496464611085" fill="#1a5f8a"/>
<circle cx="150.51" cy="338.93" r="7.136496464611085" fill="#e8f4f8"/>
<circle cx="183.89" cy="354.61" r="7.136496464611085" fill="#e8f4f8"/>
<circle cx="173.53" cy="343.96" r="7.136496464611085" fill="#d4a76a"/>
<circle cx="112.74" cy="336.3" r="7.136496464611085" fill="#e8f4f8"/>
<circle cx="80.01" cy="329.61" r="7.136496464611085" fill="#1a5f8a"/>
<circle cx="83.48" cy="349.63" r="7.136496464611085" fill="#e8f4f8"/>
<circle cx="92.24" cy="338.87" r="7.136496464611085" fill="#1a5f8a"/>
<circle cx="173.6" cy="372.3" r="7.136496464611085" fill="#e8f4f8"/>
<circle cx="91.82" cy="369.73" r="7.136496464611085" fill="#e8f4f8"/>
<circle cx="130.79" cy="389.03" r="7.136496464611085" fill="#d4a76a"/>
<circle cx="130.84" cy="377.98" r="7.136496464611085" fill="#e8f4f8"/>
<circle cx="131.23" cy="343.89" r="7.136496464611085" fill="#e8f4f8"/>
<circle cx="102.28" cy="358.81" r="7.136496464611085" fill="#e8f4f8"/>
<circle cx="161.66" cy="361.42" r="7.136496464611085" fill="#e8f4f8"/>
<circle cx="131.11" cy="355.37" r="7.136496464611085" fill="#e8f4f8"/>
<circle cx="51.93" cy="319.24" r="7.136496464611085" fill="#1a5f8a"/>
<circle cx="30.98" cy="307.38" r="7.136496464611085" fill="#1a5f8a"/>
<circle cx="18.04" cy="323.9" r="7.136496464611085" fill="#1a5f8a"/>
<circle cx="33.79" cy="317.2" r="7.136496464611085" fill="#1a5f8a"/>
<circle cx="13.95" cy="294.03" r="7.136496464611085" fill="#1a5f8a"/>
<circle cx="800.0" cy="280.0" r="7.136496464611085" fill="#1a5f8a"/>
<circle cx="786.05" cy="294.03" r="7.136496464611085" fill="#1a5f8a"/>
<circle cx="800.0" cy="289.6" r="7.136496464611085" fill="#1a5f8a"/>
<circle cx="781.96" cy="323.9" r="7.136496464611085" fill="#1a5f8a"/>
<circle cx="769.02" cy="307.38" r="7.136496464611085" fill="#1a5f8a"/>
<circle cx="748.07" cy="319.24" r="7.136496464611085" fill="#1a5f8a"/>
<circle cx="766.21" cy="317.2" r="7.136496464611085" fill="#1a5f8a"/>
<circle cx="15.07" cy="303.89" r="7.136496464611085" fill="#1a5f8a"/>
<circle cx="784.93" cy="303.89" r="7.136496464611085" fill="#1a5f8a"/>
<circle cx="800.0" cy="319.5" r="7.136496464611085" fill="#1a5f8a"/>
<circle cx="800.0" cy="309.39" r="7.136496464611085" fill="#1a5f8a"/>
<circle cx="669.21" cy="389.03" r="7.136496464611085" fill="#1a5f8a"/>
<circle cx="708.18" cy="369.73" r="7.136496464611085" fill="#1a5f8a"/>
<circle cx="626.4" cy="372.3" r="7.136496464611085" fill="#1a5f8a"/>
<circle cx="669.16" cy="377.98" r="7.136496464611085" fill="#1a5f8a"/>
<circle cx="716.52" cy="349.63" r="7.136496464611085" fill="#1a5f8a"/>
<circle cx="719.99" cy="329.61" r="7.136496464611085" fill="#1a5f8a"/>
<circle cx="687.26" cy="336.3" r="7.136496464611085" fill="#1a5f8a"/>
<circle cx="707.76" cy="338.87" r="7.136496464611085" fill="#1a5f8a"/>
<circle cx="616.11" cy="354.61" r="7.136496464611085" fill="#1a5f8a"/>
<circle cx="649.49" cy="338.93" r="7.136496464611085" fill="#1a5f8a"/>
<circle cx="611.78" cy="336.99" r="7.136496464611085" fill="#1a5f8a"/>
<circle cx="626.47" cy="343.96" r="7.136496464611085" fill="#1a5f8a"/>
<circle cx="697.72" cy="358.81" r="7.136496464611085" fill="#1a5f8a"/>
<circle cx="668.77" cy="343.89" r="7.136496464611085" fill="#1a5f8a"/>
<circle cx="638.34" cy="361.42" r="7.136496464611085" fill="#1a5f8a"/>
<circle cx="668.89" cy="355.37" r="7.136496464611085" fill="#1a5f8a"/>
<circle cx="59.14" cy="329.44" r="7.136496464611085" fill="#1a5f8a"/>
<circle cx="20.86" cy="334.78" r="7.136496464611085" fill="#1a5f8a"/>
<circle cx="55.0" cy="349.47" r="7.136496464611085" fill="#1a5f8a"/>
<circle cx="44.65" cy="338.39" r="7.136496464611085" fill="#1a5f8a"/>
<circle cx="779.14" cy="334.78" r="7.136496464611085" fill="#1a5f8a"/>
<circle cx="740.86" cy="329.44" r="7.136496464611085" fill="#1a5f8a"/>
<circle cx="745.0" cy="349.47" r="7.136496464611085" fill="#1a5f8a"/>
<circle cx="755.35" cy="338.39" r="7.136496464611085" fill="#1a5f8a"/>
<circle cx="45.06" cy="369.62" r="7.136496464611085" fill="#e8f4f8"/>
<circle cx="754.94" cy="369.62" r="7.136496464611085" fill="#1a5f8a"/>
<circle cx="800.0" cy="388.64" r="7.136496464611085" fill="#1a5f8a"/>
<circle cx="800.0" cy="377.18" r="7.136496464611085" fill="#1a5f8a"/>
<circle cx="800.0" cy="341.48" r="7.136496464611085" fill="#1a5f8a"/>
<circle cx="767.19" cy="358.31" r="7.136496464611085" fill="#1a5f8a"/>
<circle cx="32.81" cy="358.31" r="7.136496464611085" fill="#e8f4f8"/>
<circle cx="800.0" cy="353.54" r="7.136496464611085" fill="#1a5f8a"/>
<circle cx="211.78" cy="336.99" r="7.136496464611085" fill="#1a5f8a"/>
<circle cx="216.11" cy="354.61" r="7.136496464611085" fill="#e8f4f8"/>
<circle cx="249.49" cy="338.93" r="7.136496464611085" fill="#e8f4f8"/>
<circle cx="226.47" cy="343.96" r="7.136496464611085" fill="#d4a76a"/>
<circle cx="226.4" cy="372.3" r="7.136496464611085" fill="#e8f4f8"/>
<circle cx="269.21" cy="389.03" r="7.136496464611085" fill="#e8f4f8"/>
<circle cx="308.18" cy="369.73" r="7.136496464611085" fill="#e8f4f8"/>
<circle cx="269.16" cy="377.98" r="7.136496464611085" fill="#e8f4f8"/>
<circle cx="287.26" cy="336.3" r="7.136496464611085" fill="#e8f4f8"/>
<circle cx="316.52" cy="349.63" r="7.136496464611085" fill="#e8f4f8"/>
<circle cx="319.99" cy="329.61" r="7.136496464611085" fill="#1a5f8a"/>
<circle cx="307.76" cy="338.87" r="7.136496464611085" fill="#e8f4f8"/>
<circle cx="238.34" cy="361.42" r="7.136496464611085" fill="#e8f4f8"/>
<circle cx="297.72" cy="358.81" r="7.136496464611085" fill="#d4a76a"/>
<circle cx="268.77" cy="343.89" r="7.136496464611085" fill="#e8f4f8"/>
<circle cx="268.89" cy="355.37" r="7.136496464611085" fill="#e8f4f8"/>
<circle cx="530.79" cy="389.03" r="7.136496464611085" fill="#1a5f8a"/>
<circle cx="573.6" cy="372.3" r="7.136496464611085" fill="#1a5f8a"/>
<circle cx="491.82" cy="369.73" r="7.136496464611085" fill="#1a5f8a"/>
<circle cx="530.84" cy="377.98" r="7.136496464611085" fill="#1a5f8a"/>
<circle cx="583.89" cy="354.61" r="7.136496464611085" fill="#1a5f8a"/>
<circle cx="588.22" cy="336.99" r="7.136496464611085" fill="#1a5f8a"/>
<circle cx="550.51" cy="338.93" r="7.136496464611085" fill="#1a5f8a"/>
<circle cx="573.53" cy="343.96" r="7.136496464611085" fill="#1a5f8a"/>
<circle cx="483.48" cy="349.63" r="7.136496464611085" fill="#1a5f8a"/>
<circle cx="512.74" cy="336.3" r="7.136496464611085" fill="#1a5f8a"/>
<circle cx="480.01" cy="329.61" r="7.136496464611085" fill="#1a5f8a"/>
<circle cx="492.24" cy="338.87" r="7.136496464611085" fill="#1a5f8a"/>
<circle cx="561.66" cy="361.42" r="7.136496464611085" fill="#1a5f8a"/>
<circle cx="531.23" cy="343.89" r="7.136496464611085" fill="#1a5f8a"/>
<circle cx="502.28" cy="358.81" r="7.136496464611085" fill="#1a5f8a"/>
<circle cx="531.11" cy="355.37" r="7.136496464611085" fill="#1a5f8a"/>
<circle cx="348.07" cy="319.24" r="7.136496464611085" fill="#1a5f8a"/>
<circle cx="381.96" cy="323.9" r="7.136496464611085" fill="#1a5f8a"/>
<circle cx="369.02" cy="307.38" r="7.136496464611085" fill="#1a5f8a"/>
<circle cx="366.21" cy="317.2" r="7.136496464611085" fill="#1a5f8a"/>
<circle cx="418.04" cy="323.9" r="7.136496464611085" fill="#1a5f8a"/>
<circle cx="451.93" cy="319.24" r="7.136496464611085" fill="#1a5f8a"/>
<circle cx="430.98" cy="307.38" r="7.136496464611085" fill="#1a5f8a"/>
<circle cx="433.79" cy="317.2" r="7.136496464611085" fill="#1a5f8a"/>
<circle cx="386.05" cy="294.03" r="7.136496464611085" fill="#1a5f8a"/>
<circle cx="413.95" cy="294.03" r="7.136496464611085" fill="#d4a76a"/>
<circle cx="400.0" cy="280.0" r="7.136496464611085" fill="#1a5f8a"/>
<circle cx="400.0" cy="289.6" r="7.136496464611085" fill="#1a5f8a"/>
<circle cx="400.0" cy="319.5" r="7.136496464611085" fill="#1a5f8a"/>
<circle cx="415.07" cy="303.89" r="7.136496464611085" fill="#d4a76a"/>
<circle cx="384.93" cy="303.89" r="7.136496464611085" fill="#1a5f8a"/>
<circle cx="400.0" cy="309.39" r="7.136496464611085" fill="#d4a76a"/>
<circle cx="400.0" cy="388.64" r="7.136496464611085" fill="#1a5f8a"/>
<circle cx="445.06" cy="369.62" r="7.136496464611085" fill="#1a5f8a"/>
<circle cx="354.94" cy="369.62" r="7.136496464611085" fill="#1a5f8a"/>
<circle cx="400.0" cy="377.18" r="7.136496464611085" fill="#1a5f8a"/>
<circle cx="455.0" cy="349.47" r="7.136496464611085" fill="#1a5f8a"/>
<circle cx="459.14" cy="329.44" r="7.136496464611085" fill="#1a5f8a"/>
<circle cx="420.86" cy="334.78" r="7.136496464611085" fill="#1a5f8a"/>
<circle cx="444.65" cy="338.39" r="7.136496464611085" fill="#1a5f8a"/>
<circle cx="345.0" cy="349.47" r="7.136496464611085" fill="#1a5f8a"/>
<circle cx="379.14" cy="334.78" r="7.136496464611085" fill="#1a5f8a"/>
<circle cx="340.86" cy="329.44" r="7.136496464611085" fill="#1a5f8a"/>
<circle cx="355.35" cy="338.39" r="7.136496464611085" fill="#d4a76a"/>
<circle cx="432.81" cy="358.31" r="7.136496464611085" fill="#1a5f8a"/>
<circle cx="400.0" cy="341.48" r="7.136496464611085" fill="#1a5f8a"/>
<circle cx="367.19" cy="358.31" r="7.136496464611085" fill="#1a5f8a"/>
<circle cx="400.0" cy="353.54" r="7.136496464611085" fill="#1a5f8a"/>
<circle cx="216.53" cy="326.08" r="7.136496464611085" fill="#1a5f8a"/>
<circle cx="249.06" cy="327.71" r="7.136496464611085" fill="#e8f4f8"/>
<circle cx="230.21" cy="310.36" r="7.136496464611085" fill="#1a5f8a"/>
<circle cx="231.73" cy="321.7" r="7.136496464611085" fill="#2d5a27"/>
<circle cx="281.68" cy="325.35" r="7.136496464611085" fill="#e8f4f8"/>
<circle cx="310.92" cy="319.46" r="7.136496464611085" fill="#1a5f8a"/>
<circle cx="285.59" cy="307.19" r="7.136496464611085" fill="#e8f4f8"/>
<circle cx="292.65" cy="317.64" r="7.136496464611085" fill="#d4a76a"/>
<circle cx="240.63" cy="293.97" r="7.136496464611085" fill="#1a5f8a"/>
<circle cx="265.27" cy="292.87" r="7.136496464611085" fill="#2d5a27"/>
<circle cx="248.83" cy="277.45" r="7.136496464611085" fill="#1a5f8a"/>
<circle cx="251.51" cy="288.29" r="7.136496464611085" fill="#1a5f8a"/>
<circle cx="262.89" cy="321.52" r="7.136496464611085" fill="#e8f4f8"/>
<circle cx="269.7" cy="303.7" r="7.136496464611085" fill="#e8f4f8"/>
<circle cx="242.88" cy="305.14" r="7.136496464611085" fill="#1a5f8a"/>
<circle cx="258.31" cy="310.38" r="7.136496464611085" fill="#2d5a27"/>
<circle cx="337.23" cy="310.12" r="7.136496464611085" fill="#2d5a27"/>
<circle cx="357.71" cy="299.17" r="7.136496464611085" fill="#d4a76a"/>
<circle cx="336.1" cy="290.05" r="7.136496464611085" fill="#2d5a27"/>
<circle cx="343.69" cy="299.97" r="7.136496464611085" fill="#2d5a27"/>
<circle cx="374.92" cy="286.64" r="7.136496464611085" fill="#2d5a27"/>
<circle cx="389.21" cy="273.22" r="7.136496464611085" fill="#d4a76a"/>
<circle cx="370.05" cy="266.42" r="7.136496464611085" fill="#7a9a4a"/>
<circle cx="378.04" cy="275.55" r="7.136496464611085" fill="#8cb369"/>
<circle cx="335.38" cy="269.8" r="7.136496464611085" fill="#7a9a4a"/>
<circle cx="351.83" cy="258.47" r="7.136496464611085" fill="#8cb369"/>
<circle cx="334.92" cy="249.73" r="7.136496464611085" fill="#8cb369"/>
<circle cx="340.73" cy="259.43" r="7.136496464611085" fill="#8cb369"/>
<circle cx="362.33" cy="288.41" r="7.136496464611085" fill="#2d5a27"/>
<circle cx="358.74" cy="267.99" r="7.136496464611085" fill="#8cb369"/>
<circle cx="341.88" cy="279.71" r="7.136496464611085" fill="#2d5a27"/>
<circle cx="354.28" cy="278.85" r="7.136496464611085" fill="#2d5a27"/>
<circle cx="256.15" cy="259.76" r="7.136496464611085" fill="#1a5f8a"/>
<circle cx="277.65" cy="254.46" r="7.136496464611085" fill="#1a5f8a"/>
<circle cx="262.27" cy="242.96" r="7.136496464611085" fill="#1a5f8a"/>
<circle cx="265.38" cy="252.51" r="7.136496464611085" fill="#1a5f8a"/>
<circle cx="298.39" cy="247.66" r="7.136496464611085" fill="#1a5f8a"/>
<circle cx="317.99" cy="239.74" r="7.136496464611085" fill="#7a9a4a"/>
<circle cx="302.75" cy="229.82" r="7.136496464611085" fill="#1a5f8a"/>
<circle cx="306.4" cy="239.16" r="7.136496464611085" fill="#1a5f8a"/>
<circle cx="267.97" cy="225.91" r="7.136496464611085" fill="#1a5f8a"/>
<circle cx="287.86" cy="219.44" r="7.136496464611085" fill="#1a5f8a"/>
<circle cx="273.43" cy="209.05" r="7.136496464611085" fill="#1a5f8a"/>
<circle cx="276.43" cy="218.18" r="7.136496464611085" fill="#1a5f8a"/>
<circle cx="286.34" cy="246.5" r="7.136496464611085" fill="#1a5f8a"/>
<circle cx="291.2" cy="228.77" r="7.136496464611085" fill="#1a5f8a"/>
<circle cx="271.01" cy="235.35" r="7.136496464611085" fill="#1a5f8a"/>
<circle cx="282.86" cy="236.95" r="7.136496464611085" fill="#1a5f8a"/>
<circle cx="320.31" cy="310.17" r="7.136496464611085" fill="#2d5a27"/>
<circle cx="321.66" cy="290.08" r="7.136496464611085" fill="#2d5a27"/>
<circle cx="295.9" cy="298.82" r="7.136496464611085" fill="#2d5a27"/>
<circle cx="312.59" cy="299.97" r="7.136496464611085" fill="#2d5a27"/>
<circle cx="322.52" cy="269.72" r="7.136496464611085" fill="#7a9a4a"/>
<circle cx="323.07" cy="249.61" r="7.136496464611085" fill="#7a9a4a"/>
<circle cx="302.94" cy="257.82" r="7.136496464611085" fill="#8cb369"/>
<circle cx="316.14" cy="259.19" r="7.136496464611085" fill="#7a9a4a"/>
<circle cx="275.6" cy="285.25" r="7.136496464611085" fill="#2d5a27"/>
<circle cx="281.37" cy="264.92" r="7.136496464611085" fill="#1a5f8a"/>
<circle cx="258.93" cy="270.46" r="7.136496464611085" fill="#1a5f8a"/>
<circle cx="271.96" cy="273.7" r="7.136496464611085" fill="#8cb369"/>
<circle cx="314.76" cy="279.59" r="7.136496464611085" fill="#2d5a27"/>
<circle cx="294.72" cy="267.14" r="7.136496464611085" fill="#8cb369"/>
<circle cx="290.43" cy="287.74" r="7.136496464611085" fill="#2d5a27"/>
<circle cx="300.0" cy="278.37" r="7.136496464611085" fill="#2d5a27"/>
<circle cx="280.0" cy="200.0" r="7.136496464611085" fill="#d4a76a"/>
<circle cx="294.41" cy="189.69" r="7.136496464611085" fill="#1a5f8a"/>
<circle cx="294.41" cy="210.31" r="7.136496464611085" fill="#2d5a27"/>
<circle cx="289.6" cy="200.0" r="7.136496464611085" fill="#2d5a27"/>
<circle cx="309.27" cy="179.52" r="7.136496464611085" fill="#1a5f8a"/>
<circle cx="324.37" cy="169.79" r="7.136496464611085" fill="#1a5f8a"/>
<circle cx="324.5" cy="189.87" r="7.136496464611085" fill="#1a5f8a"/>
<circle cx="319.38" cy="179.7" r="7.136496464611085" fill="#1a5f8a"/>
<circle cx="309.27" cy="220.48" r="7.136496464611085" fill="#2d5a27"/>
<circle cx="324.5" cy="210.13" r="7.136496464611085" fill="#2d5a27"/>
<circle cx="324.37" cy="230.21" r="7.136496464611085" fill="#2d5a27"/>
<circle cx="319.38" cy="220.3" r="7.136496464611085" fill="#2d5a27"/>
<circle cx="304.33" cy="189.69" r="7.136496464611085" fill="#1a5f8a"/>
<circle cx="319.5" cy="200.0" r="7.136496464611085" fill="#2d5a27"/>
<circle cx="304.33" cy="210.31" r="7.136496464611085" fill="#2d5a27"/>
<circle cx="309.39" cy="200.0" r="7.136496464611085" fill="#1a5f8a"/>
<circle cx="341.05" cy="160.04" r="7.136496464611085" fill="#1a5f8a"/>
<circle cx="357.58" cy="151.55" r="7.136496464611085" fill="#1a5f8a"/>
<circle cx="359.3" cy="169.8" r="7.136496464611085" fill="#1a5f8a"/>
<circle cx="352.66" cy="160.39" r="7.136496464611085" fill="#1a5f8a"/>
<circle cx="375.22" cy="143.82" r="7.136496464611085" fill="#1a5f8a"/>
<circle cx="393.66" cy="137.29" r="7.136496464611085" fill="#1a5f8a"/>
<circle cx="394.02" cy="154.99" r="7.136496464611085" fill="#1a5f8a"/>
<circle cx="387.66" cy="145.25" r="7.136496464611085" fill="#1a5f8a"/>
<circle cx="377.08" cy="180.12" r="7.136496464611085" fill="#1a5f8a"/>
<circle cx="394.21" cy="172.9" r="7.136496464611085" fill="#1a5f8a"/>
<circle cx="394.31" cy="190.61" r="7.136496464611085" fill="#1a5f8a"/>
<circle cx="388.53" cy="181.18" r="7.136496464611085" fill="#1a5f8a"/>
<circle cx="369.7" cy="152.31" r="7.136496464611085" fill="#1a5f8a"/>
<circle cx="388.23" cy="163.21" r="7.136496464611085" fill="#1a5f8a"/>
<circle cx="370.88" cy="170.61" r="7.136496464611085" fill="#1a5f8a"/>
<circle cx="376.3" cy="161.96" r="7.136496464611085" fill="#1a5f8a"/>
<circle cx="341.05" cy="239.96" r="7.136496464611085" fill="#8cb369"/>
<circle cx="359.3" cy="230.2" r="7.136496464611085" fill="#2d5a27"/>
<circle cx="357.58" cy="248.45" r="7.136496464611085" fill="#8cb369"/>
<circle cx="352.66" cy="239.61" r="7.136496464611085" fill="#8cb369"/>
<circle cx="377.08" cy="219.88" r="7.136496464611085" fill="#2d5a27"/>
<circle cx="394.31" cy="209.39" r="7.136496464611085" fill="#1a5f8a"/>
<circle cx="394.21" cy="227.1" r="7.136496464611085" fill="#1a5f8a"/>
<circle cx="388.53" cy="218.82" r="7.136496464611085" fill="#1a5f8a"/>
<circle cx="375.22" cy="256.18" r="7.136496464611085" fill="#8cb369"/>
<circle cx="394.02" cy="245.01" r="7.136496464611085" fill="#8cb369"/>
<circle cx="393.66" cy="262.71" r="7.136496464611085" fill="#8cb369"/>
<circle cx="387.66" cy="254.75" r="7.136496464611085" fill="#8cb369"/>
<circle cx="370.88" cy="229.39" r="7.136496464611085" fill="#2d5a27"/>
<circle cx="388.23" cy="236.79" r="7.136496464611085" fill="#8cb369"/>
<circle cx="369.7" cy="247.69" r="7.136496464611085" fill="#8cb369"/>
<circle cx="376.3" cy="238.04" r="7.136496464611085" fill="#8cb369"/>
<circle cx="335.66" cy="169.7" r="7.136496464611085" fill="#1a5f8a"/>
<circle cx="353.69" cy="179.3" r="7.136496464611085" fill="#2d5a27"/>
<circle cx="335.51" cy="189.81" r="7.136496464611085" fill="#d4a76a"/>
<circle cx="341.62" cy="179.56" r="7.136496464611085" fill="#d4a76a"/>
<circle cx="371.44" cy="189.56" r="7.136496464611085" fill="#1a5f8a"/>
<circle cx="388.64" cy="200.0" r="7.136496464611085" fill="#1a5f8a"/>
<circle cx="371.44" cy="210.44" r="7.136496464611085" fill="#2d5a27"/>
<circle cx="377.18" cy="200.0" r="7.136496464611085" fill="#1a5f8a"/>
<circle cx="335.51" cy="210.19" r="7.136496464611085" fill="#6b4423"/>
<circle cx="353.69" cy="220.7" r="7.136496464611085" fill="#2d5a27"/>
<circle cx="335.66" cy="230.3" r="7.136496464611085" fill="#7a9a4a"/>
<circle cx="341.62" cy="220.44" r="7.136496464611085" fill="#2d5a27"/>
<circle cx="359.59" cy="189.55" r="7.136496464611085" fill="#2d5a27"/>
<circle cx="359.59" cy="210.45" r="7.136496464611085" fill="#2d5a27"/>
<circle cx="341.48" cy="200.0" r="7.136496464611085" fill="#2d5a27"/>
<circle cx="353.54" cy="200.0" r="7.136496464611085" fill="#2d5a27"/>
<circle cx="137.22" cy="194.41" r="7.136496464611085" fill="#1a5f8a"/>
<circle cx="154.94" cy="194.39" r="7.136496464611085" fill="#1a5f8a"/>
<circle cx="142.88" cy="177.62" r="7.136496464611085" fill="#1a5f8a"/>
<circle cx="145.03" cy="188.79" r="7.136496464611085" fill="#1a5f8a"/>
<circle cx="172.88" cy="194.34" r="7.136496464611085" fill="#1a5f8a"/>
<circle cx="190.6" cy="194.33" r="7.136496464611085" fill="#2d5a27"/>
<circle cx="179.8" cy="177.36" r="7.136496464611085" fill="#2d5a27"/>
<circle cx="181.1" cy="188.66" r="7.136496464611085" fill="#1a5f8a"/>
<circle cx="149.02" cy="160.72" r="7.136496464611085" fill="#d4a76a"/>
<circle cx="168.25" cy="160.47" r="7.136496464611085" fill="#8cb369"/>
<circle cx="155.7" cy="144.14" r="7.136496464611085" fill="#d4a76a"/>
<circle cx="157.69" cy="155.03" r="7.136496464611085" fill="#d4a76a"/>
<circle cx="163.06" cy="188.72" r="7.136496464611085" fill="#1a5f8a"/>
<circle cx="169.85" cy="171.66" r="7.136496464611085" fill="#2d5a27"/>
<circle cx="151.06" cy="171.84" r="7.136496464611085" fill="#1a5f8a"/>
<circle cx="161.33" cy="177.36" r="7.136496464611085" fill="#d4a76a"/>
<circle cx="209.4" cy="194.33" r="7.136496464611085" fill="#2d5a27"/>
<circle cx="227.12" cy="194.34" r="7.136496464611085" fill="#2d5a27"/>
<circle cx="220.2" cy="177.36" r="7.136496464611085" fill="#2d5a27"/>
<circle cx="218.9" cy="188.66" r="7.136496464611085" fill="#2d5a27"/>
<circle cx="245.06" cy="194.39" r="7.136496464611085" fill="#1a5f8a"/>
<circle cx="262.78" cy="194.41" r="7.136496464611085" fill="#1a5f8a"/>
<circle cx="257.12" cy="177.62" r="7.136496464611085" fill="#1a5f8a"/>
<circle cx="254.97" cy="188.79" r="7.136496464611085" fill="#1a5f8a"/>
<circle cx="231.75" cy="160.47" r="7.136496464611085" fill="#d4a76a"/>
<circle cx="250.98" cy="160.72" r="7.136496464611085" fill="#1a5f8a"/>
<circle cx="244.3" cy="144.14" r="7.136496464611085" fill="#1a5f8a"/>
<circle cx="242.31" cy="155.03" r="7.136496464611085" fill="#1a5f8a"/>
<circle cx="236.94" cy="188.72" r="7.136496464611085" fill="#d4a76a"/>
<circle cx="248.94" cy="171.84" r="7.136496464611085" fill="#1a5f8a"/>
<circle cx="230.15" cy="171.66" r="7.136496464611085" fill="#2d5a27"/>
<circle cx="238.67" cy="177.36" r="7.136496464611085" fill="#1a5f8a"/>
<circle cx="163.85" cy="126.77" r="7.136496464611085" fill="#1a5f8a"/>
<circle cx="187.8" cy="124.77" r="7.136496464611085" fill="#d4a76a"/>
<circle cx="173.1" cy="110.68" r="7.136496464611085" fill="#2d5a27"/>
<circle cx="174.93" cy="120.56" r="7.136496464611085" fill="#2d5a27"/>
<circle cx="212.2" cy="124.77" r="7.136496464611085" fill="#1a5f8a"/>
<circle cx="236.15" cy="126.77" r="7.136496464611085" fill="#1a5f8a"/>
<circle cx="226.9" cy="110.68" r="7.136496464611085" fill="#1a5f8a"/>
<circle cx="225.07" cy="120.56" r="7.136496464611085" fill="#1a5f8a"/>
<circle cx="184.78" cy="94.87" r="7.136496464611085" fill="#1a5f8a"/>
<circle cx="215.22" cy="94.87" r="7.136496464611085" fill="#1a5f8a"/>
<circle cx="200.0" cy="80.0" r="7.136496464611085" fill="#1a5f8a"/>
<circle cx="200.0" cy="89.6" r="7.136496464611085" fill="#1a5f8a"/>
<circle cx="200.0" cy="119.5" r="7.136496464611085" fill="#1a5f8a"/>
<circle cx="214.08" cy="104.72" r="7.136496464611085" fill="#1a5f8a"/>
<circle cx="185.92" cy="104.72" r="7.136496464611085" fill="#1a5f8a"/>
<circle cx="200.0" cy="109.39" r="7.136496464611085" fill="#1a5f8a"/>
<circle cx="200.0" cy="188.64" r="7.136496464611085" fill="#2d5a27"/>
<circle cx="210.71" cy="171.53" r="7.136496464611085" fill="#2d5a27"/>
<circle cx="189.29" cy="171.53" r="7.136496464611085" fill="#d4a76a"/>
<circle cx="200.0" cy="177.18" r="7.136496464611085" fill="#c9b037"/>
<circle cx="222.12" cy="154.33" r="7.136496464611085" fill="#d4a76a"/>
<circle cx="234.43" cy="137.63" r="7.136496464611085" fill="#1a5f8a"/>
<circle cx="211.64" cy="135.73" r="7.136496464611085" fill="#8cb369"/>
<circle cx="222.74" cy="142.43" r="7.136496464611085" fill="#1a5f8a"/>
<circle cx="177.88" cy="154.33" r="7.136496464611085" fill="#7a9a4a"/>
<circle cx="188.36" cy="135.73" r="7.136496464611085" fill="#7a9a4a"/>
<circle cx="165.57" cy="137.63" r="7.136496464611085" fill="#1a5f8a"/>
<circle cx="177.26" cy="142.43" r="7.136496464611085" fill="#7a9a4a"/>
<circle cx="210.99" cy="159.73" r="7.136496464611085" fill="#7a9a4a"/>
<circle cx="200.0" cy="141.48" r="7.136496464611085" fill="#7a9a4a"/>
<circle cx="189.01" cy="159.73" r="7.136496464611085" fill="#d4a76a"/>
<circle cx="200.0" cy="153.54" r="7.136496464611085" fill="#8cb369"/>
<circle cx="6.34" cy="262.71" r="7.136496464611085" fill="#1a5f8a"/>
<circle cx="24.78" cy="256.18" r="7.136496464611085" fill="#1a5f8a"/>
<circle cx="5.98" cy="245.01" r="7.136496464611085" fill="#1a5f8a"/>
<circle cx="12.34" cy="254.75" r="7.136496464611085" fill="#1a5f8a"/>
<circle cx="42.42" cy="248.45" r="7.136496464611085" fill="#1a5f8a"/>
<circle cx="58.95" cy="239.96" r="7.136496464611085" fill="#1a5f8a"/>
<circle cx="40.7" cy="230.2" r="7.136496464611085" fill="#1a5f8a"/>
<circle cx="47.34" cy="239.61" r="7.136496464611085" fill="#1a5f8a"/>
<circle cx="5.79" cy="227.1" r="7.136496464611085" fill="#1a5f8a"/>
<circle cx="22.92" cy="219.88" r="7.136496464611085" fill="#1a5f8a"/>
<circle cx="5.69" cy="209.39" r="7.136496464611085" fill="#1a5f8a"/>
<circle cx="11.47" cy="218.82" r="7.136496464611085" fill="#1a5f8a"/>
<circle cx="30.3" cy="247.69" r="7.136496464611085" fill="#1a5f8a"/>
<circle cx="29.12" cy="229.39" r="7.136496464611085" fill="#1a5f8a"/>
<circle cx="11.77" cy="236.79" r="7.136496464611085" fill="#1a5f8a"/>
<circle cx="23.7" cy="238.04" r="7.136496464611085" fill="#1a5f8a"/>
<circle cx="75.63" cy="230.21" r="7.136496464611085" fill="#1a5f8a"/>
<circle cx="90.73" cy="220.48" r="7.136496464611085" fill="#1a5f8a"/>
<circle cx="75.5" cy="210.13" r="7.136496464611085" fill="#1a5f8a"/>
<circle cx="80.62" cy="220.3" r="7.136496464611085" fill="#1a5f8a"/>
<circle cx="105.59" cy="210.31" r="7.136496464611085" fill="#1a5f8a"/>
<circle cx="120.0" cy="200.0" r="7.136496464611085" fill="#1a5f8a"/>
<circle cx="105.59" cy="189.69" r="7.136496464611085" fill="#1a5f8a"/>
<circle cx="110.4" cy="200.0" r="7.136496464611085" fill="#1a5f8a"/>
<circle cx="75.5" cy="189.87" r="7.136496464611085" fill="#1a5f8a"/>
<circle cx="90.73" cy="179.52" r="7.136496464611085" fill="#1a5f8a"/>
<circle cx="75.63" cy="169.79" r="7.136496464611085" fill="#1a5f8a"/>
<circle cx="80.62" cy="179.7" r="7.136496464611085" fill="#1a5f8a"/>
<circle cx="95.67" cy="210.31" r="7.136496464611085" fill="#1a5f8a"/>
<circle cx="95.67" cy="189.69" r="7.136496464611085" fill="#1a5f8a"/>
<circle cx="80.5" cy="200.0" r="7.136496464611085" fill="#1a5f8a"/>
<circle cx="90.61" cy="200.0" r="7.136496464611085" fill="#1a5f8a"/>
<circle cx="5.69" cy="190.61" r="7.136496464611085" fill="#1a5f8a"/>
<circle cx="22.92" cy="180.12" r="7.136496464611085" fill="#1a5f8a"/>
<circle cx="5.79" cy="172.9" r="7.136496464611085" fill="#1a5f8a"/>
<circle cx="11.47" cy="181.18" r="7.136496464611085" fill="#1a5f8a"/>
<circle cx="40.7" cy="169.8" r="7.136496464611085" fill="#1a5f8a"/>
<circle cx="58.95" cy="160.04" r="7.136496464611085" fill="#1a5f8a"/>
<circle cx="42.42" cy="151.55" r="7.136496464611085" fill="#1a5f8a"/>
<circle cx="47.34" cy="160.39" r="7.136496464611085" fill="#1a5f8a"/>
<circle cx="5.98" cy="154.99" r="7.136496464611085" fill="#1a5f8a"/>
<circle cx="24.78" cy="143.82" r="7.136496464611085" fill="#1a5f8a"/>
<circle cx="6.34" cy="137.29" r="7.136496464611085" fill="#1a5f8a"/>
<circle cx="12.34" cy="145.25" r="7.136496464611085" fill="#1a5f8a"/>
<circle cx="29.12" cy="170.61" r="7.136496464611085" fill="#1a5f8a"/>
<circle cx="30.3" cy="152.31" r="7.136496464611085" fill="#1a5f8a"/>
<circle cx="11.77" cy="163.21" r="7.136496464611085" fill="#1a5f8a"/>
<circle cx="23.7" cy="161.96" r="7.136496464611085" fill="#1a5f8a"/>
<circle cx="64.34" cy="230.3" r="7.136496464611085" fill="#1a5f8a"/>
<circle cx="64.49" cy="210.19" r="7.136496464611085" fill="#1a5f8a"/>
<circle cx="46.31" cy="220.7" r="7.136496464611085" fill="#1a5f8a"/>
<circle cx="58.38" cy="220.44" r="7.136496464611085" fill="#1a5f8a"/>
<circle cx="64.49" cy="189.81" r="7.136496464611085" fill="#1a5f8a"/>
<circle cx="64.34" cy="169.7" r="7.136496464611085" fill="#1a5f8a"/>
<circle cx="46.31" cy="179.3" r="7.136496464611085" fill="#1a5f8a"/>
<circle cx="58.38" cy="179.56" r="7.136496464611085" fill="#1a5f8a"/>
<circle cx="28.56" cy="210.44" r="7.136496464611085" fill="#1a5f8a"/>
<circle cx="28.56" cy="189.56" r="7.136496464611085" fill="#1a5f8a"/>
<circle cx="11.36" cy="200.0" r="7.136496464611085" fill="#1a5f8a"/>
<circle cx="22.82" cy="200.0" r="7.136496464611085" fill="#1a5f8a"/>
<circle cx="58.52" cy="200.0" r="7.136496464611085" fill="#1a5f8a"/>
<circle cx="40.41" cy="189.55" r="7.136496464611085" fill="#1a5f8a"/>
<circle cx="40.41" cy="210.45" r="7.136496464611085" fill="#1a5f8a"/>
<circle cx="46.46" cy="200.0" r="7.136496464611085" fill="#1a5f8a"/>
<circle cx="616.53" cy="326.08" r="7.136496464611085" fill="#1a5f8a"/>
<circle cx="649.06" cy="327.71" r="7.136496464611085" fill="#1a5f8a"/>
<circle cx="630.21" cy="310.36" r="7.136496464611085" fill="#1a5f8a"/>
<circle cx="631.73" cy="321.7" r="7.136496464611085" fill="#1a5f8a"/>
<circle cx="681.68" cy="325.35" r="7.136496464611085" fill="#1a5f8a"/>
<circle cx="710.92" cy="319.46" r="7.136496464611085" fill="#1a5f8a"/>
<circle cx="685.59" cy="307.19" r="7.136496464611085" fill="#1a5f8a"/>
<circle cx="692.65" cy="317.64" r="7.136496464611085" fill="#1a5f8a"/>
<circle cx="640.63" cy="293.97" r="7.136496464611085" fill="#1a5f8a"/>
<circle cx="665.27" cy="292.87" r="7.136496464611085" fill="#1a5f8a"/>
<circle cx="648.83" cy="277.45" r="7.136496464611085" fill="#1a5f8a"/>
<circle cx="651.51" cy="288.29" r="7.136496464611085" fill="#d4a76a"/>
<circle cx="662.89" cy="321.52" r="7.136496464611085" fill="#1a5f8a"/>
<circle cx="669.7" cy="303.7" r="7.136496464611085" fill="#1a5f8a"/>
<circle cx="642.88" cy="305.14" r="7.136496464611085" fill="#1a5f8a"/>
<circle cx="658.31" cy="310.38" r="7.136496464611085" fill="#1a5f8a"/>
<circle cx="737.23" cy="310.12" r="7.136496464611085" fill="#1a5f8a"/>
<circle cx="757.71" cy="299.17" r="7.136496464611085" fill="#1a5f8a"/>
<circle cx="736.1" cy="290.05" r="7.136496464611085" fill="#1a5f8a"/>
<circle cx="743.69" cy="299.97" r="7.136496464611085" fill="#1a5f8a"/>
<circle cx="774.92" cy="286.64" r="7.136496464611085" fill="#1a5f8a"/>
<circle cx="789.21" cy="273.22" r="7.136496464611085" fill="#1a5f8a"/>
<circle cx="770.05" cy="266.42" r="7.136496464611085" fill="#1a5f8a"/>
<circle cx="778.04" cy="275.55" r="7.136496464611085" fill="#1a5f8a"/>
<circle cx="735.38" cy="269.8" r="7.136496464611085" fill="#1a5f8a"/>
<circle cx="751.83" cy="258.47" r="7.136496464611085" fill="#1a5f8a"/>
<circle cx="734.92" cy="249.73" r="7.136496464611085" fill="#1a5f8a"/>
<circle cx="740.73" cy="259.43" r="7.136496464611085" fill="#1a5f8a"/>
<circle cx="762.33" cy="288.41" r="7.136496464611085" fill="#1a5f8a"/>
<circle cx="758.74" cy="267.99" r="7.136496464611085" fill="#1a5f8a"/>
<circle cx="741.88" cy="279.71" r="7.136496464611085" fill="#1a5f8a"/>
<circle cx="754.28" cy="278.85" r="7.136496464611085" fill="#1a5f8a"/>
<circle cx="656.15" cy="259.76" r="7.136496464611085" fill="#1a5f8a"/>
<circle cx="677.65" cy="254.46" r="7.136496464611085" fill="#1a5f8a"/>
<circle cx="662.27" cy="242.96" r="7.136496464611085" fill="#1a5f8a"/>
<circle cx="665.38" cy="252.51" r="7.136496464611085" fill="#1a5f8a"/>
<circle cx="698.39" cy="247.66" r="7.136496464611085" fill="#1a5f8a"/>
<circle cx="717.99" cy="239.74" r="7.136496464611085" fill="#1a5f8a"/>
<circle cx="702.75" cy="229.82" r="7.136496464611085" fill="#1a5f8a"/>
<circle cx="706.4" cy="239.16" r="7.136496464611085" fill="#1a5f8a"/>
<circle cx="667.97" cy="225.91" r="7.136496464611085" fill="#1a5f8a"/>
<circle cx="687.86" cy="219.44" r="7.136496464611085" fill="#1a5f8a"/>
<circle cx="673.43" cy="209.05" r="7.136496464611085" fill="#1a5f8a"/>
<circle cx="676.43" cy="218.18" r="7.136496464611085" fill="#1a5f8a"/>
<circle cx="686.34" cy="246.5" r="7.136496464611085" fill="#1a5f8a"/>
<circle cx="691.2" cy="228.77" r="7.136496464611085" fill="#1a5f8a"/>
<circle cx="671.01" cy="235.35" r="7.136496464611085" fill="#1a5f8a"/>
<circle cx="682.86" cy="236.95" r="7.136496464611085" fill="#1a5f8a"/>
<circle cx="720.31" cy="310.17" r="7.136496464611085" fill="#1a5f8a"/>
<circle cx="721.66" cy="290.08" r="7.136496464611085" fill="#1a5f8a"/>
<circle cx="695.9" cy="298.82" r="7.136496464611085" fill="#1a5f8a"/>
<circle cx="712.59" cy="299.97" r="7.136496464611085" fill="#d4a76a"/>
<circle cx="722.52" cy="269.72" r="7.136496464611085" fill="#1a5f8a"/>
<circle cx="723.07" cy="249.61" r="7.136496464611085" fill="#1a5f8a"/>
<circle cx="702.94" cy="257.82" r="7.136496464611085" fill="#1a5f8a"/>
<circle cx="716.14" cy="259.19" r="7.136496464611085" fill="#1a5f8a"/>
<circle cx="675.6" cy="285.25" r="7.136496464611085" fill="#1a5f8a"/>
<circle cx="681.37" cy="264.92" r="7.136496464611085" fill="#1a5f8a"/>
<circle cx="658.93" cy="270.46" r="7.136496464611085" fill="#1a5f8a"/>
<circle cx="671.96" cy="273.7" r="7.136496464611085" fill="#1a5f8a"/>
<circle cx="714.76" cy="279.59" r="7.136496464611085" fill="#1a5f8a"/>
<circle cx="694.72" cy="267.14" r="7.136496464611085" fill="#1a5f8a"/>
<circle cx="690.43" cy="287.74" r="7.136496464611085" fill="#1a5f8a"/>
<circle cx="700.0" cy="278.37" r="7.136496464611085" fill="#1a5f8a"/>
<circle cx="410.79" cy="273.22" r="7.136496464611085" fill="#1a5f8a"/>
<circle cx="425.08" cy="286.64" r="7.136496464611085" fill="#2d5a27"/>
<circle cx="429.95" cy="266.42" r="7.136496464611085" fill="#8cb369"/>
<circle cx="421.96" cy="275.55" r="7.136496464611085" fill="#1a5f8a"/>
<circle cx="442.29" cy="299.17" r="7.136496464611085" fill="#1a5f8a"/>
<circle cx="462.77" cy="310.12" r="7.136496464611085" fill="#1a5f8a"/>
<circle cx="463.9" cy="290.05" r="7.136496464611085" fill="#2d5a27"/>
<circle cx="456.31" cy="299.97" r="7.136496464611085" fill="#1a5f8a"/>
<circle cx="448.17" cy="258.47" r="7.136496464611085" fill="#1a5f8a"/>
<circle cx="464.62" cy="269.8" r="7.136496464611085" fill="#1a5f8a"/>
<circle cx="465.08" cy="249.73" r="7.136496464611085" fill="#1a5f8a"/>
<circle cx="459.27" cy="259.43" r="7.136496464611085" fill="#1a5f8a"/>
<circle cx="437.67" cy="288.41" r="7.136496464611085" fill="#2d5a27"/>
<circle cx="458.12" cy="279.71" r="7.136496464611085" fill="#2d5a27"/>
<circle cx="441.26" cy="267.99" r="7.136496464611085" fill="#8cb369"/>
<circle cx="445.72" cy="278.85" r="7.136496464611085" fill="#2d5a27"/>
<circle cx="489.08" cy="319.46" r="7.136496464611085" fill="#1a5f8a"/>
<circle cx="518.32" cy="325.35" r="7.136496464611085" fill="#1a5f8a"/>
<circle cx="514.41" cy="307.19" r="7.136496464611085" fill="#1a5f8a"/>
<circle cx="507.35" cy="317.64" r="7.136496464611085" fill="#1a5f8a"/>
<circle cx="550.94" cy="327.71" r="7.136496464611085" fill="#1a5f8a"/>
<circle cx="583.47" cy="326.08" r="7.136496464611085" fill="#1a5f8a"/>
<circle cx="569.79" cy="310.36" r="7.136496464611085" fill="#1a5f8a"/>
<circle cx="568.27" cy="321.7" r="7.136496464611085" fill="#1a5f8a"/>
<circle cx="534.73" cy="292.87" r="7.136496464611085" fill="#1a5f8a"/>
<circle cx="559.37" cy="293.97" r="7.136496464611085" fill="#1a5f8a"/>
<circle cx="551.17" cy="277.45" r="7.136496464611085" fill="#d4a76a"/>
<circle cx="548.49" cy="288.29" r="7.136496464611085" fill="#1a5f8a"/>
<circle cx="537.11" cy="321.52" r="7.136496464611085" fill="#1a5f8a"/>
<circle cx="557.12" cy="305.14" r="7.136496464611085" fill="#1a5f8a"/>
<circle cx="530.3" cy="303.7" r="7.136496464611085" fill="#1a5f8a"/>
<circle cx="541.69" cy="310.38" r="7.136496464611085" fill="#1a5f8a"/>
<circle cx="482.01" cy="239.74" r="7.136496464611085" fill="#1a5f8a"/>
<circle cx="501.61" cy="247.66" r="7.136496464611085" fill="#d4a76a"/>
<circle cx="497.25" cy="229.82" r="7.136496464611085" fill="#1a5f8a"/>
<circle cx="493.6" cy="239.16" r="7.136496464611085" fill="#1a5f8a"/>
<circle cx="522.35" cy="254.46" r="7.136496464611085" fill="#8cb369"/>
<circle cx="543.85" cy="259.76" r="7.136496464611085" fill="#8cb369"/>
<circle cx="537.73" cy="242.96" r="7.136496464611085" fill="#8cb369"/>
<circle cx="534.62" cy="252.51" r="7.136496464611085" fill="#8cb369"/>
<circle cx="512.14" cy="219.44" r="7.136496464611085" fill="#1a5f8a"/>
<circle cx="532.03" cy="225.91" r="7.136496464611085" fill="#d4a76a"/>
<circle cx="526.57" cy="209.05" r="7.136496464611085" fill="#1a5f8a"/>
<circle cx="523.57" cy="218.18" r="7.136496464611085" fill="#1a5f8a"/>
<circle cx="513.66" cy="246.5" r="7.136496464611085" fill="#8cb369"/>
<circle cx="528.99" cy="235.35" r="7.136496464611085" fill="#d4a76a"/>
<circle cx="508.8" cy="228.77" r="7.136496464611085" fill="#1a5f8a"/>
<circle cx="517.14" cy="236.95" r="7.136496464611085" fill="#1a5f8a"/>
<circle cx="479.69" cy="310.17" r="7.136496464611085" fill="#1a5f8a"/>
<circle cx="504.1" cy="298.82" r="7.136496464611085" fill="#1a5f8a"/>
<circle cx="478.34" cy="290.08" r="7.136496464611085" fill="#1a5f8a"/>
<circle cx="487.41" cy="299.97" r="7.136496464611085" fill="#1a5f8a"/>
<circle cx="524.4" cy="285.25" r="7.136496464611085" fill="#1a5f8a"/>
<circle cx="541.07" cy="270.46" r="7.136496464611085" fill="#d4a76a"/>
<circle cx="518.63" cy="264.92" r="7.136496464611085" fill="#8cb369"/>
<circle cx="528.04" cy="273.7" r="7.136496464611085" fill="#1a5f8a"/>
<circle cx="477.48" cy="269.72" r="7.136496464611085" fill="#1a5f8a"/>
<circle cx="497.06" cy="257.82" r="7.136496464611085" fill="#d4a76a"/>
<circle cx="476.93" cy="249.61" r="7.136496464611085" fill="#1a5f8a"/>
<circle cx="483.86" cy="259.19" r="7.136496464611085" fill="#1a5f8a"/>
<circle cx="509.57" cy="287.74" r="7.136496464611085" fill="#1a5f8a"/>
<circle cx="505.28" cy="267.14" r="7.136496464611085" fill="#d4a76a"/>
<circle cx="485.24" cy="279.59" r="7.136496464611085" fill="#1a5f8a"/>
<circle cx="500.0" cy="278.37" r="7.136496464611085" fill="#1a5f8a"/>
<line x1="0" y1="333.33" x2="800" y2="333.33" stroke="#ffffff33" stroke-width="1"/>
<line x1="0" y1="266.67" x2="800" y2="266.67" stroke="#ffffff33" stroke-width="1"/>
<line x1="0" y1="200.0" x2="800" y2="200.0" stroke="#ffffff33" stroke-width="1"/>
<line x1="0" y1="133.33" x2="800" y2="133.33" stroke="#ffffff33" stroke-width="1"/>
<line x1="0" y1="66.67" x2="800" y2="66.67" stroke="#ffffff33" stroke-width="1"/>
<line x1="66.67" y1="0" x2="66.67" y2="400" stroke="#ffffff33" stroke-width="1"/>
<line x1="133.33" y1="0" x2="133.33" y2="400" stroke="#ffffff33" stroke-width="1"/>
<line x1="200.0" y1="0" x2="200.0" y2="400" stroke="#ffffff33" stroke-width="1"/>
<line x1="266.67" y1="0" x2="266.67" y2="400" stroke="#ffffff33" stroke-width="1"/>
<line x1="333.33" y1="0" x2="333.33" y2="400" stroke="#ffffff33" stroke-width="1"/>
<line x1="400.0" y1="0" x2="400.0" y2="400" stroke="#ffffff33" stroke-width="1"/>
<line x1="466.67" y1="0" x2="466.67" y2="400" stroke="#ffffff33" stroke-width="1"/>
<line x1="533.33" y1="0" x2="533.33" y2="400" stroke="#ffffff33" stroke-width="1"/>
<line x1="600.0" y1="0" x2="600.0" y2="400" stroke="#ffffff33" stroke-width="1"/>
<line x1="666.67" y1="0" x2="666.67" y2="400" stroke="#ffffff33" stroke-width="1"/>
<line x1="733.33" y1="0" x2="733.33" y2="400" stroke="#ffffff33" stroke-width="1"/>
</svg>