<svg xmlns="http://www.w3.org/2000/svg" viewBox="0 0 400 400" width="400" height="400">
<rect x="0" y="0" width="400" height="400" fill="#000"/>
<circle cx="200.0" cy="200.0" r="190.0" fill="#1a5f8a"/>
<circle cx="289.85" cy="45.73" r="4.037012035232257" fill="#d4a76a"/>
<circle cx="281.14" cy="52.97" r="4.037012035232257" fill="#1a5f8a"/>
<circle cx="265.78" cy="35.55" r="4.037012035232257" fill="#e8f4f8"/>
<circle cx="279.2" cy="44.19" r="4.037012035232257" fill="#e8f4f8"/>
<circle cx="270.57" cy="63.07" r="4.037012035232257" fill="#1a5f8a"/>
<circle cx="258.65" cy="75.66" r="4.037012035232257" fill="#e8f4f8"/>
<circle cx="244.65" cy="55.1" r="4.037012035232257" fill="#1a5f8a"/>
<circle cx="258.16" cy="64.12" r="4.037012035232257" fill="#d4a76a"/>
<circle cx="240.13" cy="28.55" r="4.037012035232257" fill="#1a5f8a"/>
<circle cx="229.54" cy="37.97" r="4.037012035232257" fill="#1a5f8a"/>
<circle cx="214.0" cy="25.01" r="4.037012035232257" fill="#1a5f8a"/>
<circle cx="227.99" cy="29.9" r="4.037012035232257" fill="#1a5f8a"/>
<circle cx="269.51" cy="52.77" r="4.037012035232257" fill="#1a5f8a"/>
<circle cx="243.47" cy="45.07" r="4.037012035232257" fill="#1a5f8a"/>
<circle cx="254.14" cy="35.34" r="4.037012035232257" fill="#d4a76a"/>
<circle cx="255.92" cy="43.81" r="4.037012035232257" fill="#d4a76a"/>
<circle cx="244.65" cy="91.53" r="4.037012035232257" fill="#d4a76a"/>
<circle cx="230.44" cy="108.59" r="4.037012035232257" fill="#1a5f8a"/>
<circle cx="215.1" cy="88.61" r="4.037012035232257" fill="#1a5f8a"/>
<circle cx="230.17" cy="95.86" r="4.037012035232257" fill="#1a5f8a"/>
<circle cx="215.36" cy="127.57" r="4.037012035232257" fill="#1a5f8a"/>
<circle cx="200.0" cy="147.63" r="4.037012035232257" fill="#7a9a4a"/>
<circle cx="184.64" cy="127.57" r="4.037012035232257" fill="#8cb369"/>
<circle cx="200.0" cy="134.01" r="4.037012035232257" fill="#7a9a4a"/>
<circle cx="184.9" cy="88.61" r="4.037012035232257" fill="#e8f4f8"/>
<circle cx="169.56" cy="108.59" r="4.037012035232257" fill="#d4a76a"/>
<circle cx="155.35" cy="91.53" r="4.037012035232257" fill="#8cb369"/>
<circle cx="169.83" cy="95.86" r="4.037012035232257" fill="#8cb369"/>
<circle cx="215.37" cy="114.17" r="4.037012035232257" fill="#1a5f8a"/>
<circle cx="184.63" cy="114.17" r="4.037012035232257" fill="#8cb369"/>
<circle cx="200.0" cy="94.37" r="4.037012035232257" fill="#e8f4f8"/>
<circle cx="200.0" cy="107.23" r="4.037012035232257" fill="#8cb369"/>
<circle cx="186.0" cy="25.01" r="4.037012035232257" fill="#d4a76a"/>
<circle cx="170.46" cy="37.97" r="4.037012035232257" fill="#1a5f8a"/>
<circle cx="159.87" cy="28.55" r="4.037012035232257" fill="#1a5f8a"/>
<circle cx="172.01" cy="29.9" r="4.037012035232257" fill="#1a5f8a"/>
<circle cx="155.35" cy="55.1" r="4.037012035232257" fill="#e8f4f8"/>
<circle cx="141.35" cy="75.66" r="4.037012035232257" fill="#e8f4f8"/>
<circle cx="129.43" cy="63.07" r="4.037012035232257" fill="#e8f4f8"/>
<circle cx="141.84" cy="64.12" r="4.037012035232257" fill="#e8f4f8"/>
<circle cx="134.22" cy="35.55" r="4.037012035232257" fill="#e8f4f8"/>
<circle cx="118.86" cy="52.97" r="4.037012035232257" fill="#e8f4f8"/>
<circle cx="110.15" cy="45.73" r="4.037012035232257" fill="#e8f4f8"/>
<circle cx="120.8" cy="44.19" r="4.037012035232257" fill="#e8f4f8"/>
<circle cx="156.53" cy="45.07" r="4.037012035232257" fill="#1a5f8a"/>
<circle cx="130.49" cy="52.77" r="4.037012035232257" fill="#e8f4f8"/>
<circle cx="145.86" cy="35.34" r="4.037012035232257" fill="#1a5f8a"/>
<circle cx="144.08" cy="43.81" r="4.037012035232257" fill="#1a5f8a"/>
<circle cx="244.79" cy="78.75" r="4.037012035232257" fill="#e8f4f8"/>
<circle cx="215.19" cy="75.8" r="4.037012035232257" fill="#e8f4f8"/>
<circle cx="230.75" cy="58.15" r="4.037012035232257" fill="#d4a76a"/>
<circle cx="230.37" cy="70.35" r="4.037012035232257" fill="#e8f4f8"/>
<circle cx="184.81" cy="75.8" r="4.037012035232257" fill="#e8f4f8"/>
<circle cx="155.21" cy="78.75" r="4.037012035232257" fill="#e8f4f8"/>
<circle cx="169.25" cy="58.15" r="4.037012035232257" fill="#e8f4f8"/>
<circle cx="169.63" cy="70.35" r="4.037012035232257" fill="#e8f4f8"/>
<circle cx="215.56" cy="40.93" r="4.037012035232257" fill="#1a5f8a"/>
<circle cx="184.44" cy="40.93" r="4.037012035232257" fill="#1a5f8a"/>
<circle cx="200.0" cy="27.96" r="4.037012035232257" fill="#1a5f8a"/>
<circle cx="200.0" cy="35.9" r="4.037012035232257" fill="#1a5f8a"/>
<circle cx="200.0" cy="68.82" r="4.037012035232257" fill="#e8f4f8"/>
<circle cx="184.43" cy="51.16" r="4.037012035232257" fill="#e8f4f8"/>
<circle cx="215.57" cy="51.16" r="4.037012035232257" fill="#d4a76a"/>
<circle cx="200.0" cy="56.4" r="4.037012035232257" fill="#e8f4f8"/>
<circle cx="289.85" cy="40.02" r="4.037012035232257" fill="#1a5f8a"/>
<circle cx="265.78" cy="29.82" r="4.037012035232257" fill="#e8f4f8"/>
<circle cx="281.14" cy="30.24" r="4.037012035232257" fill="#1a5f8a"/>
<circle cx="279.2" cy="32.76" r="4.037012035232257" fill="#1a5f8a"/>
<circle cx="240.13" cy="22.78" r="4.037012035232257" fill="#e8f4f8"/>
<circle cx="214.0" cy="19.23" r="4.037012035232257" fill="#e8f4f8"/>
<circle cx="229.54" cy="14.99" r="4.037012035232257" fill="#e8f4f8"/>
<circle cx="227.99" cy="18.34" r="4.037012035232257" fill="#e8f4f8"/>
<circle cx="270.57" cy="23.61" r="4.037012035232257" fill="#1a5f8a"/>
<circle cx="244.65" cy="15.4" r="4.037012035232257" fill="#1a5f8a"/>
<circle cx="254.14" cy="23.84" r="4.037012035232257" fill="#e8f4f8"/>
<circle cx="243.47" cy="16.38" r="4.037012035232257" fill="#e8f4f8"/>
<circle cx="269.51" cy="24.26" r="4.037012035232257" fill="#1a5f8a"/>
<circle cx="255.92" cy="20.82" r="4.037012035232257" fill="#e8f4f8"/>
<circle cx="186.0" cy="19.23" r="4.037012035232257" fill="#e8f4f8"/>
<circle cx="159.87" cy="22.78" r="4.037012035232257" fill="#1a5f8a"/>
<circle cx="170.46" cy="14.99" r="4.037012035232257" fill="#d4a76a"/>
<circle cx="172.01" cy="18.34" r="4.037012035232257" fill="#e8f4f8"/>
<circle cx="134.22" cy="29.82" r="4.037012035232257" fill="#1a5f8a"/>
<circle cx="110.15" cy="40.02" r="4.037012035232257" fill="#d4a76a"/>
<circle cx="118.86" cy="30.24" r="4.037012035232257" fill="#1a5f8a"/>
<circle cx="120.8" cy="32.76" r="4.037012035232257" fill="#d4a76a"/>
<circle cx="155.35" cy="15.4" r="4.037012035232257" fill="#1a5f8a"/>
<circle cx="129.43" cy="23.61" r="4.037012035232257" fill="#1a5f8a"/>
<circle cx="145.86" cy="23.84" r="4.037012035232257" fill="#1a5f8a"/>
<circle cx="130.49" cy="24.26" r="4.037012035232257" fill="#1a5f8a"/>
<circle cx="156.53" cy="16.38" r="4.037012035232257" fill="#1a5f8a"/>
<circle cx="144.08" cy="20.82" r="4.037012035232257" fill="#1a5f8a"/>
<circle cx="200.0" cy="16.38" r="4.037012035232257" fill="#e8f4f8"/>
<circle cx="184.44" cy="12.11" r="4.037012035232257" fill="#d4a76a"/>
<circle cx="215.56" cy="12.11" r="4.037012035232257" fill="#e8f4f8"/>
<circle cx="200.0" cy="12.73" r="4.037012035232257" fill="#e8f4f8"/>
<circle cx="184.43" cy="10.73" r="4.037012035232257" fill="#e8f4f8"/>
<circle cx="215.57" cy="10.73" r="4.037012035232257" fill="#e8f4f8"/>
<circle cx="303.34" cy="46.1" r="4.037012035232257" fill="#1a5f8a"/>
<circle cx="294.68" cy="36.34" r="4.037012035232257" fill="#1a5f8a"/>
<circle cx="319.54" cy="54.02" r="4.037012035232257" fill="#1a5f8a"/>
<circle cx="306.24" cy="44.93" r="4.037012035232257" fill="#1a5f8a"/>
<circle cx="333.47" cy="64.79" r="4.037012035232257" fill="#1a5f8a"/>
<circle cx="296.71" cy="36.5" r="4.037012035232257" fill="#1a5f8a"/>
<circle cx="321.58" cy="54.2" r="4.037012035232257" fill="#1a5f8a"/>
<circle cx="311.68" cy="55.56" r="4.037012035232257" fill="#1a5f8a"/>
<circle cx="327.91" cy="63.51" r="4.037012035232257" fill="#1a5f8a"/>
<circle cx="327.91" cy="74.02" r="4.037012035232257" fill="#1a5f8a"/>
<circle cx="322.94" cy="63.88" r="4.037012035232257" fill="#1a5f8a"/>
<circle cx="341.91" cy="74.37" r="4.037012035232257" fill="#1a5f8a"/>
<circle cx="357.06" cy="95.37" r="4.037012035232257" fill="#1a5f8a"/>
<circle cx="351.22" cy="85.37" r="4.037012035232257" fill="#1a5f8a"/>
<circle cx="341.91" cy="95.19" r="4.037012035232257" fill="#1a5f8a"/>
<circle cx="357.06" cy="105.7" r="4.037012035232257" fill="#1a5f8a"/>
<circle cx="353.05" cy="118.15" r="4.037012035232257" fill="#1a5f8a"/>
<circle cx="351.22" cy="106.01" r="4.037012035232257" fill="#1a5f8a"/>
<circle cx="338.39" cy="73.26" r="4.037012035232257" fill="#1a5f8a"/>
<circle cx="353.27" cy="94.49" r="4.037012035232257" fill="#1a5f8a"/>
<circle cx="338.39" cy="83.78" r="4.037012035232257" fill="#1a5f8a"/>
<circle cx="343.89" cy="83.4" r="4.037012035232257" fill="#1a5f8a"/>
<circle cx="361.7" cy="144.22" r="4.037012035232257" fill="#1a5f8a"/>
<circle cx="375.32" cy="160.73" r="4.037012035232257" fill="#1a5f8a"/>
<circle cx="366.71" cy="169.93" r="4.037012035232257" fill="#1a5f8a"/>
<circle cx="368.52" cy="158.14" r="4.037012035232257" fill="#1a5f8a"/>
<circle cx="384.66" cy="178.52" r="4.037012035232257" fill="#1a5f8a"/>
<circle cx="389.29" cy="196.84" r="4.037012035232257" fill="#d4a76a"/>
<circle cx="385.52" cy="205.79" r="4.037012035232257" fill="#1a5f8a"/>
<circle cx="387.17" cy="193.69" r="4.037012035232257" fill="#1a5f8a"/>
<circle cx="368.56" cy="196.53" r="4.037012035232257" fill="#1a5f8a"/>
<circle cx="378.05" cy="214.63" r="4.037012035232257" fill="#1a5f8a"/>
<circle cx="367.21" cy="222.89" r="4.037012035232257" fill="#1a5f8a"/>
<circle cx="371.89" cy="211.39" r="4.037012035232257" fill="#1a5f8a"/>
<circle cx="380.14" cy="175.46" r="4.037012035232257" fill="#1a5f8a"/>
<circle cx="381.35" cy="202.72" r="4.037012035232257" fill="#1a5f8a"/>
<circle cx="371.85" cy="184.61" r="4.037012035232257" fill="#1a5f8a"/>
<circle cx="378.45" cy="187.55" r="4.037012035232257" fill="#1a5f8a"/>
<circle cx="365.61" cy="108.47" r="4.037012035232257" fill="#1a5f8a"/>
<circle cx="389.24" cy="184.09" r="4.037012035232257" fill="#1a5f8a"/>
<circle cx="384.62" cy="165.74" r="4.037012035232257" fill="#1a5f8a"/>
<circle cx="386.96" cy="168.17" r="4.037012035232257" fill="#d4a76a"/>
<circle cx="365.61" cy="118.85" r="4.037012035232257" fill="#1a5f8a"/>
<circle cx="375.23" cy="147.84" r="4.037012035232257" fill="#1a5f8a"/>
<circle cx="361.57" cy="131.32" r="4.037012035232257" fill="#1a5f8a"/>
<circle cx="368.19" cy="132.38" r="4.037012035232257" fill="#1a5f8a"/>
<circle cx="379.9" cy="139.14" r="4.037012035232257" fill="#1a5f8a"/>
<circle cx="379.9" cy="149.8" r="4.037012035232257" fill="#1a5f8a"/>
<circle cx="370.28" cy="120.79" r="4.037012035232257" fill="#1a5f8a"/>
<circle cx="377.49" cy="136.29" r="4.037012035232257" fill="#1a5f8a"/>
<circle cx="303.34" cy="55.33" r="4.037012035232257" fill="#1a5f8a"/>
<circle cx="319.54" cy="73.79" r="4.037012035232257" fill="#1a5f8a"/>
<circle cx="294.68" cy="62.6" r="4.037012035232257" fill="#1a5f8a"/>
<circle cx="306.24" cy="63.42" r="4.037012035232257" fill="#1a5f8a"/>
<circle cx="333.47" cy="94.96" r="4.037012035232257" fill="#1a5f8a"/>
<circle cx="344.59" cy="117.92" r="4.037012035232257" fill="#1a5f8a"/>
<circle cx="323.46" cy="104.78" r="4.037012035232257" fill="#1a5f8a"/>
<circle cx="334.32" cy="105.55" r="4.037012035232257" fill="#1a5f8a"/>
<circle cx="284.22" cy="72.79" r="4.037012035232257" fill="#e8f4f8"/>
<circle cx="299.02" cy="93.79" r="4.037012035232257" fill="#d4a76a"/>
<circle cx="272.34" cy="85.4" r="4.037012035232257" fill="#e8f4f8"/>
<circle cx="285.5" cy="83.57" r="4.037012035232257" fill="#8cb369"/>
<circle cx="321.58" cy="83.32" r="4.037012035232257" fill="#1a5f8a"/>
<circle cx="311.33" cy="93.34" r="4.037012035232257" fill="#1a5f8a"/>
<circle cx="296.71" cy="72.12" r="4.037012035232257" fill="#1a5f8a"/>
<circle cx="310.29" cy="82.48" r="4.037012035232257" fill="#1a5f8a"/>
<circle cx="353.24" cy="143.98" r="4.037012035232257" fill="#1a5f8a"/>
<circle cx="358.27" cy="169.69" r="4.037012035232257" fill="#1a5f8a"/>
<circle cx="341.72" cy="159.81" r="4.037012035232257" fill="#1a5f8a"/>
<circle cx="351.62" cy="157.67" r="4.037012035232257" fill="#1a5f8a"/>
<circle cx="360.19" cy="196.3" r="4.037012035232257" fill="#1a5f8a"/>
<circle cx="358.87" cy="222.66" r="4.037012035232257" fill="#1a5f8a"/>
<circle cx="344.83" cy="213.72" r="4.037012035232257" fill="#1a5f8a"/>
<circle cx="355.19" cy="210.93" r="4.037012035232257" fill="#1a5f8a"/>
<circle cx="326.62" cy="176.94" r="4.037012035232257" fill="#1a5f8a"/>
<circle cx="327.83" cy="204.21" r="4.037012035232257" fill="#1a5f8a"/>
<circle cx="308.58" cy="194.63" r="4.037012035232257" fill="#1a5f8a"/>
<circle cx="321.45" cy="191.89" r="4.037012035232257" fill="#1a5f8a"/>
<circle cx="355.04" cy="184.15" r="4.037012035232257" fill="#1a5f8a"/>
<circle cx="339.67" cy="201.58" r="4.037012035232257" fill="#1a5f8a"/>
<circle cx="338.2" cy="174.31" r="4.037012035232257" fill="#1a5f8a"/>
<circle cx="344.85" cy="186.63" r="4.037012035232257" fill="#1a5f8a"/>
<circle cx="258.34" cy="101.27" r="4.037012035232257" fill="#1a5f8a"/>
<circle cx="269.48" cy="127.29" r="4.037012035232257" fill="#1a5f8a"/>
<circle cx="244.09" cy="118.3" r="4.037012035232257" fill="#1a5f8a"/>
<circle cx="257.52" cy="115.32" r="4.037012035232257" fill="#1a5f8a"/>
<circle cx="278.81" cy="155.42" r="4.037012035232257" fill="#1a5f8a"/>
<circle cx="285.94" cy="184.44" r="4.037012035232257" fill="#1a5f8a"/>
<circle cx="262.9" cy="174.99" r="4.037012035232257" fill="#1a5f8a"/>
<circle cx="276.16" cy="171.51" r="4.037012035232257" fill="#1a5f8a"/>
<circle cx="228.9" cy="137.2" r="4.037012035232257" fill="#1a5f8a"/>
<circle cx="238.4" cy="165.82" r="4.037012035232257" fill="#1a5f8a"/>
<circle cx="213.49" cy="157.23" r="4.037012035232257" fill="#8cb369"/>
<circle cx="227.03" cy="153.25" r="4.037012035232257" fill="#8cb369"/>
<circle cx="267.86" cy="142.65" r="4.037012035232257" fill="#1a5f8a"/>
<circle cx="252.07" cy="162.15" r="4.037012035232257" fill="#1a5f8a"/>
<circle cx="242.57" cy="133.52" r="4.037012035232257" fill="#1a5f8a"/>
<circle cx="254.37" cy="145.9" r="4.037012035232257" fill="#1a5f8a"/>
<circle cx="344.64" cy="130.85" r="4.037012035232257" fill="#1a5f8a"/>
<circle cx="333.1" cy="146.69" r="4.037012035232257" fill="#1a5f8a"/>
<circle cx="323.48" cy="117.7" r="4.037012035232257" fill="#1a5f8a"/>
<circle cx="334.31" cy="131.46" r="4.037012035232257" fill="#1a5f8a"/>
<circle cx="317.92" cy="163.91" r="4.037012035232257" fill="#1a5f8a"/>
<circle cx="299.85" cy="181.65" r="4.037012035232257" fill="#1a5f8a"/>
<circle cx="292.73" cy="152.58" r="4.037012035232257" fill="#1a5f8a"/>
<circle cx="303.95" cy="165.9" r="4.037012035232257" fill="#1a5f8a"/>
<circle cx="298.91" cy="106.64" r="4.037012035232257" fill="#1a5f8a"/>
<circle cx="283.35" cy="124.29" r="4.037012035232257" fill="#1a5f8a"/>
<circle cx="272.17" cy="98.24" r="4.037012035232257" fill="#1a5f8a"/>
<circle cx="285.18" cy="109.34" r="4.037012035232257" fill="#1a5f8a"/>
<circle cx="320.81" cy="148.18" r="4.037012035232257" fill="#1a5f8a"/>
<circle cx="295.61" cy="136.84" r="4.037012035232257" fill="#1a5f8a"/>
<circle cx="311.19" cy="119.18" r="4.037012035232257" fill="#1a5f8a"/>
<circle cx="309.7" cy="134.44" r="4.037012035232257" fill="#1a5f8a"/>
<circle cx="96.66" cy="55.33" r="4.037012035232257" fill="#1a5f8a"/>
<circle cx="105.32" cy="62.6" r="4.037012035232257" fill="#e8f4f8"/>
<circle cx="80.46" cy="73.79" r="4.037012035232257" fill="#8cb369"/>
<circle cx="93.76" cy="63.42" r="4.037012035232257" fill="#d4a76a"/>
<circle cx="115.78" cy="72.79" r="4.037012035232257" fill="#e8f4f8"/>
<circle cx="127.66" cy="85.4" r="4.037012035232257" fill="#e8f4f8"/>
<circle cx="100.98" cy="93.79" r="4.037012035232257" fill="#7a9a4a"/>
<circle cx="114.5" cy="83.57" r="4.037012035232257" fill="#e8f4f8"/>
<circle cx="66.53" cy="94.96" r="4.037012035232257" fill="#8cb369"/>
<circle cx="76.54" cy="104.78" r="4.037012035232257" fill="#7a9a4a"/>
<circle cx="55.41" cy="117.92" r="4.037012035232257" fill="#7a9a4a"/>
<circle cx="65.68" cy="105.55" r="4.037012035232257" fill="#7a9a4a"/>
<circle cx="103.29" cy="72.12" r="4.037012035232257" fill="#e8f4f8"/>
<circle cx="88.67" cy="93.34" r="4.037012035232257" fill="#e8f4f8"/>
<circle cx="78.42" cy="83.32" r="4.037012035232257" fill="#7a9a4a"/>
<circle cx="89.71" cy="82.48" r="4.037012035232257" fill="#e8f4f8"/>
<circle cx="141.66" cy="101.27" r="4.037012035232257" fill="#7a9a4a"/>
<circle cx="155.91" cy="118.3" r="4.037012035232257" fill="#1a5f8a"/>
<circle cx="130.52" cy="127.29" r="4.037012035232257" fill="#d4a76a"/>
<circle cx="142.48" cy="115.32" r="4.037012035232257" fill="#7a9a4a"/>
<circle cx="171.1" cy="137.2" r="4.037012035232257" fill="#1a5f8a"/>
<circle cx="186.51" cy="157.23" r="4.037012035232257" fill="#7a9a4a"/>
<circle cx="161.6" cy="165.82" r="4.037012035232257" fill="#d4a76a"/>
<circle cx="172.97" cy="153.25" r="4.037012035232257" fill="#7a9a4a"/>
<circle cx="121.19" cy="155.42" r="4.037012035232257" fill="#1a5f8a"/>
<circle cx="137.1" cy="174.99" r="4.037012035232257" fill="#8cb369"/>
<circle cx="114.06" cy="184.44" r="4.037012035232257" fill="#7a9a4a"/>
<circle cx="123.84" cy="171.51" r="4.037012035232257" fill="#8cb369"/>
<circle cx="157.43" cy="133.52" r="4.037012035232257" fill="#1a5f8a"/>
<circle cx="147.93" cy="162.15" r="4.037012035232257" fill="#1a5f8a"/>
<circle cx="132.14" cy="142.65" r="4.037012035232257" fill="#1a5f8a"/>
<circle cx="145.63" cy="145.9" r="4.037012035232257" fill="#1a5f8a"/>
<circle cx="46.76" cy="143.98" r="4.037012035232257" fill="#7a9a4a"/>
<circle cx="58.28" cy="159.81" r="4.037012035232257" fill="#7a9a4a"/>
<circle cx="41.73" cy="169.69" r="4.037012035232257" fill="#7a9a4a"/>
<circle cx="48.38" cy="157.67" r="4.037012035232257" fill="#7a9a4a"/>
<circle cx="73.38" cy="176.94" r="4.037012035232257" fill="#7a9a4a"/>
<circle cx="91.42" cy="194.63" r="4.037012035232257" fill="#7a9a4a"/>
<circle cx="72.17" cy="204.21" r="4.037012035232257" fill="#c9b037"/>
<circle cx="78.55" cy="191.89" r="4.037012035232257" fill="#6b4423"/>
<circle cx="39.81" cy="196.3" r="4.037012035232257" fill="#2d5a27"/>
<circle cx="55.17" cy="213.72" r="4.037012035232257" fill="#8cb369"/>
<circle cx="41.13" cy="222.66" r="4.037012035232257" fill="#2d5a27"/>
<circle cx="44.81" cy="210.93" r="4.037012035232257" fill="#8cb369"/>
<circle cx="61.8" cy="174.31" r="4.037012035232257" fill="#7a9a4a"/>
<circle cx="60.33" cy="201.58" r="4.037012035232257" fill="#6b4423"/>
<circle cx="44.96" cy="184.15" r="4.037012035232257" fill="#7a9a4a"/>
<circle cx="55.15" cy="186.63" r="4.037012035232257" fill="#7a9a4a"/>
<circle cx="127.83" cy="98.24" r="4.037012035232257" fill="#7a9a4a"/>
<circle cx="116.65" cy="124.29" r="4.037012035232257" fill="#7a9a4a"/>
<circle cx="101.09" cy="106.64" r="4.037012035232257" fill="#7a9a4a"/>
<circle cx="114.82" cy="109.34" r="4.037012035232257" fill="#7a9a4a"/>
<circle cx="107.27" cy="152.58" r="4.037012035232257" fill="#d4a76a"/>
<circle cx="100.15" cy="181.65" r="4.037012035232257" fill="#7a9a4a"/>
<circle cx="82.08" cy="163.91" r="4.037012035232257" fill="#7a9a4a"/>
<circle cx="96.05" cy="165.9" r="4.037012035232257" fill="#7a9a4a"/>
<circle cx="76.52" cy="117.7" r="4.037012035232257" fill="#7a9a4a"/>
<circle cx="66.9" cy="146.69" r="4.037012035232257" fill="#7a9a4a"/>
<circle cx="55.36" cy="130.85" r="4.037012035232257" fill="#7a9a4a"/>
<circle cx="65.69" cy="131.46" r="4.037012035232257" fill="#7a9a4a"/>
<circle cx="104.39" cy="136.84" r="4.037012035232257" fill="#d4a76a"/>
<circle cx="79.19" cy="148.18" r="4.037012035232257" fill="#7a9a4a"/>
<circle cx="88.81" cy="119.18" r="4.037012035232257" fill="#7a9a4a"/>
<circle cx="90.3" cy="134.44" r="4.037012035232257" fill="#7a9a4a"/>
<circle cx="105.32" cy="36.34" r="4.037012035232257" fill="#1a5f8a"/>
<circle cx="96.66" cy="46.1" r="4.037012035232257" fill="#1a5f8a"/>
<circle cx="80.46" cy="54.02" r="4.037012035232257" fill="#1a5f8a"/>
<circle cx="93.76" cy="44.93" r="4.037012035232257" fill="#1a5f8a"/>
<circle cx="66.53" cy="64.79" r="4.037012035232257" fill="#1a5f8a"/>
<circle cx="103.29" cy="36.5" r="4.037012035232257" fill="#1a5f8a"/>
<circle cx="78.42" cy="54.2" r="4.037012035232257" fill="#1a5f8a"/>
<circle cx="367.21" cy="238.57" r="4.037012035232257" fill="#d4a76a"/>
<circle cx="378.05" cy="230.36" r="4.037012035232257" fill="#1a5f8a"/>
<circle cx="368.56" cy="258.97" r="4.037012035232257" fill="#2d5a27"/>
<circle cx="371.89" cy="242.79" r="4.037012035232257" fill="#1a5f8a"/>
<circle cx="385.52" cy="221.66" r="4.037012035232257" fill="#1a5f8a"/>
<circle cx="389.29" cy="212.74" r="4.037012035232257" fill="#1a5f8a"/>
<circle cx="384.66" cy="241.69" r="4.037012035232257" fill="#1a5f8a"/>
<circle cx="387.17" cy="225.45" r="4.037012035232257" fill="#1a5f8a"/>
<circle cx="366.71" cy="278.34" r="4.037012035232257" fill="#7a9a4a"/>
<circle cx="375.32" cy="269.81" r="4.037012035232257" fill="#1a5f8a"/>
<circle cx="361.7" cy="295.9" r="4.037012035232257" fill="#7a9a4a"/>
<circle cx="368.52" cy="281.65" r="4.037012035232257" fill="#8cb369"/>
<circle cx="381.35" cy="234.31" r="4.037012035232257" fill="#1a5f8a"/>
<circle cx="380.14" cy="254.28" r="4.037012035232257" fill="#1a5f8a"/>
<circle cx="371.85" cy="262.94" r="4.037012035232257" fill="#2d5a27"/>
<circle cx="378.45" cy="250.7" r="4.037012035232257" fill="#1a5f8a"/>
<circle cx="353.05" cy="312.4" r="4.037012035232257" fill="#8cb369"/>
<circle cx="384.62" cy="244.91" r="4.037012035232257" fill="#1a5f8a"/>
<circle cx="375.23" cy="273.19" r="4.037012035232257" fill="#1a5f8a"/>
<circle cx="361.57" cy="299.32" r="4.037012035232257" fill="#7a9a4a"/>
<circle cx="368.19" cy="288.39" r="4.037012035232257" fill="#8cb369"/>
<circle cx="208.34" cy="172.76" r="4.037012035232257" fill="#7a9a4a"/>
<circle cx="233.23" cy="181.4" r="4.037012035232257" fill="#8cb369"/>
<circle cx="208.37" cy="199.09" r="4.037012035232257" fill="#7a9a4a"/>
<circle cx="216.71" cy="184.37" r="4.037012035232257" fill="#7a9a4a"/>
<circle cx="257.69" cy="190.71" r="4.037012035232257" fill="#1a5f8a"/>
<circle cx="280.71" cy="200.19" r="4.037012035232257" fill="#1a5f8a"/>
<circle cx="258.04" cy="218.01" r="4.037012035232257" fill="#2d5a27"/>
<circle cx="265.72" cy="202.98" r="4.037012035232257" fill="#1a5f8a"/>
<circle cx="208.44" cy="225.74" r="4.037012035232257" fill="#c9b037"/>
<circle cx="233.61" cy="235.39" r="4.037012035232257" fill="#2d5a27"/>
<circle cx="208.46" cy="251.59" r="4.037012035232257" fill="#2d5a27"/>
<circle cx="216.9" cy="237.71" r="4.037012035232257" fill="#2d5a27"/>
<circle cx="241.68" cy="193.46" r="4.037012035232257" fill="#1a5f8a"/>
<circle cx="241.94" cy="220.76" r="4.037012035232257" fill="#2d5a27"/>
<circle cx="216.81" cy="211.15" r="4.037012035232257" fill="#7a9a4a"/>
<circle cx="233.6" cy="208.49" r="4.037012035232257" fill="#7a9a4a"/>
<circle cx="303.36" cy="210.38" r="4.037012035232257" fill="#1a5f8a"/>
<circle cx="322.62" cy="219.94" r="4.037012035232257" fill="#1a5f8a"/>
<circle cx="305.84" cy="239.53" r="4.037012035232257" fill="#1a5f8a"/>
<circle cx="311.0" cy="223.37" r="4.037012035232257" fill="#1a5f8a"/>
<circle cx="339.66" cy="229.31" r="4.037012035232257" fill="#1a5f8a"/>
<circle cx="353.71" cy="238.2" r="4.037012035232257" fill="#1a5f8a"/>
<circle cx="339.66" cy="258.18" r="4.037012035232257" fill="#1a5f8a"/>
<circle cx="344.86" cy="242.05" r="4.037012035232257" fill="#1a5f8a"/>
<circle cx="305.84" cy="267.91" r="4.037012035232257" fill="#d4a76a"/>
<circle cx="322.62" cy="277.14" r="4.037012035232257" fill="#1a5f8a"/>
<circle cx="303.36" cy="294.31" r="4.037012035232257" fill="#1a5f8a"/>
<circle cx="311.0" cy="280.07" r="4.037012035232257" fill="#1a5f8a"/>
<circle cx="329.28" cy="232.89" r="4.037012035232257" fill="#1a5f8a"/>
<circle cx="329.28" cy="261.77" r="4.037012035232257" fill="#1a5f8a"/>
<circle cx="312.28" cy="252.42" r="4.037012035232257" fill="#1a5f8a"/>
<circle cx="324.08" cy="249.21" r="4.037012035232257" fill="#1a5f8a"/>
<circle cx="208.46" cy="277.89" r="4.037012035232257" fill="#1a5f8a"/>
<circle cx="233.61" cy="290.92" r="4.037012035232257" fill="#2d5a27"/>
<circle cx="208.44" cy="301.16" r="4.037012035232257" fill="#1a5f8a"/>
<circle cx="216.9" cy="290.31" r="4.037012035232257" fill="#1a5f8a"/>
<circle cx="258.04" cy="301.92" r="4.037012035232257" fill="#2d5a27"/>
<circle cx="280.71" cy="310.42" r="4.037012035232257" fill="#d4a76a"/>
<circle cx="257.69" cy="323.33" r="4.037012035232257" fill="#1a5f8a"/>
<circle cx="265.72" cy="312.29" r="4.037012035232257" fill="#d4a76a"/>
<circle cx="208.37" cy="322.71" r="4.037012035232257" fill="#1a5f8a"/>
<circle cx="233.23" cy="333.9" r="4.037012035232257" fill="#1a5f8a"/>
<circle cx="208.34" cy="341.62" r="4.037012035232257" fill="#1a5f8a"/>
<circle cx="216.71" cy="333.22" r="4.037012035232257" fill="#1a5f8a"/>
<circle cx="241.94" cy="302.46" r="4.037012035232257" fill="#d4a76a"/>
<circle cx="241.68" cy="324.09" r="4.037012035232257" fill="#1a5f8a"/>
<circle cx="216.81" cy="312.9" r="4.037012035232257" fill="#1a5f8a"/>
<circle cx="233.6" cy="313.58" r="4.037012035232257" fill="#d4a76a"/>
<circle cx="289.39" cy="213.17" r="4.037012035232257" fill="#1a5f8a"/>
<circle cx="291.88" cy="242.37" r="4.037012035232257" fill="#2d5a27"/>
<circle cx="266.7" cy="231.04" r="4.037012035232257" fill="#2d5a27"/>
<circle cx="283.01" cy="228.99" r="4.037012035232257" fill="#2d5a27"/>
<circle cx="291.88" cy="270.91" r="4.037012035232257" fill="#d4a76a"/>
<circle cx="289.39" cy="297.34" r="4.037012035232257" fill="#d4a76a"/>
<circle cx="266.7" cy="288.83" r="4.037012035232257" fill="#2d5a27"/>
<circle cx="283.01" cy="286.06" r="4.037012035232257" fill="#8cb369"/>
<circle cx="242.13" cy="248.52" r="4.037012035232257" fill="#2d5a27"/>
<circle cx="242.13" cy="277.77" r="4.037012035232257" fill="#1a5f8a"/>
<circle cx="216.93" cy="264.73" r="4.037012035232257" fill="#2d5a27"/>
<circle cx="233.87" cy="263.94" r="4.037012035232257" fill="#1a5f8a"/>
<circle cx="284.29" cy="258.24" r="4.037012035232257" fill="#2d5a27"/>
<circle cx="259.09" cy="276.16" r="4.037012035232257" fill="#2d5a27"/>
<circle cx="259.09" cy="246.9" r="4.037012035232257" fill="#8cb369"/>
<circle cx="267.8" cy="260.71" r="4.037012035232257" fill="#8cb369"/>
<circle cx="46.95" cy="312.4" r="4.037012035232257" fill="#1a5f8a"/>
<circle cx="38.3" cy="295.9" r="4.037012035232257" fill="#1a5f8a"/>
<circle cx="33.29" cy="278.34" r="4.037012035232257" fill="#1a5f8a"/>
<circle cx="24.68" cy="269.81" r="4.037012035232257" fill="#1a5f8a"/>
<circle cx="31.48" cy="281.65" r="4.037012035232257" fill="#1a5f8a"/>
<circle cx="31.44" cy="258.97" r="4.037012035232257" fill="#1a5f8a"/>
<circle cx="32.79" cy="238.57" r="4.037012035232257" fill="#1a5f8a"/>
<circle cx="21.95" cy="230.36" r="4.037012035232257" fill="#1a5f8a"/>
<circle cx="28.11" cy="242.79" r="4.037012035232257" fill="#1a5f8a"/>
<circle cx="15.34" cy="241.69" r="4.037012035232257" fill="#d4a76a"/>
<circle cx="14.48" cy="221.66" r="4.037012035232257" fill="#2d5a27"/>
<circle cx="10.71" cy="212.74" r="4.037012035232257" fill="#2d5a27"/>
<circle cx="12.83" cy="225.45" r="4.037012035232257" fill="#2d5a27"/>
<circle cx="28.15" cy="262.94" r="4.037012035232257" fill="#1a5f8a"/>
<circle cx="18.65" cy="234.31" r="4.037012035232257" fill="#2d5a27"/>
<circle cx="19.86" cy="254.28" r="4.037012035232257" fill="#1a5f8a"/>
<circle cx="21.55" cy="250.7" r="4.037012035232257" fill="#1a5f8a"/>
<circle cx="38.43" cy="299.32" r="4.037012035232257" fill="#1a5f8a"/>
<circle cx="24.77" cy="273.19" r="4.037012035232257" fill="#1a5f8a"/>
<circle cx="31.81" cy="288.39" r="4.037012035232257" fill="#d4a76a"/>
<circle cx="15.38" cy="244.91" r="4.037012035232257" fill="#d4a76a"/>
<circle cx="141.35" cy="379.55" r="4.037012035232257" fill="#1a5f8a"/>
<circle cx="141.84" cy="380.83" r="4.037012035232257" fill="#1a5f8a"/>
<circle cx="258.65" cy="379.55" r="4.037012035232257" fill="#e8f4f8"/>
<circle cx="258.16" cy="380.83" r="4.037012035232257" fill="#e8f4f8"/>
<circle cx="155.35" cy="379.17" r="4.037012035232257" fill="#1a5f8a"/>
<circle cx="184.9" cy="383.79" r="4.037012035232257" fill="#1a5f8a"/>
<circle cx="169.56" cy="375.29" r="4.037012035232257" fill="#1a5f8a"/>
<circle cx="169.83" cy="380.07" r="4.037012035232257" fill="#1a5f8a"/>
<circle cx="215.1" cy="383.79" r="4.037012035232257" fill="#1a5f8a"/>
<circle cx="244.65" cy="379.17" r="4.037012035232257" fill="#d4a76a"/>
<circle cx="230.44" cy="375.29" r="4.037012035232257" fill="#8cb369"/>
<circle cx="230.17" cy="380.07" r="4.037012035232257" fill="#8cb369"/>
<circle cx="184.64" cy="367.96" r="4.037012035232257" fill="#1a5f8a"/>
<circle cx="215.36" cy="367.96" r="4.037012035232257" fill="#1a5f8a"/>
<circle cx="200.0" cy="357.52" r="4.037012035232257" fill="#1a5f8a"/>
<circle cx="200.0" cy="365.08" r="4.037012035232257" fill="#1a5f8a"/>
<circle cx="200.0" cy="382.43" r="4.037012035232257" fill="#1a5f8a"/>
<circle cx="215.37" cy="374.26" r="4.037012035232257" fill="#7a9a4a"/>
<circle cx="184.63" cy="374.26" r="4.037012035232257" fill="#1a5f8a"/>
<circle cx="200.0" cy="377.65" r="4.037012035232257" fill="#1a5f8a"/>
<circle cx="230.75" cy="387.48" r="4.037012035232257" fill="#d4a76a"/>
<circle cx="244.79" cy="382.4" r="4.037012035232257" fill="#d4a76a"/>
<circle cx="215.19" cy="387.05" r="4.037012035232257" fill="#1a5f8a"/>
<circle cx="230.37" cy="386.44" r="4.037012035232257" fill="#1a5f8a"/>
<circle cx="169.25" cy="387.48" r="4.037012035232257" fill="#1a5f8a"/>
<circle cx="184.81" cy="387.05" r="4.037012035232257" fill="#1a5f8a"/>
<circle cx="155.21" cy="382.4" r="4.037012035232257" fill="#1a5f8a"/>
<circle cx="169.63" cy="386.44" r="4.037012035232257" fill="#1a5f8a"/>
<circle cx="200.0" cy="388.84" r="4.037012035232257" fill="#1a5f8a"/>
<circle cx="200.0" cy="389.98" r="4.037012035232257" fill="#1a5f8a"/>
<circle cx="115.78" cy="370.24" r="4.037012035232257" fill="#1a5f8a"/>
<circle cx="127.66" cy="373.39" r="4.037012035232257" fill="#1a5f8a"/>
<circle cx="100.98" cy="360.12" r="4.037012035232257" fill="#7a9a4a"/>
<circle cx="114.5" cy="368.52" r="4.037012035232257" fill="#1a5f8a"/>
<circle cx="76.54" cy="342.74" r="4.037012035232257" fill="#8cb369"/>
<circle cx="55.41" cy="321.99" r="4.037012035232257" fill="#1a5f8a"/>
<circle cx="65.68" cy="333.8" r="4.037012035232257" fill="#1a5f8a"/>
<circle cx="88.67" cy="353.08" r="4.037012035232257" fill="#7a9a4a"/>
<circle cx="89.71" cy="354.71" r="4.037012035232257" fill="#8cb369"/>
<circle cx="141.66" cy="373.01" r="4.037012035232257" fill="#1a5f8a"/>
<circle cx="155.91" cy="369.14" r="4.037012035232257" fill="#1a5f8a"/>
<circle cx="130.52" cy="359.32" r="4.037012035232257" fill="#8cb369"/>
<circle cx="142.48" cy="367.76" r="4.037012035232257" fill="#1a5f8a"/>
<circle cx="171.1" cy="361.86" r="4.037012035232257" fill="#1a5f8a"/>
<circle cx="186.51" cy="351.44" r="4.037012035232257" fill="#1a5f8a"/>
<circle cx="161.6" cy="343.76" r="4.037012035232257" fill="#8cb369"/>
<circle cx="172.97" cy="352.91" r="4.037012035232257" fill="#1a5f8a"/>
<circle cx="121.19" cy="341.52" r="4.037012035232257" fill="#8cb369"/>
<circle cx="137.1" cy="333.27" r="4.037012035232257" fill="#8cb369"/>
<circle cx="114.06" cy="320.38" r="4.037012035232257" fill="#8cb369"/>
<circle cx="123.84" cy="332.2" r="4.037012035232257" fill="#d4a76a"/>
<circle cx="157.43" cy="362.01" r="4.037012035232257" fill="#d4a76a"/>
<circle cx="147.93" cy="343.9" r="4.037012035232257" fill="#1a5f8a"/>
<circle cx="132.14" cy="351.89" r="4.037012035232257" fill="#d4a76a"/>
<circle cx="145.63" cy="353.18" r="4.037012035232257" fill="#1a5f8a"/>
<circle cx="46.76" cy="305.5" r="4.037012035232257" fill="#1a5f8a"/>
<circle cx="58.28" cy="307.93" r="4.037012035232257" fill="#1a5f8a"/>
<circle cx="41.73" cy="287.92" r="4.037012035232257" fill="#1a5f8a"/>
<circle cx="48.38" cy="300.81" r="4.037012035232257" fill="#1a5f8a"/>
<circle cx="73.38" cy="307.51" r="4.037012035232257" fill="#1a5f8a"/>
<circle cx="91.42" cy="304.27" r="4.037012035232257" fill="#8cb369"/>
<circle cx="72.17" cy="287.08" r="4.037012035232257" fill="#1a5f8a"/>
<circle cx="78.55" cy="299.99" r="4.037012035232257" fill="#1a5f8a"/>
<circle cx="39.81" cy="268.47" r="4.037012035232257" fill="#1a5f8a"/>
<circle cx="55.17" cy="268.05" r="4.037012035232257" fill="#1a5f8a"/>
<circle cx="41.13" cy="248.02" r="4.037012035232257" fill="#1a5f8a"/>
<circle cx="44.81" cy="261.74" r="4.037012035232257" fill="#1a5f8a"/>
<circle cx="61.8" cy="301.85" r="4.037012035232257" fill="#1a5f8a"/>
<circle cx="60.33" cy="281.58" r="4.037012035232257" fill="#1a5f8a"/>
<circle cx="44.96" cy="282.01" r="4.037012035232257" fill="#1a5f8a"/>
<circle cx="55.15" cy="288.81" r="4.037012035232257" fill="#1a5f8a"/>
<circle cx="127.83" cy="370.07" r="4.037012035232257" fill="#d4a76a"/>
<circle cx="116.65" cy="356.37" r="4.037012035232257" fill="#7a9a4a"/>
<circle cx="101.09" cy="356.79" r="4.037012035232257" fill="#8cb369"/>
<circle cx="114.82" cy="361.77" r="4.037012035232257" fill="#7a9a4a"/>
<circle cx="107.27" cy="338.47" r="4.037012035232257" fill="#7a9a4a"/>
<circle cx="100.15" cy="317.29" r="4.037012035232257" fill="#8cb369"/>
<circle cx="82.08" cy="320.56" r="4.037012035232257" fill="#8cb369"/>
<circle cx="96.05" cy="325.98" r="4.037012035232257" fill="#8cb369"/>
<circle cx="76.52" cy="339.31" r="4.037012035232257" fill="#7a9a4a"/>
<circle cx="66.9" cy="320.97" r="4.037012035232257" fill="#d4a76a"/>
<circle cx="55.36" cy="318.52" r="4.037012035232257" fill="#1a5f8a"/>
<circle cx="65.69" cy="326.81" r="4.037012035232257" fill="#8cb369"/>
<circle cx="104.39" cy="345.8" r="4.037012035232257" fill="#7a9a4a"/>
<circle cx="79.19" cy="327.88" r="4.037012035232257" fill="#8cb369"/>
<circle cx="88.81" cy="346.23" r="4.037012035232257" fill="#8cb369"/>
<circle cx="90.3" cy="340.6" r="4.037012035232257" fill="#7a9a4a"/>
<circle cx="46.29" cy="238.2" r="4.037012035232257" fill="#2d5a27"/>
<circle cx="60.34" cy="229.31" r="4.037012035232257" fill="#8cb369"/>
<circle cx="60.34" cy="258.18" r="4.037012035232257" fill="#2d5a27"/>
<circle cx="55.14" cy="242.05" r="4.037012035232257" fill="#8cb369"/>
<circle cx="77.38" cy="219.94" r="4.037012035232257" fill="#c9b037"/>
<circle cx="96.64" cy="210.38" r="4.037012035232257" fill="#c9b037"/>
<circle cx="94.16" cy="239.53" r="4.037012035232257" fill="#8cb369"/>
<circle cx="89.0" cy="223.37" r="4.037012035232257" fill="#8cb369"/>
<circle cx="77.38" cy="277.14" r="4.037012035232257" fill="#2d5a27"/>
<circle cx="94.16" cy="267.91" r="4.037012035232257" fill="#8cb369"/>
<circle cx="96.64" cy="294.31" r="4.037012035232257" fill="#c9b037"/>
<circle cx="89.0" cy="280.07" r="4.037012035232257" fill="#2d5a27"/>
<circle cx="70.72" cy="232.89" r="4.037012035232257" fill="#8cb369"/>
<circle cx="87.72" cy="252.42" r="4.037012035232257" fill="#8cb369"/>
<circle cx="70.72" cy="261.77" r="4.037012035232257" fill="#2d5a27"/>
<circle cx="75.92" cy="249.21" r="4.037012035232257" fill="#d4a76a"/>
<circle cx="119.29" cy="200.19" r="4.037012035232257" fill="#7a9a4a"/>
<circle cx="142.31" cy="190.71" r="4.037012035232257" fill="#7a9a4a"/>
<circle cx="141.96" cy="218.01" r="4.037012035232257" fill="#c9b037"/>
<circle cx="134.28" cy="202.98" r="4.037012035232257" fill="#7a9a4a"/>
<circle cx="166.77" cy="181.4" r="4.037012035232257" fill="#7a9a4a"/>
<circle cx="191.66" cy="172.76" r="4.037012035232257" fill="#7a9a4a"/>
<circle cx="191.63" cy="199.09" r="4.037012035232257" fill="#8cb369"/>
<circle cx="183.29" cy="184.37" r="4.037012035232257" fill="#7a9a4a"/>
<circle cx="166.39" cy="235.39" r="4.037012035232257" fill="#1a5f8a"/>
<circle cx="191.56" cy="225.74" r="4.037012035232257" fill="#2d5a27"/>
<circle cx="191.54" cy="251.59" r="4.037012035232257" fill="#1a5f8a"/>
<circle cx="183.1" cy="237.71" r="4.037012035232257" fill="#2d5a27"/>
<circle cx="158.32" cy="193.46" r="4.037012035232257" fill="#7a9a4a"/>
<circle cx="183.19" cy="211.15" r="4.037012035232257" fill="#7a9a4a"/>
<circle cx="158.06" cy="220.76" r="4.037012035232257" fill="#2d5a27"/>
<circle cx="166.4" cy="208.49" r="4.037012035232257" fill="#8cb369"/>
<circle cx="119.29" cy="310.42" r="4.037012035232257" fill="#8cb369"/>
<circle cx="141.96" cy="301.92" r="4.037012035232257" fill="#c9b037"/>
<circle cx="142.31" cy="323.33" r="4.037012035232257" fill="#8cb369"/>
<circle cx="134.28" cy="312.29" r="4.037012035232257" fill="#8cb369"/>
<circle cx="166.39" cy="290.92" r="4.037012035232257" fill="#2d5a27"/>
<circle cx="191.54" cy="277.89" r="4.037012035232257" fill="#d4a76a"/>
<circle cx="191.56" cy="301.16" r="4.037012035232257" fill="#2d5a27"/>
<circle cx="183.1" cy="290.31" r="4.037012035232257" fill="#2d5a27"/>
<circle cx="166.77" cy="333.9" r="4.037012035232257" fill="#d4a76a"/>
<circle cx="191.63" cy="322.71" r="4.037012035232257" fill="#8cb369"/>
<circle cx="191.66" cy="341.62" r="4.037012035232257" fill="#d4a76a"/>
<circle cx="183.29" cy="333.22" r="4.037012035232257" fill="#8cb369"/>
<circle cx="158.06" cy="302.46" r="4.037012035232257" fill="#2d5a27"/>
<circle cx="183.19" cy="312.9" r="4.037012035232257" fill="#8cb369"/>
<circle cx="158.32" cy="324.09" r="4.037012035232257" fill="#1a5f8a"/>
<circle cx="166.4" cy="313.58" r="4.037012035232257" fill="#8cb369"/>
<circle cx="110.61" cy="213.17" r="4.037012035232257" fill="#c9b037"/>
<circle cx="133.3" cy="231.04" r="4.037012035232257" fill="#c9b037"/>
<circle cx="108.12" cy="242.37" r="4.037012035232257" fill="#8cb369"/>
<circle cx="116.99" cy="228.99" r="4.037012035232257" fill="#8cb369"/>
<circle cx="157.87" cy="248.52" r="4.037012035232257" fill="#2d5a27"/>
<circle cx="183.07" cy="264.73" r="4.037012035232257" fill="#1a5f8a"/>
<circle cx="157.87" cy="277.77" r="4.037012035232257" fill="#2d5a27"/>
<circle cx="166.13" cy="263.94" r="4.037012035232257" fill="#1a5f8a"/>
<circle cx="108.12" cy="270.91" r="4.037012035232257" fill="#8cb369"/>
<circle cx="133.3" cy="288.83" r="4.037012035232257" fill="#8cb369"/>
<circle cx="110.61" cy="297.34" r="4.037012035232257" fill="#c9b037"/>
<circle cx="116.99" cy="286.06" r="4.037012035232257" fill="#8cb369"/>
<circle cx="140.91" cy="246.9" r="4.037012035232257" fill="#2d5a27"/>
<circle cx="140.91" cy="276.16" r="4.037012035232257" fill="#8cb369"/>
<circle cx="115.71" cy="258.24" r="4.037012035232257" fill="#e0c080"/>
<circle cx="132.2" cy="260.71" r="4.037012035232257" fill="#8cb369"/>
<circle cx="10.71" cy="196.84" r="4.037012035232257" fill="#2d5a27"/>
<circle cx="14.48" cy="205.79" r="4.037012035232257" fill="#2d5a27"/>
<circle cx="15.34" cy="178.52" r="4.037012035232257" fill="#2d5a27"/>
<circle cx="12.83" cy="193.69" r="4.037012035232257" fill="#8cb369"/>
<circle cx="21.95" cy="214.63" r="4.037012035232257" fill="#1a5f8a"/>
<circle cx="32.79" cy="222.89" r="4.037012035232257" fill="#d4a76a"/>
<circle cx="31.44" cy="196.53" r="4.037012035232257" fill="#d4a76a"/>
<circle cx="28.11" cy="211.39" r="4.037012035232257" fill="#1a5f8a"/>
<circle cx="24.68" cy="160.73" r="4.037012035232257" fill="#e0c080"/>
<circle cx="33.29" cy="169.93" r="4.037012035232257" fill="#1a5f8a"/>
<circle cx="38.3" cy="144.22" r="4.037012035232257" fill="#7a9a4a"/>
<circle cx="31.48" cy="158.14" r="4.037012035232257" fill="#1a5f8a"/>
<circle cx="18.65" cy="202.72" r="4.037012035232257" fill="#d4a76a"/>
<circle cx="28.15" cy="184.61" r="4.037012035232257" fill="#1a5f8a"/>
<circle cx="19.86" cy="175.46" r="4.037012035232257" fill="#1a5f8a"/>
<circle cx="21.55" cy="187.55" r="4.037012035232257" fill="#1a5f8a"/>
<circle cx="42.94" cy="95.37" r="4.037012035232257" fill="#d4a76a"/>
<circle cx="58.09" cy="74.37" r="4.037012035232257" fill="#1a5f8a"/>
<circle cx="48.78" cy="85.37" r="4.037012035232257" fill="#1a5f8a"/>
<circle cx="42.94" cy="105.7" r="4.037012035232257" fill="#1a5f8a"/>
<circle cx="46.95" cy="118.15" r="4.037012035232257" fill="#8cb369"/>
<circle cx="58.09" cy="95.19" r="4.037012035232257" fill="#1a5f8a"/>
<circle cx="48.78" cy="106.01" r="4.037012035232257" fill="#d4a76a"/>
<circle cx="72.09" cy="63.51" r="4.037012035232257" fill="#1a5f8a"/>
<circle cx="72.09" cy="74.02" r="4.037012035232257" fill="#8cb369"/>
<circle cx="88.32" cy="55.56" r="4.037012035232257" fill="#d4a76a"/>
<circle cx="77.06" cy="63.88" r="4.037012035232257" fill="#1a5f8a"/>
<circle cx="46.73" cy="94.49" r="4.037012035232257" fill="#1a5f8a"/>
<circle cx="61.61" cy="83.78" r="4.037012035232257" fill="#1a5f8a"/>
<circle cx="61.61" cy="73.26" r="4.037012035232257" fill="#1a5f8a"/>
<circle cx="56.11" cy="83.4" r="4.037012035232257" fill="#8cb369"/>
<circle cx="10.76" cy="184.09" r="4.037012035232257" fill="#2d5a27"/>
<circle cx="15.38" cy="165.74" r="4.037012035232257" fill="#2d5a27"/>
<circle cx="13.04" cy="168.17" r="4.037012035232257" fill="#8cb369"/>
<circle cx="24.77" cy="147.84" r="4.037012035232257" fill="#8cb369"/>
<circle cx="38.43" cy="131.32" r="4.037012035232257" fill="#8cb369"/>
<circle cx="34.39" cy="118.85" r="4.037012035232257" fill="#8cb369"/>
<circle cx="31.81" cy="132.38" r="4.037012035232257" fill="#8cb369"/>
<circle cx="34.39" cy="108.47" r="4.037012035232257" fill="#7a9a4a"/>
<circle cx="20.1" cy="149.8" r="4.037012035232257" fill="#7a9a4a"/>
<circle cx="29.72" cy="120.79" r="4.037012035232257" fill="#7a9a4a"/>
<circle cx="20.1" cy="139.14" r="4.037012035232257" fill="#7a9a4a"/>
<circle cx="22.51" cy="136.29" r="4.037012035232257" fill="#7a9a4a"/>
<circle cx="213.49" cy="351.44" r="4.037012035232257" fill="#1a5f8a"/>
<circle cx="228.9" cy="361.86" r="4.037012035232257" fill="#7a9a4a"/>
<circle cx="238.4" cy="343.76" r="4.037012035232257" fill="#8cb369"/>
<circle cx="227.03" cy="352.91" r="4.037012035232257" fill="#1a5f8a"/>
<circle cx="244.09" cy="369.14" r="4.037012035232257" fill="#7a9a4a"/>
<circle cx="258.34" cy="373.01" r="4.037012035232257" fill="#d4a76a"/>
<circle cx="269.48" cy="359.32" r="4.037012035232257" fill="#7a9a4a"/>
<circle cx="257.52" cy="367.76" r="4.037012035232257" fill="#7a9a4a"/>
<circle cx="262.9" cy="333.27" r="4.037012035232257" fill="#1a5f8a"/>
<circle cx="278.81" cy="341.52" r="4.037012035232257" fill="#1a5f8a"/>
<circle cx="285.94" cy="320.38" r="4.037012035232257" fill="#1a5f8a"/>
<circle cx="276.16" cy="332.2" r="4.037012035232257" fill="#1a5f8a"/>
<circle cx="242.57" cy="362.01" r="4.037012035232257" fill="#7a9a4a"/>
<circle cx="267.86" cy="351.89" r="4.037012035232257" fill="#7a9a4a"/>
<circle cx="252.07" cy="343.9" r="4.037012035232257" fill="#8cb369"/>
<circle cx="254.37" cy="353.18" r="4.037012035232257" fill="#7a9a4a"/>
<circle cx="272.34" cy="373.39" r="4.037012035232257" fill="#d4a76a"/>
<circle cx="284.22" cy="370.24" r="4.037012035232257" fill="#d4a76a"/>
<circle cx="299.02" cy="360.12" r="4.037012035232257" fill="#1a5f8a"/>
<circle cx="285.5" cy="368.52" r="4.037012035232257" fill="#1a5f8a"/>
<circle cx="323.46" cy="342.74" r="4.037012035232257" fill="#1a5f8a"/>
<circle cx="344.59" cy="321.99" r="4.037012035232257" fill="#d4a76a"/>
<circle cx="334.32" cy="333.8" r="4.037012035232257" fill="#1a5f8a"/>
<circle cx="311.33" cy="353.08" r="4.037012035232257" fill="#1a5f8a"/>
<circle cx="310.29" cy="354.71" r="4.037012035232257" fill="#1a5f8a"/>
<circle cx="308.58" cy="304.27" r="4.037012035232257" fill="#1a5f8a"/>
<circle cx="326.62" cy="307.51" r="4.037012035232257" fill="#8cb369"/>
<circle cx="327.83" cy="287.08" r="4.037012035232257" fill="#1a5f8a"/>
<circle cx="321.45" cy="299.99" r="4.037012035232257" fill="#1a5f8a"/>
<circle cx="341.72" cy="307.93" r="4.037012035232257" fill="#7a9a4a"/>
<circle cx="353.24" cy="305.5" r="4.037012035232257" fill="#8cb369"/>
<circle cx="358.27" cy="287.92" r="4.037012035232257" fill="#8cb369"/>
<circle cx="351.62" cy="300.81" r="4.037012035232257" fill="#8cb369"/>
<circle cx="344.83" cy="268.05" r="4.037012035232257" fill="#d4a76a"/>
<circle cx="360.19" cy="268.47" r="4.037012035232257" fill="#2d5a27"/>
<circle cx="358.87" cy="248.02" r="4.037012035232257" fill="#1a5f8a"/>
<circle cx="355.19" cy="261.74" r="4.037012035232257" fill="#1a5f8a"/>
<circle cx="338.2" cy="301.85" r="4.037012035232257" fill="#7a9a4a"/>
<circle cx="355.04" cy="282.01" r="4.037012035232257" fill="#8cb369"/>
<circle cx="339.67" cy="281.58" r="4.037012035232257" fill="#1a5f8a"/>
<circle cx="344.85" cy="288.81" r="4.037012035232257" fill="#8cb369"/>
<circle cx="272.17" cy="370.07" r="4.037012035232257" fill="#d4a76a"/>
<circle cx="298.91" cy="356.79" r="4.037012035232257" fill="#1a5f8a"/>
<circle cx="283.35" cy="356.37" r="4.037012035232257" fill="#8cb369"/>
<circle cx="285.18" cy="361.77" r="4.037012035232257" fill="#d4a76a"/>
<circle cx="323.48" cy="339.31" r="4.037012035232257" fill="#1a5f8a"/>
<circle cx="344.64" cy="318.52" r="4.037012035232257" fill="#d4a76a"/>
<circle cx="333.1" cy="320.97" r="4.037012035232257" fill="#8cb369"/>
<circle cx="334.31" cy="326.81" r="4.037012035232257" fill="#1a5f8a"/>
<circle cx="292.73" cy="338.47" r="4.037012035232257" fill="#1a5f8a"/>
<circle cx="317.92" cy="320.56" r="4.037012035232257" fill="#8cb369"/>
<circle cx="299.85" cy="317.29" r="4.037012035232257" fill="#d4a76a"/>
<circle cx="303.95" cy="325.98" r="4.037012035232257" fill="#8cb369"/>
<circle cx="311.19" cy="346.23" r="4.037012035232257" fill="#1a5f8a"/>
<circle cx="320.81" cy="327.88" r="4.037012035232257" fill="#8cb369"/>
<circle cx="295.61" cy="345.8" r="4.037012035232257" fill="#d4a76a"/>
<circle cx="309.7" cy="340.6" r="4.037012035232257" fill="#c9b037"/>
<circle cx="200.0" cy="200.0" r="190.0" fill="none" stroke="#fff" stroke-width="2"/>
</svg>