<svg xmlns="http://www.w3.org/2000/svg" viewBox="0 0 400 400" width="400" height="400">
<rect x="0" y="0" width="400" height="400" fill="#000"/>
<circle cx="200.0" cy="200.0" r="190.0" fill="#1a5f8a"/>
<circle cx="280.71" cy="27.99" r="4.037012035232257" fill="#e8f4f8"/>
<circle cx="258.04" cy="19.98" r="4.037012035232257" fill="#1a5f8a"/>
<circle cx="265.72" cy="21.75" r="4.037012035232257" fill="#d4a76a"/>
<circle cx="208.44" cy="11.94" r="4.037012035232257" fill="#1a5f8a"/>
<circle cx="233.61" cy="16.38" r="4.037012035232257" fill="#1a5f8a"/>
<circle cx="208.46" cy="17.33" r="4.037012035232257" fill="#1a5f8a"/>
<circle cx="216.9" cy="14.55" r="4.037012035232257" fill="#1a5f8a"/>
<circle cx="241.94" cy="15.85" r="4.037012035232257" fill="#1a5f8a"/>
<circle cx="216.81" cy="11.07" r="4.037012035232257" fill="#d4a76a"/>
<circle cx="233.6" cy="13.19" r="4.037012035232257" fill="#d4a76a"/>
<circle cx="303.36" cy="40.91" r="4.037012035232257" fill="#d4a76a"/>
<circle cx="322.62" cy="56.24" r="4.037012035232257" fill="#1a5f8a"/>
<circle cx="305.84" cy="47.24" r="4.037012035232257" fill="#1a5f8a"/>
<circle cx="311.0" cy="47.58" r="4.037012035232257" fill="#1a5f8a"/>
<circle cx="339.66" cy="74.55" r="4.037012035232257" fill="#1a5f8a"/>
<circle cx="353.71" cy="95.06" r="4.037012035232257" fill="#7a9a4a"/>
<circle cx="339.66" cy="85.06" r="4.037012035232257" fill="#8cb369"/>
<circle cx="344.86" cy="84.47" r="4.037012035232257" fill="#7a9a4a"/>
<circle cx="305.84" cy="57.57" r="4.037012035232257" fill="#e8f4f8"/>
<circle cx="322.62" cy="77.06" r="4.037012035232257" fill="#d4a76a"/>
<circle cx="303.36" cy="71.46" r="4.037012035232257" fill="#8cb369"/>
<circle cx="311.0" cy="68.22" r="4.037012035232257" fill="#8cb369"/>
<circle cx="329.28" cy="64.7" r="4.037012035232257" fill="#1a5f8a"/>
<circle cx="329.28" cy="75.21" r="4.037012035232257" fill="#8cb369"/>
<circle cx="312.28" cy="55.97" r="4.037012035232257" fill="#e8f4f8"/>
<circle cx="324.08" cy="64.79" r="4.037012035232257" fill="#8cb369"/>
<circle cx="208.46" cy="26.91" r="4.037012035232257" fill="#d4a76a"/>
<circle cx="233.61" cy="36.59" r="4.037012035232257" fill="#1a5f8a"/>
<circle cx="208.44" cy="39.39" r="4.037012035232257" fill="#1a5f8a"/>
<circle cx="216.9" cy="33.69" r="4.037012035232257" fill="#1a5f8a"/>
<circle cx="258.04" cy="50.52" r="4.037012035232257" fill="#e8f4f8"/>
<circle cx="280.71" cy="68.11" r="4.037012035232257" fill="#e8f4f8"/>
<circle cx="257.69" cy="67.48" r="4.037012035232257" fill="#e8f4f8"/>
<circle cx="265.72" cy="61.54" r="4.037012035232257" fill="#e8f4f8"/>
<circle cx="208.37" cy="55.18" r="4.037012035232257" fill="#e8f4f8"/>
<circle cx="233.23" cy="69.36" r="4.037012035232257" fill="#e8f4f8"/>
<circle cx="208.34" cy="73.61" r="4.037012035232257" fill="#e8f4f8"/>
<circle cx="216.71" cy="65.56" r="4.037012035232257" fill="#e8f4f8"/>
<circle cx="241.94" cy="45.59" r="4.037012035232257" fill="#1a5f8a"/>
<circle cx="241.68" cy="62.29" r="4.037012035232257" fill="#e8f4f8"/>
<circle cx="216.81" cy="48.11" r="4.037012035232257" fill="#1a5f8a"/>
<circle cx="233.6" cy="51.44" r="4.037012035232257" fill="#1a5f8a"/>
<circle cx="289.39" cy="32.86" r="4.037012035232257" fill="#e8f4f8"/>
<circle cx="291.88" cy="39.18" r="4.037012035232257" fill="#e8f4f8"/>
<circle cx="266.7" cy="24.82" r="4.037012035232257" fill="#d4a76a"/>
<circle cx="283.01" cy="31.57" r="4.037012035232257" fill="#e8f4f8"/>
<circle cx="291.88" cy="49.57" r="4.037012035232257" fill="#e8f4f8"/>
<circle cx="289.39" cy="63.5" r="4.037012035232257" fill="#e8f4f8"/>
<circle cx="266.7" cy="45.85" r="4.037012035232257" fill="#e8f4f8"/>
<circle cx="283.01" cy="52.34" r="4.037012035232257" fill="#e8f4f8"/>
<circle cx="242.13" cy="21.19" r="4.037012035232257" fill="#1a5f8a"/>
<circle cx="242.13" cy="31.84" r="4.037012035232257" fill="#1a5f8a"/>
<circle cx="216.93" cy="22.17" r="4.037012035232257" fill="#1a5f8a"/>
<circle cx="233.87" cy="24.32" r="4.037012035232257" fill="#1a5f8a"/>
<circle cx="284.29" cy="39.99" r="4.037012035232257" fill="#e8f4f8"/>
<circle cx="259.09" cy="36.27" r="4.037012035232257" fill="#e8f4f8"/>
<circle cx="259.09" cy="25.62" r="4.037012035232257" fill="#d4a76a"/>
<circle cx="267.8" cy="33.21" r="4.037012035232257" fill="#e8f4f8"/>
<circle cx="191.56" cy="11.94" r="4.037012035232257" fill="#e8f4f8"/>
<circle cx="191.54" cy="17.33" r="4.037012035232257" fill="#e8f4f8"/>
<circle cx="166.39" cy="16.38" r="4.037012035232257" fill="#e8f4f8"/>
<circle cx="183.1" cy="14.55" r="4.037012035232257" fill="#e8f4f8"/>
<circle cx="141.96" cy="19.98" r="4.037012035232257" fill="#1a5f8a"/>
<circle cx="119.29" cy="27.99" r="4.037012035232257" fill="#1a5f8a"/>
<circle cx="134.28" cy="21.75" r="4.037012035232257" fill="#1a5f8a"/>
<circle cx="183.19" cy="11.07" r="4.037012035232257" fill="#e8f4f8"/>
<circle cx="158.06" cy="15.85" r="4.037012035232257" fill="#e8f4f8"/>
<circle cx="166.4" cy="13.19" r="4.037012035232257" fill="#e8f4f8"/>
<circle cx="191.54" cy="26.91" r="4.037012035232257" fill="#e8f4f8"/>
<circle cx="191.56" cy="39.39" r="4.037012035232257" fill="#1a5f8a"/>
<circle cx="166.39" cy="36.59" r="4.037012035232257" fill="#d4a76a"/>
<circle cx="183.1" cy="33.69" r="4.037012035232257" fill="#e8f4f8"/>
<circle cx="191.63" cy="55.18" r="4.037012035232257" fill="#1a5f8a"/>
<circle cx="191.66" cy="73.61" r="4.037012035232257" fill="#d4a76a"/>
<circle cx="166.77" cy="69.36" r="4.037012035232257" fill="#1a5f8a"/>
<circle cx="183.29" cy="65.56" r="4.037012035232257" fill="#d4a76a"/>
<circle cx="141.96" cy="50.52" r="4.037012035232257" fill="#1a5f8a"/>
<circle cx="142.31" cy="67.48" r="4.037012035232257" fill="#1a5f8a"/>
<circle cx="119.29" cy="68.11" r="4.037012035232257" fill="#e8f4f8"/>
<circle cx="134.28" cy="61.54" r="4.037012035232257" fill="#e8f4f8"/>
<circle cx="183.19" cy="48.11" r="4.037012035232257" fill="#1a5f8a"/>
<circle cx="158.32" cy="62.29" r="4.037012035232257" fill="#1a5f8a"/>
<circle cx="158.06" cy="45.59" r="4.037012035232257" fill="#1a5f8a"/>
<circle cx="166.4" cy="51.44" r="4.037012035232257" fill="#1a5f8a"/>
<circle cx="96.64" cy="40.91" r="4.037012035232257" fill="#1a5f8a"/>
<circle cx="94.16" cy="47.24" r="4.037012035232257" fill="#1a5f8a"/>
<circle cx="77.38" cy="56.24" r="4.037012035232257" fill="#1a5f8a"/>
<circle cx="89.0" cy="47.58" r="4.037012035232257" fill="#1a5f8a"/>
<circle cx="94.16" cy="57.57" r="4.037012035232257" fill="#e8f4f8"/>
<circle cx="96.64" cy="71.46" r="4.037012035232257" fill="#e8f4f8"/>
<circle cx="77.38" cy="77.06" r="4.037012035232257" fill="#7a9a4a"/>
<circle cx="89.0" cy="68.22" r="4.037012035232257" fill="#e8f4f8"/>
<circle cx="60.34" cy="74.55" r="4.037012035232257" fill="#1a5f8a"/>
<circle cx="60.34" cy="85.06" r="4.037012035232257" fill="#8cb369"/>
<circle cx="46.29" cy="95.06" r="4.037012035232257" fill="#1a5f8a"/>
<circle cx="55.14" cy="84.47" r="4.037012035232257" fill="#1a5f8a"/>
<circle cx="87.72" cy="55.97" r="4.037012035232257" fill="#1a5f8a"/>
<circle cx="70.72" cy="75.21" r="4.037012035232257" fill="#8cb369"/>
<circle cx="70.72" cy="64.7" r="4.037012035232257" fill="#1a5f8a"/>
<circle cx="75.92" cy="64.79" r="4.037012035232257" fill="#1a5f8a"/>
<circle cx="183.07" cy="22.17" r="4.037012035232257" fill="#e8f4f8"/>
<circle cx="157.87" cy="31.84" r="4.037012035232257" fill="#d4a76a"/>
<circle cx="157.87" cy="21.19" r="4.037012035232257" fill="#e8f4f8"/>
<circle cx="166.13" cy="24.32" r="4.037012035232257" fill="#e8f4f8"/>
<circle cx="133.3" cy="45.85" r="4.037012035232257" fill="#e8f4f8"/>
<circle cx="110.61" cy="63.5" r="4.037012035232257" fill="#e8f4f8"/>
<circle cx="108.12" cy="49.57" r="4.037012035232257" fill="#e8f4f8"/>
<circle cx="116.99" cy="52.34" r="4.037012035232257" fill="#e8f4f8"/>
<circle cx="133.3" cy="24.82" r="4.037012035232257" fill="#1a5f8a"/>
<circle cx="108.12" cy="39.18" r="4.037012035232257" fill="#1a5f8a"/>
<circle cx="110.61" cy="32.86" r="4.037012035232257" fill="#1a5f8a"/>
<circle cx="116.99" cy="31.57" r="4.037012035232257" fill="#1a5f8a"/>
<circle cx="140.91" cy="36.27" r="4.037012035232257" fill="#e8f4f8"/>
<circle cx="115.71" cy="39.99" r="4.037012035232257" fill="#e8f4f8"/>
<circle cx="140.91" cy="25.62" r="4.037012035232257" fill="#e8f4f8"/>
<circle cx="132.2" cy="33.21" r="4.037012035232257" fill="#e8f4f8"/>
<circle cx="72.17" cy="59.5" r="4.037012035232257" fill="#1a5f8a"/>
<circle cx="55.17" cy="77.78" r="4.037012035232257" fill="#1a5f8a"/>
<circle cx="41.13" cy="98.28" r="4.037012035232257" fill="#1a5f8a"/>
<circle cx="44.81" cy="90.92" r="4.037012035232257" fill="#1a5f8a"/>
<circle cx="60.33" cy="71.2" r="4.037012035232257" fill="#1a5f8a"/>
<circle cx="327.83" cy="59.5" r="4.037012035232257" fill="#1a5f8a"/>
<circle cx="344.83" cy="77.78" r="4.037012035232257" fill="#1a5f8a"/>
<circle cx="358.87" cy="98.28" r="4.037012035232257" fill="#8cb369"/>
<circle cx="355.19" cy="90.92" r="4.037012035232257" fill="#8cb369"/>
<circle cx="339.67" cy="71.2" r="4.037012035232257" fill="#1a5f8a"/>
<circle cx="213.49" cy="86.06" r="4.037012035232257" fill="#1a5f8a"/>
<circle cx="238.4" cy="81.85" r="4.037012035232257" fill="#e8f4f8"/>
<circle cx="228.9" cy="104.79" r="4.037012035232257" fill="#8cb369"/>
<circle cx="227.03" cy="90.51" r="4.037012035232257" fill="#d4a76a"/>
<circle cx="262.9" cy="80.08" r="4.037012035232257" fill="#e8f4f8"/>
<circle cx="285.94" cy="80.74" r="4.037012035232257" fill="#e8f4f8"/>
<circle cx="278.81" cy="100.7" r="4.037012035232257" fill="#7a9a4a"/>
<circle cx="276.16" cy="86.77" r="4.037012035232257" fill="#e8f4f8"/>
<circle cx="244.09" cy="125.52" r="4.037012035232257" fill="#8cb369"/>
<circle cx="269.48" cy="123.25" r="4.037012035232257" fill="#7a9a4a"/>
<circle cx="258.34" cy="147.42" r="4.037012035232257" fill="#7a9a4a"/>
<circle cx="257.52" cy="131.82" r="4.037012035232257" fill="#7a9a4a"/>
<circle cx="252.07" cy="87.39" r="4.037012035232257" fill="#e8f4f8"/>
<circle cx="267.86" cy="108.21" r="4.037012035232257" fill="#e8f4f8"/>
<circle cx="242.57" cy="110.34" r="4.037012035232257" fill="#7a9a4a"/>
<circle cx="254.37" cy="101.61" r="4.037012035232257" fill="#e8f4f8"/>
<circle cx="308.58" cy="84.08" r="4.037012035232257" fill="#7a9a4a"/>
<circle cx="327.83" cy="89.66" r="4.037012035232257" fill="#1a5f8a"/>
<circle cx="326.62" cy="107.75" r="4.037012035232257" fill="#d4a76a"/>
<circle cx="321.45" cy="93.45" r="4.037012035232257" fill="#7a9a4a"/>
<circle cx="344.83" cy="97.56" r="4.037012035232257" fill="#1a5f8a"/>
<circle cx="358.87" cy="107.51" r="4.037012035232257" fill="#7a9a4a"/>
<circle cx="360.19" cy="124.16" r="4.037012035232257" fill="#d4a76a"/>
<circle cx="355.19" cy="109.42" r="4.037012035232257" fill="#7a9a4a"/>
<circle cx="341.72" cy="133.9" r="4.037012035232257" fill="#1a5f8a"/>
<circle cx="358.27" cy="142.37" r="4.037012035232257" fill="#8cb369"/>
<circle cx="353.24" cy="161.42" r="4.037012035232257" fill="#7a9a4a"/>
<circle cx="351.62" cy="145.7" r="4.037012035232257" fill="#8cb369"/>
<circle cx="339.67" cy="100.32" r="4.037012035232257" fill="#1a5f8a"/>
<circle cx="355.04" cy="126.93" r="4.037012035232257" fill="#1a5f8a"/>
<circle cx="338.2" cy="118.59" r="4.037012035232257" fill="#1a5f8a"/>
<circle cx="344.85" cy="114.96" r="4.037012035232257" fill="#1a5f8a"/>
<circle cx="272.34" cy="171.66" r="4.037012035232257" fill="#7a9a4a"/>
<circle cx="299.02" cy="174.41" r="4.037012035232257" fill="#7a9a4a"/>
<circle cx="284.22" cy="195.02" r="4.037012035232257" fill="#7a9a4a"/>
<circle cx="285.5" cy="180.29" r="4.037012035232257" fill="#7a9a4a"/>
<circle cx="323.46" cy="178.02" r="4.037012035232257" fill="#7a9a4a"/>
<circle cx="344.59" cy="182.32" r="4.037012035232257" fill="#7a9a4a"/>
<circle cx="333.47" cy="202.29" r="4.037012035232257" fill="#c9b037"/>
<circle cx="334.32" cy="187.49" r="4.037012035232257" fill="#6b4423"/>
<circle cx="294.68" cy="218.71" r="4.037012035232257" fill="#2d5a27"/>
<circle cx="319.54" cy="222.37" r="4.037012035232257" fill="#8cb369"/>
<circle cx="303.34" cy="241.66" r="4.037012035232257" fill="#2d5a27"/>
<circle cx="306.24" cy="227.67" r="4.037012035232257" fill="#8cb369"/>
<circle cx="311.33" cy="183.5" r="4.037012035232257" fill="#7a9a4a"/>
<circle cx="321.58" cy="207.77" r="4.037012035232257" fill="#6b4423"/>
<circle cx="296.71" cy="204.1" r="4.037012035232257" fill="#7a9a4a"/>
<circle cx="310.29" cy="198.45" r="4.037012035232257" fill="#7a9a4a"/>
<circle cx="299.85" cy="88.77" r="4.037012035232257" fill="#7a9a4a"/>
<circle cx="317.92" cy="112.47" r="4.037012035232257" fill="#7a9a4a"/>
<circle cx="292.73" cy="108.75" r="4.037012035232257" fill="#7a9a4a"/>
<circle cx="303.95" cy="102.92" r="4.037012035232257" fill="#7a9a4a"/>
<circle cx="333.1" cy="138.77" r="4.037012035232257" fill="#d4a76a"/>
<circle cx="344.64" cy="166.33" r="4.037012035232257" fill="#7a9a4a"/>
<circle cx="323.48" cy="162.01" r="4.037012035232257" fill="#7a9a4a"/>
<circle cx="334.31" cy="155.51" r="4.037012035232257" fill="#7a9a4a"/>
<circle cx="283.35" cy="131.43" r="4.037012035232257" fill="#7a9a4a"/>
<circle cx="298.91" cy="158.38" r="4.037012035232257" fill="#7a9a4a"/>
<circle cx="272.17" cy="155.64" r="4.037012035232257" fill="#7a9a4a"/>
<circle cx="285.18" cy="148.26" r="4.037012035232257" fill="#7a9a4a"/>
<circle cx="320.81" cy="128.22" r="4.037012035232257" fill="#d4a76a"/>
<circle cx="311.19" cy="151.47" r="4.037012035232257" fill="#7a9a4a"/>
<circle cx="295.61" cy="124.5" r="4.037012035232257" fill="#7a9a4a"/>
<circle cx="309.7" cy="134.44" r="4.037012035232257" fill="#7a9a4a"/>
<circle cx="41.13" cy="107.51" r="4.037012035232257" fill="#1a5f8a"/>
<circle cx="55.17" cy="97.56" r="4.037012035232257" fill="#8cb369"/>
<circle cx="39.81" cy="124.16" r="4.037012035232257" fill="#d4a76a"/>
<circle cx="44.81" cy="109.42" r="4.037012035232257" fill="#8cb369"/>
<circle cx="72.17" cy="89.66" r="4.037012035232257" fill="#1a5f8a"/>
<circle cx="91.42" cy="84.08" r="4.037012035232257" fill="#e8f4f8"/>
<circle cx="73.38" cy="107.75" r="4.037012035232257" fill="#1a5f8a"/>
<circle cx="78.55" cy="93.45" r="4.037012035232257" fill="#1a5f8a"/>
<circle cx="41.73" cy="142.37" r="4.037012035232257" fill="#1a5f8a"/>
<circle cx="58.28" cy="133.9" r="4.037012035232257" fill="#7a9a4a"/>
<circle cx="46.76" cy="161.42" r="4.037012035232257" fill="#d4a76a"/>
<circle cx="48.38" cy="145.7" r="4.037012035232257" fill="#d4a76a"/>
<circle cx="60.33" cy="100.32" r="4.037012035232257" fill="#1a5f8a"/>
<circle cx="61.8" cy="118.59" r="4.037012035232257" fill="#d4a76a"/>
<circle cx="44.96" cy="126.93" r="4.037012035232257" fill="#8cb369"/>
<circle cx="55.15" cy="114.96" r="4.037012035232257" fill="#c9b037"/>
<circle cx="114.06" cy="80.74" r="4.037012035232257" fill="#e8f4f8"/>
<circle cx="137.1" cy="80.08" r="4.037012035232257" fill="#1a5f8a"/>
<circle cx="121.19" cy="100.7" r="4.037012035232257" fill="#8cb369"/>
<circle cx="123.84" cy="86.77" r="4.037012035232257" fill="#1a5f8a"/>
<circle cx="161.6" cy="81.85" r="4.037012035232257" fill="#1a5f8a"/>
<circle cx="186.51" cy="86.06" r="4.037012035232257" fill="#1a5f8a"/>
<circle cx="171.1" cy="104.79" r="4.037012035232257" fill="#1a5f8a"/>
<circle cx="172.97" cy="90.51" r="4.037012035232257" fill="#1a5f8a"/>
<circle cx="130.52" cy="123.25" r="4.037012035232257" fill="#1a5f8a"/>
<circle cx="155.91" cy="125.52" r="4.037012035232257" fill="#1a5f8a"/>
<circle cx="141.66" cy="147.42" r="4.037012035232257" fill="#1a5f8a"/>
<circle cx="142.48" cy="131.82" r="4.037012035232257" fill="#1a5f8a"/>
<circle cx="147.93" cy="87.39" r="4.037012035232257" fill="#1a5f8a"/>
<circle cx="157.43" cy="110.34" r="4.037012035232257" fill="#1a5f8a"/>
<circle cx="132.14" cy="108.21" r="4.037012035232257" fill="#1a5f8a"/>
<circle cx="145.63" cy="101.61" r="4.037012035232257" fill="#1a5f8a"/>
<circle cx="55.41" cy="182.32" r="4.037012035232257" fill="#8cb369"/>
<circle cx="76.54" cy="178.02" r="4.037012035232257" fill="#7a9a4a"/>
<circle cx="66.53" cy="202.29" r="4.037012035232257" fill="#2d5a27"/>
<circle cx="65.68" cy="187.49" r="4.037012035232257" fill="#8cb369"/>
<circle cx="100.98" cy="174.41" r="4.037012035232257" fill="#7a9a4a"/>
<circle cx="127.66" cy="171.66" r="4.037012035232257" fill="#7a9a4a"/>
<circle cx="115.78" cy="195.02" r="4.037012035232257" fill="#7a9a4a"/>
<circle cx="114.5" cy="180.29" r="4.037012035232257" fill="#7a9a4a"/>
<circle cx="80.46" cy="222.37" r="4.037012035232257" fill="#1a5f8a"/>
<circle cx="105.32" cy="218.71" r="4.037012035232257" fill="#d4a76a"/>
<circle cx="96.66" cy="241.66" r="4.037012035232257" fill="#1a5f8a"/>
<circle cx="93.76" cy="227.67" r="4.037012035232257" fill="#1a5f8a"/>
<circle cx="88.67" cy="183.5" r="4.037012035232257" fill="#7a9a4a"/>
<circle cx="103.29" cy="204.1" r="4.037012035232257" fill="#7a9a4a"/>
<circle cx="78.42" cy="207.77" r="4.037012035232257" fill="#2d5a27"/>
<circle cx="89.71" cy="198.45" r="4.037012035232257" fill="#7a9a4a"/>
<circle cx="100.15" cy="88.77" r="4.037012035232257" fill="#e8f4f8"/>
<circle cx="107.27" cy="108.75" r="4.037012035232257" fill="#7a9a4a"/>
<circle cx="82.08" cy="112.47" r="4.037012035232257" fill="#1a5f8a"/>
<circle cx="96.05" cy="102.92" r="4.037012035232257" fill="#7a9a4a"/>
<circle cx="116.65" cy="131.43" r="4.037012035232257" fill="#1a5f8a"/>
<circle cx="127.83" cy="155.64" r="4.037012035232257" fill="#7a9a4a"/>
<circle cx="101.09" cy="158.38" r="4.037012035232257" fill="#7a9a4a"/>
<circle cx="114.82" cy="148.26" r="4.037012035232257" fill="#d4a76a"/>
<circle cx="66.9" cy="138.77" r="4.037012035232257" fill="#7a9a4a"/>
<circle cx="76.52" cy="162.01" r="4.037012035232257" fill="#7a9a4a"/>
<circle cx="55.36" cy="166.33" r="4.037012035232257" fill="#7a9a4a"/>
<circle cx="65.69" cy="155.51" r="4.037012035232257" fill="#7a9a4a"/>
<circle cx="104.39" cy="124.5" r="4.037012035232257" fill="#8cb369"/>
<circle cx="88.81" cy="151.47" r="4.037012035232257" fill="#7a9a4a"/>
<circle cx="79.19" cy="128.22" r="4.037012035232257" fill="#7a9a4a"/>
<circle cx="90.3" cy="134.44" r="4.037012035232257" fill="#7a9a4a"/>
<circle cx="32.79" cy="112.72" r="4.037012035232257" fill="#1a5f8a"/>
<circle cx="21.95" cy="135.33" r="4.037012035232257" fill="#1a5f8a"/>
<circle cx="28.11" cy="119.86" r="4.037012035232257" fill="#1a5f8a"/>
<circle cx="14.48" cy="159.4" r="4.037012035232257" fill="#2d5a27"/>
<circle cx="18.65" cy="143.38" r="4.037012035232257" fill="#1a5f8a"/>
<circle cx="367.21" cy="112.72" r="4.037012035232257" fill="#7a9a4a"/>
<circle cx="378.05" cy="135.33" r="4.037012035232257" fill="#7a9a4a"/>
<circle cx="371.89" cy="119.86" r="4.037012035232257" fill="#7a9a4a"/>
<circle cx="385.52" cy="159.4" r="4.037012035232257" fill="#c9b037"/>
<circle cx="381.35" cy="143.38" r="4.037012035232257" fill="#7a9a4a"/>
<circle cx="200.0" cy="382.64" r="4.037012035232257" fill="#1a5f8a"/>
<circle cx="215.36" cy="374.98" r="4.037012035232257" fill="#1a5f8a"/>
<circle cx="184.64" cy="374.98" r="4.037012035232257" fill="#8cb369"/>
<circle cx="200.0" cy="378.17" r="4.037012035232257" fill="#d4a76a"/>
<circle cx="230.44" cy="363.76" r="4.037012035232257" fill="#1a5f8a"/>
<circle cx="244.65" cy="349.47" r="4.037012035232257" fill="#1a5f8a"/>
<circle cx="215.1" cy="353.18" r="4.037012035232257" fill="#7a9a4a"/>
<circle cx="230.17" cy="356.03" r="4.037012035232257" fill="#1a5f8a"/>
<circle cx="169.56" cy="363.76" r="4.037012035232257" fill="#8cb369"/>
<circle cx="184.9" cy="353.18" r="4.037012035232257" fill="#7a9a4a"/>
<circle cx="155.35" cy="349.47" r="4.037012035232257" fill="#8cb369"/>
<circle cx="169.83" cy="356.03" r="4.037012035232257" fill="#8cb369"/>
<circle cx="215.37" cy="368.81" r="4.037012035232257" fill="#d4a76a"/>
<circle cx="200.0" cy="357.93" r="4.037012035232257" fill="#7a9a4a"/>
<circle cx="184.63" cy="368.81" r="4.037012035232257" fill="#8cb369"/>
<circle cx="200.0" cy="365.81" r="4.037012035232257" fill="#7a9a4a"/>
<circle cx="258.65" cy="331.15" r="4.037012035232257" fill="#1a5f8a"/>
<circle cx="270.57" cy="311.23" r="4.037012035232257" fill="#1a5f8a"/>
<circle cx="244.65" cy="314.5" r="4.037012035232257" fill="#1a5f8a"/>
<circle cx="258.16" cy="319.39" r="4.037012035232257" fill="#1a5f8a"/>
<circle cx="281.14" cy="288.87" r="4.037012035232257" fill="#1a5f8a"/>
<circle cx="289.85" cy="265.02" r="4.037012035232257" fill="#1a5f8a"/>
<circle cx="265.78" cy="268.76" r="4.037012035232257" fill="#1a5f8a"/>
<circle cx="279.2" cy="274.49" r="4.037012035232257" fill="#1a5f8a"/>
<circle cx="229.54" cy="294.74" r="4.037012035232257" fill="#d4a76a"/>
<circle cx="240.13" cy="271.38" r="4.037012035232257" fill="#2d5a27"/>
<circle cx="214.0" cy="272.69" r="4.037012035232257" fill="#2d5a27"/>
<circle cx="227.99" cy="279.89" r="4.037012035232257" fill="#2d5a27"/>
<circle cx="269.51" cy="297.94" r="4.037012035232257" fill="#1a5f8a"/>
<circle cx="254.14" cy="277.82" r="4.037012035232257" fill="#2d5a27"/>
<circle cx="243.47" cy="301.02" r="4.037012035232257" fill="#1a5f8a"/>
<circle cx="255.92" cy="292.61" r="4.037012035232257" fill="#1a5f8a"/>
<circle cx="141.35" cy="331.15" r="4.037012035232257" fill="#8cb369"/>
<circle cx="155.35" cy="314.5" r="4.037012035232257" fill="#8cb369"/>
<circle cx="129.43" cy="311.23" r="4.037012035232257" fill="#1a5f8a"/>
<circle cx="141.84" cy="319.39" r="4.037012035232257" fill="#d4a76a"/>
<circle cx="170.46" cy="294.74" r="4.037012035232257" fill="#1a5f8a"/>
<circle cx="186.0" cy="272.69" r="4.037012035232257" fill="#1a5f8a"/>
<circle cx="159.87" cy="271.38" r="4.037012035232257" fill="#1a5f8a"/>
<circle cx="172.01" cy="279.89" r="4.037012035232257" fill="#1a5f8a"/>
<circle cx="118.86" cy="288.87" r="4.037012035232257" fill="#1a5f8a"/>
<circle cx="134.22" cy="268.76" r="4.037012035232257" fill="#1a5f8a"/>
<circle cx="110.15" cy="265.02" r="4.037012035232257" fill="#1a5f8a"/>
<circle cx="120.8" cy="274.49" r="4.037012035232257" fill="#1a5f8a"/>
<circle cx="156.53" cy="301.02" r="4.037012035232257" fill="#1a5f8a"/>
<circle cx="145.86" cy="277.82" r="4.037012035232257" fill="#1a5f8a"/>
<circle cx="130.49" cy="297.94" r="4.037012035232257" fill="#1a5f8a"/>
<circle cx="144.08" cy="292.61" r="4.037012035232257" fill="#1a5f8a"/>
<circle cx="244.79" cy="339.26" r="4.037012035232257" fill="#1a5f8a"/>
<circle cx="230.75" cy="322.61" r="4.037012035232257" fill="#1a5f8a"/>
<circle cx="215.19" cy="342.98" r="4.037012035232257" fill="#8cb369"/>
<circle cx="230.37" cy="335.53" r="4.037012035232257" fill="#d4a76a"/>
<circle cx="215.56" cy="302.73" r="4.037012035232257" fill="#d4a76a"/>
<circle cx="200.0" cy="280.63" r="4.037012035232257" fill="#1a5f8a"/>
<circle cx="184.44" cy="302.73" r="4.037012035232257" fill="#1a5f8a"/>
<circle cx="200.0" cy="295.77" r="4.037012035232257" fill="#d4a76a"/>
<circle cx="184.81" cy="342.98" r="4.037012035232257" fill="#8cb369"/>
<circle cx="169.25" cy="322.61" r="4.037012035232257" fill="#8cb369"/>
<circle cx="155.21" cy="339.26" r="4.037012035232257" fill="#8cb369"/>
<circle cx="169.63" cy="335.53" r="4.037012035232257" fill="#8cb369"/>
<circle cx="215.57" cy="317.06" r="4.037012035232257" fill="#1a5f8a"/>
<circle cx="184.43" cy="317.06" r="4.037012035232257" fill="#1a5f8a"/>
<circle cx="200.0" cy="337.45" r="4.037012035232257" fill="#8cb369"/>
<circle cx="200.0" cy="324.41" r="4.037012035232257" fill="#1a5f8a"/>
<circle cx="186.51" cy="384.63" r="4.037012035232257" fill="#1a5f8a"/>
<circle cx="171.1" cy="376.98" r="4.037012035232257" fill="#1a5f8a"/>
<circle cx="161.6" cy="382.91" r="4.037012035232257" fill="#e8f4f8"/>
<circle cx="172.97" cy="382.16" r="4.037012035232257" fill="#1a5f8a"/>
<circle cx="155.91" cy="365.77" r="4.037012035232257" fill="#8cb369"/>
<circle cx="141.66" cy="351.49" r="4.037012035232257" fill="#8cb369"/>
<circle cx="130.52" cy="361.2" r="4.037012035232257" fill="#1a5f8a"/>
<circle cx="142.48" cy="360.06" r="4.037012035232257" fill="#8cb369"/>
<circle cx="137.1" cy="377.53" r="4.037012035232257" fill="#e8f4f8"/>
<circle cx="121.19" cy="367.04" r="4.037012035232257" fill="#d4a76a"/>
<circle cx="114.06" cy="368.74" r="4.037012035232257" fill="#1a5f8a"/>
<circle cx="123.84" cy="371.72" r="4.037012035232257" fill="#e8f4f8"/>
<circle cx="157.43" cy="372.83" r="4.037012035232257" fill="#1a5f8a"/>
<circle cx="132.14" cy="367.95" r="4.037012035232257" fill="#1a5f8a"/>
<circle cx="147.93" cy="378.76" r="4.037012035232257" fill="#e8f4f8"/>
<circle cx="145.63" cy="373.83" r="4.037012035232257" fill="#1a5f8a"/>
<circle cx="127.66" cy="333.17" r="4.037012035232257" fill="#1a5f8a"/>
<circle cx="115.78" cy="313.24" r="4.037012035232257" fill="#1a5f8a"/>
<circle cx="100.98" cy="322.53" r="4.037012035232257" fill="#1a5f8a"/>
<circle cx="114.5" cy="323.43" r="4.037012035232257" fill="#1a5f8a"/>
<circle cx="105.32" cy="290.87" r="4.037012035232257" fill="#1a5f8a"/>
<circle cx="96.66" cy="267.02" r="4.037012035232257" fill="#1a5f8a"/>
<circle cx="80.46" cy="276.69" r="4.037012035232257" fill="#1a5f8a"/>
<circle cx="93.76" cy="278.48" r="4.037012035232257" fill="#d4a76a"/>
<circle cx="76.54" cy="308.59" r="4.037012035232257" fill="#8cb369"/>
<circle cx="66.53" cy="285.16" r="4.037012035232257" fill="#1a5f8a"/>
<circle cx="55.41" cy="291.96" r="4.037012035232257" fill="#1a5f8a"/>
<circle cx="65.68" cy="295.58" r="4.037012035232257" fill="#1a5f8a"/>
<circle cx="103.29" cy="301.95" r="4.037012035232257" fill="#1a5f8a"/>
<circle cx="78.42" cy="287.77" r="4.037012035232257" fill="#1a5f8a"/>
<circle cx="88.67" cy="311.04" r="4.037012035232257" fill="#8cb369"/>
<circle cx="89.71" cy="300.63" r="4.037012035232257" fill="#1a5f8a"/>
<circle cx="91.42" cy="355.82" r="4.037012035232257" fill="#d4a76a"/>
<circle cx="73.38" cy="339.77" r="4.037012035232257" fill="#1a5f8a"/>
<circle cx="78.55" cy="345.89" r="4.037012035232257" fill="#8cb369"/>
<circle cx="58.28" cy="320.01" r="4.037012035232257" fill="#8cb369"/>
<circle cx="46.76" cy="297.37" r="4.037012035232257" fill="#8cb369"/>
<circle cx="41.73" cy="300.66" r="4.037012035232257" fill="#7a9a4a"/>
<circle cx="48.38" cy="306.4" r="4.037012035232257" fill="#7a9a4a"/>
<circle cx="39.81" cy="302.1" r="4.037012035232257" fill="#8cb369"/>
<circle cx="61.8" cy="327.83" r="4.037012035232257" fill="#1a5f8a"/>
<circle cx="44.96" cy="308.69" r="4.037012035232257" fill="#8cb369"/>
<circle cx="55.15" cy="322.23" r="4.037012035232257" fill="#c9b037"/>
<circle cx="127.83" cy="343.3" r="4.037012035232257" fill="#1a5f8a"/>
<circle cx="101.09" cy="332.67" r="4.037012035232257" fill="#8cb369"/>
<circle cx="116.65" cy="353.04" r="4.037012035232257" fill="#8cb369"/>
<circle cx="114.82" cy="343.61" r="4.037012035232257" fill="#d4a76a"/>
<circle cx="76.52" cy="318.65" r="4.037012035232257" fill="#8cb369"/>
<circle cx="55.36" cy="301.97" r="4.037012035232257" fill="#8cb369"/>
<circle cx="66.9" cy="324.66" r="4.037012035232257" fill="#8cb369"/>
<circle cx="65.69" cy="315.59" r="4.037012035232257" fill="#7a9a4a"/>
<circle cx="107.27" cy="358.91" r="4.037012035232257" fill="#1a5f8a"/>
<circle cx="82.08" cy="344.54" r="4.037012035232257" fill="#1a5f8a"/>
<circle cx="100.15" cy="360.6" r="4.037012035232257" fill="#1a5f8a"/>
<circle cx="96.05" cy="355.35" r="4.037012035232257" fill="#1a5f8a"/>
<circle cx="88.81" cy="331.17" r="4.037012035232257" fill="#7a9a4a"/>
<circle cx="79.19" cy="337.18" r="4.037012035232257" fill="#1a5f8a"/>
<circle cx="104.39" cy="351.55" r="4.037012035232257" fill="#1a5f8a"/>
<circle cx="90.3" cy="340.6" r="4.037012035232257" fill="#7a9a4a"/>
<circle cx="191.66" cy="387.85" r="4.037012035232257" fill="#1a5f8a"/>
<circle cx="166.77" cy="386.15" r="4.037012035232257" fill="#e8f4f8"/>
<circle cx="191.63" cy="389.81" r="4.037012035232257" fill="#e8f4f8"/>
<circle cx="183.29" cy="388.62" r="4.037012035232257" fill="#d4a76a"/>
<circle cx="142.31" cy="380.79" r="4.037012035232257" fill="#e8f4f8"/>
<circle cx="158.32" cy="385.26" r="4.037012035232257" fill="#e8f4f8"/>
<circle cx="208.34" cy="387.85" r="4.037012035232257" fill="#1a5f8a"/>
<circle cx="208.37" cy="389.81" r="4.037012035232257" fill="#e8f4f8"/>
<circle cx="233.23" cy="386.15" r="4.037012035232257" fill="#1a5f8a"/>
<circle cx="216.71" cy="388.62" r="4.037012035232257" fill="#1a5f8a"/>
<circle cx="257.69" cy="380.79" r="4.037012035232257" fill="#1a5f8a"/>
<circle cx="241.68" cy="385.26" r="4.037012035232257" fill="#d4a76a"/>
<circle cx="213.49" cy="384.63" r="4.037012035232257" fill="#1a5f8a"/>
<circle cx="238.4" cy="382.91" r="4.037012035232257" fill="#d4a76a"/>
<circle cx="228.9" cy="376.98" r="4.037012035232257" fill="#1a5f8a"/>
<circle cx="227.03" cy="382.16" r="4.037012035232257" fill="#1a5f8a"/>
<circle cx="262.9" cy="377.53" r="4.037012035232257" fill="#1a5f8a"/>
<circle cx="285.94" cy="368.74" r="4.037012035232257" fill="#1a5f8a"/>
<circle cx="278.81" cy="367.04" r="4.037012035232257" fill="#7a9a4a"/>
<circle cx="276.16" cy="371.72" r="4.037012035232257" fill="#1a5f8a"/>
<circle cx="244.09" cy="365.77" r="4.037012035232257" fill="#1a5f8a"/>
<circle cx="269.48" cy="361.2" r="4.037012035232257" fill="#8cb369"/>
<circle cx="258.34" cy="351.49" r="4.037012035232257" fill="#1a5f8a"/>
<circle cx="257.52" cy="360.06" r="4.037012035232257" fill="#1a5f8a"/>
<circle cx="252.07" cy="378.76" r="4.037012035232257" fill="#8cb369"/>
<circle cx="267.86" cy="367.95" r="4.037012035232257" fill="#7a9a4a"/>
<circle cx="242.57" cy="372.83" r="4.037012035232257" fill="#1a5f8a"/>
<circle cx="254.37" cy="373.83" r="4.037012035232257" fill="#8cb369"/>
<circle cx="308.58" cy="355.82" r="4.037012035232257" fill="#1a5f8a"/>
<circle cx="326.62" cy="339.77" r="4.037012035232257" fill="#8cb369"/>
<circle cx="321.45" cy="345.89" r="4.037012035232257" fill="#1a5f8a"/>
<circle cx="360.19" cy="302.1" r="4.037012035232257" fill="#8cb369"/>
<circle cx="341.72" cy="320.01" r="4.037012035232257" fill="#8cb369"/>
<circle cx="358.27" cy="300.66" r="4.037012035232257" fill="#8cb369"/>
<circle cx="353.24" cy="297.37" r="4.037012035232257" fill="#8cb369"/>
<circle cx="351.62" cy="306.4" r="4.037012035232257" fill="#d4a76a"/>
<circle cx="355.04" cy="308.69" r="4.037012035232257" fill="#1a5f8a"/>
<circle cx="338.2" cy="327.83" r="4.037012035232257" fill="#d4a76a"/>
<circle cx="344.85" cy="322.23" r="4.037012035232257" fill="#1a5f8a"/>
<circle cx="272.34" cy="333.17" r="4.037012035232257" fill="#1a5f8a"/>
<circle cx="299.02" cy="322.53" r="4.037012035232257" fill="#1a5f8a"/>
<circle cx="284.22" cy="313.24" r="4.037012035232257" fill="#1a5f8a"/>
<circle cx="285.5" cy="323.43" r="4.037012035232257" fill="#1a5f8a"/>
<circle cx="323.46" cy="308.59" r="4.037012035232257" fill="#1a5f8a"/>
<circle cx="344.59" cy="291.96" r="4.037012035232257" fill="#8cb369"/>
<circle cx="333.47" cy="285.16" r="4.037012035232257" fill="#1a5f8a"/>
<circle cx="334.32" cy="295.58" r="4.037012035232257" fill="#1a5f8a"/>
<circle cx="294.68" cy="290.87" r="4.037012035232257" fill="#1a5f8a"/>
<circle cx="319.54" cy="276.69" r="4.037012035232257" fill="#1a5f8a"/>
<circle cx="303.34" cy="267.02" r="4.037012035232257" fill="#1a5f8a"/>
<circle cx="306.24" cy="278.48" r="4.037012035232257" fill="#1a5f8a"/>
<circle cx="311.33" cy="311.04" r="4.037012035232257" fill="#1a5f8a"/>
<circle cx="321.58" cy="287.77" r="4.037012035232257" fill="#1a5f8a"/>
<circle cx="296.71" cy="301.95" r="4.037012035232257" fill="#1a5f8a"/>
<circle cx="310.29" cy="300.63" r="4.037012035232257" fill="#1a5f8a"/>
<circle cx="299.85" cy="360.6" r="4.037012035232257" fill="#d4a76a"/>
<circle cx="317.92" cy="344.54" r="4.037012035232257" fill="#7a9a4a"/>
<circle cx="292.73" cy="358.91" r="4.037012035232257" fill="#8cb369"/>
<circle cx="303.95" cy="355.35" r="4.037012035232257" fill="#7a9a4a"/>
<circle cx="333.1" cy="324.66" r="4.037012035232257" fill="#7a9a4a"/>
<circle cx="344.64" cy="301.97" r="4.037012035232257" fill="#8cb369"/>
<circle cx="323.48" cy="318.65" r="4.037012035232257" fill="#8cb369"/>
<circle cx="334.31" cy="315.59" r="4.037012035232257" fill="#8cb369"/>
<circle cx="283.35" cy="353.04" r="4.037012035232257" fill="#7a9a4a"/>
<circle cx="298.91" cy="332.67" r="4.037012035232257" fill="#d4a76a"/>
<circle cx="272.17" cy="343.3" r="4.037012035232257" fill="#1a5f8a"/>
<circle cx="285.18" cy="343.61" r="4.037012035232257" fill="#8cb369"/>
<circle cx="320.81" cy="337.18" r="4.037012035232257" fill="#7a9a4a"/>
<circle cx="311.19" cy="331.17" r="4.037012035232257" fill="#8cb369"/>
<circle cx="295.61" cy="351.55" r="4.037012035232257" fill="#8cb369"/>
<circle cx="309.7" cy="340.6" r="4.037012035232257" fill="#7a9a4a"/>
<circle cx="311.68" cy="252.57" r="4.037012035232257" fill="#2d5a27"/>
<circle cx="327.91" cy="233.33" r="4.037012035232257" fill="#8cb369"/>
<circle cx="327.91" cy="262.2" r="4.037012035232257" fill="#2d5a27"/>
<circle cx="322.94" cy="249.55" r="4.037012035232257" fill="#8cb369"/>
<circle cx="341.91" cy="213.34" r="4.037012035232257" fill="#c9b037"/>
<circle cx="353.05" cy="193.39" r="4.037012035232257" fill="#c9b037"/>
<circle cx="357.06" cy="222.01" r="4.037012035232257" fill="#8cb369"/>
<circle cx="351.22" cy="209.61" r="4.037012035232257" fill="#8cb369"/>
<circle cx="341.91" cy="270.54" r="4.037012035232257" fill="#2d5a27"/>
<circle cx="357.06" cy="250.39" r="4.037012035232257" fill="#8cb369"/>
<circle cx="353.05" cy="277.31" r="4.037012035232257" fill="#c9b037"/>
<circle cx="351.22" cy="266.32" r="4.037012035232257" fill="#2d5a27"/>
<circle cx="338.39" cy="229.77" r="4.037012035232257" fill="#8cb369"/>
<circle cx="353.27" cy="238.4" r="4.037012035232257" fill="#8cb369"/>
<circle cx="338.39" cy="258.66" r="4.037012035232257" fill="#2d5a27"/>
<circle cx="343.89" cy="242.44" r="4.037012035232257" fill="#d4a76a"/>
<circle cx="361.7" cy="172.49" r="4.037012035232257" fill="#7a9a4a"/>
<circle cx="366.71" cy="153.42" r="4.037012035232257" fill="#7a9a4a"/>
<circle cx="375.32" cy="177.9" r="4.037012035232257" fill="#c9b037"/>
<circle cx="368.52" cy="167.82" r="4.037012035232257" fill="#7a9a4a"/>
<circle cx="368.56" cy="135.12" r="4.037012035232257" fill="#7a9a4a"/>
<circle cx="367.21" cy="118.42" r="4.037012035232257" fill="#7a9a4a"/>
<circle cx="378.05" cy="141.05" r="4.037012035232257" fill="#8cb369"/>
<circle cx="371.89" cy="131.29" r="4.037012035232257" fill="#7a9a4a"/>
<circle cx="384.66" cy="183.73" r="4.037012035232257" fill="#1a5f8a"/>
<circle cx="385.52" cy="165.18" r="4.037012035232257" fill="#2d5a27"/>
<circle cx="389.29" cy="189.74" r="4.037012035232257" fill="#1a5f8a"/>
<circle cx="387.17" cy="179.48" r="4.037012035232257" fill="#2d5a27"/>
<circle cx="371.85" cy="148.94" r="4.037012035232257" fill="#7a9a4a"/>
<circle cx="381.35" cy="154.88" r="4.037012035232257" fill="#7a9a4a"/>
<circle cx="380.14" cy="173.49" r="4.037012035232257" fill="#2d5a27"/>
<circle cx="378.45" cy="158.94" r="4.037012035232257" fill="#8cb369"/>
<circle cx="361.7" cy="282.72" r="4.037012035232257" fill="#8cb369"/>
<circle cx="375.32" cy="261.8" r="4.037012035232257" fill="#c9b037"/>
<circle cx="366.71" cy="286.04" r="4.037012035232257" fill="#8cb369"/>
<circle cx="368.52" cy="277.13" r="4.037012035232257" fill="#8cb369"/>
<circle cx="384.66" cy="239.26" r="4.037012035232257" fill="#2d5a27"/>
<circle cx="389.29" cy="216.04" r="4.037012035232257" fill="#d4a76a"/>
<circle cx="387.17" cy="232.08" r="4.037012035232257" fill="#2d5a27"/>
<circle cx="368.56" cy="287.61" r="4.037012035232257" fill="#d4a76a"/>
<circle cx="380.14" cy="255.2" r="4.037012035232257" fill="#2d5a27"/>
<circle cx="371.85" cy="279.57" r="4.037012035232257" fill="#1a5f8a"/>
<circle cx="378.45" cy="264.04" r="4.037012035232257" fill="#8cb369"/>
<circle cx="361.57" cy="188.49" r="4.037012035232257" fill="#c9b037"/>
<circle cx="375.23" cy="193.92" r="4.037012035232257" fill="#c9b037"/>
<circle cx="365.61" cy="217.16" r="4.037012035232257" fill="#8cb369"/>
<circle cx="368.19" cy="199.85" r="4.037012035232257" fill="#8cb369"/>
<circle cx="384.62" cy="199.78" r="4.037012035232257" fill="#2d5a27"/>
<circle cx="389.24" cy="205.79" r="4.037012035232257" fill="#1a5f8a"/>
<circle cx="384.62" cy="229.03" r="4.037012035232257" fill="#2d5a27"/>
<circle cx="386.96" cy="211.59" r="4.037012035232257" fill="#1a5f8a"/>
<circle cx="365.61" cy="245.7" r="4.037012035232257" fill="#8cb369"/>
<circle cx="375.23" cy="251.71" r="4.037012035232257" fill="#8cb369"/>
<circle cx="361.57" cy="272.66" r="4.037012035232257" fill="#c9b037"/>
<circle cx="368.19" cy="256.93" r="4.037012035232257" fill="#8cb369"/>
<circle cx="379.9" cy="205.58" r="4.037012035232257" fill="#2d5a27"/>
<circle cx="379.9" cy="234.84" r="4.037012035232257" fill="#8cb369"/>
<circle cx="370.28" cy="228.83" r="4.037012035232257" fill="#e0c080"/>
<circle cx="377.49" cy="223.19" r="4.037012035232257" fill="#8cb369"/>
<circle cx="110.15" cy="249.35" r="4.037012035232257" fill="#1a5f8a"/>
<circle cx="134.22" cy="253.03" r="4.037012035232257" fill="#1a5f8a"/>
<circle cx="118.86" cy="226.43" r="4.037012035232257" fill="#1a5f8a"/>
<circle cx="120.8" cy="243.09" r="4.037012035232257" fill="#1a5f8a"/>
<circle cx="159.87" cy="255.52" r="4.037012035232257" fill="#1a5f8a"/>
<circle cx="186.0" cy="256.79" r="4.037012035232257" fill="#1a5f8a"/>
<circle cx="170.46" cy="231.58" r="4.037012035232257" fill="#2d5a27"/>
<circle cx="172.01" cy="248.13" r="4.037012035232257" fill="#1a5f8a"/>
<circle cx="129.43" cy="202.81" r="4.037012035232257" fill="#7a9a4a"/>
<circle cx="155.35" cy="205.42" r="4.037012035232257" fill="#7a9a4a"/>
<circle cx="141.35" cy="179.46" r="4.037012035232257" fill="#7a9a4a"/>
<circle cx="141.84" cy="195.88" r="4.037012035232257" fill="#7a9a4a"/>
<circle cx="145.86" cy="246.23" r="4.037012035232257" fill="#1a5f8a"/>
<circle cx="156.53" cy="222.2" r="4.037012035232257" fill="#2d5a27"/>
<circle cx="130.49" cy="219.61" r="4.037012035232257" fill="#d4a76a"/>
<circle cx="144.08" cy="229.46" r="4.037012035232257" fill="#d4a76a"/>
<circle cx="214.0" cy="256.79" r="4.037012035232257" fill="#2d5a27"/>
<circle cx="240.13" cy="255.52" r="4.037012035232257" fill="#2d5a27"/>
<circle cx="229.54" cy="231.58" r="4.037012035232257" fill="#2d5a27"/>
<circle cx="227.99" cy="248.13" r="4.037012035232257" fill="#8cb369"/>
<circle cx="265.78" cy="253.03" r="4.037012035232257" fill="#1a5f8a"/>
<circle cx="289.85" cy="249.35" r="4.037012035232257" fill="#d4a76a"/>
<circle cx="281.14" cy="226.43" r="4.037012035232257" fill="#d4a76a"/>
<circle cx="279.2" cy="243.09" r="4.037012035232257" fill="#1a5f8a"/>
<circle cx="244.65" cy="205.42" r="4.037012035232257" fill="#e0c080"/>
<circle cx="270.57" cy="202.81" r="4.037012035232257" fill="#1a5f8a"/>
<circle cx="258.65" cy="179.46" r="4.037012035232257" fill="#7a9a4a"/>
<circle cx="258.16" cy="195.88" r="4.037012035232257" fill="#1a5f8a"/>
<circle cx="254.14" cy="246.23" r="4.037012035232257" fill="#d4a76a"/>
<circle cx="269.51" cy="219.61" r="4.037012035232257" fill="#1a5f8a"/>
<circle cx="243.47" cy="222.2" r="4.037012035232257" fill="#1a5f8a"/>
<circle cx="255.92" cy="229.46" r="4.037012035232257" fill="#1a5f8a"/>
<circle cx="155.35" cy="155.22" r="4.037012035232257" fill="#8cb369"/>
<circle cx="184.9" cy="154.26" r="4.037012035232257" fill="#d4a76a"/>
<circle cx="169.56" cy="133.31" r="4.037012035232257" fill="#1a5f8a"/>
<circle cx="169.83" cy="147.41" r="4.037012035232257" fill="#1a5f8a"/>
<circle cx="215.1" cy="154.26" r="4.037012035232257" fill="#1a5f8a"/>
<circle cx="244.65" cy="155.22" r="4.037012035232257" fill="#8cb369"/>
<circle cx="230.44" cy="133.31" r="4.037012035232257" fill="#1a5f8a"/>
<circle cx="230.17" cy="147.41" r="4.037012035232257" fill="#d4a76a"/>
<circle cx="184.64" cy="112.51" r="4.037012035232257" fill="#1a5f8a"/>
<circle cx="215.36" cy="112.51" r="4.037012035232257" fill="#8cb369"/>
<circle cx="200.0" cy="93.75" r="4.037012035232257" fill="#d4a76a"/>
<circle cx="200.0" cy="105.93" r="4.037012035232257" fill="#1a5f8a"/>
<circle cx="200.0" cy="146.91" r="4.037012035232257" fill="#1a5f8a"/>
<circle cx="215.37" cy="125.85" r="4.037012035232257" fill="#1a5f8a"/>
<circle cx="184.63" cy="125.85" r="4.037012035232257" fill="#1a5f8a"/>
<circle cx="200.0" cy="132.61" r="4.037012035232257" fill="#8cb369"/>
<circle cx="200.0" cy="248.82" r="4.037012035232257" fill="#2d5a27"/>
<circle cx="215.56" cy="223.56" r="4.037012035232257" fill="#2d5a27"/>
<circle cx="184.44" cy="223.56" r="4.037012035232257" fill="#d4a76a"/>
<circle cx="200.0" cy="232.11" r="4.037012035232257" fill="#8cb369"/>
<circle cx="230.75" cy="197.26" r="4.037012035232257" fill="#8cb369"/>
<circle cx="244.79" cy="171.26" r="4.037012035232257" fill="#8cb369"/>
<circle cx="215.19" cy="170.3" r="4.037012035232257" fill="#8cb369"/>
<circle cx="230.37" cy="179.52" r="4.037012035232257" fill="#8cb369"/>
<circle cx="169.25" cy="197.26" r="4.037012035232257" fill="#7a9a4a"/>
<circle cx="184.81" cy="170.3" r="4.037012035232257" fill="#7a9a4a"/>
<circle cx="155.21" cy="171.26" r="4.037012035232257" fill="#7a9a4a"/>
<circle cx="169.63" cy="179.52" r="4.037012035232257" fill="#7a9a4a"/>
<circle cx="215.57" cy="206.0" r="4.037012035232257" fill="#7a9a4a"/>
<circle cx="200.0" cy="179.03" r="4.037012035232257" fill="#7a9a4a"/>
<circle cx="184.43" cy="206.0" r="4.037012035232257" fill="#7a9a4a"/>
<circle cx="200.0" cy="197.0" r="4.037012035232257" fill="#7a9a4a"/>
<circle cx="31.44" cy="287.61" r="4.037012035232257" fill="#1a5f8a"/>
<circle cx="33.29" cy="286.04" r="4.037012035232257" fill="#1a5f8a"/>
<circle cx="38.3" cy="282.72" r="4.037012035232257" fill="#d4a76a"/>
<circle cx="24.68" cy="261.8" r="4.037012035232257" fill="#1a5f8a"/>
<circle cx="31.48" cy="277.13" r="4.037012035232257" fill="#1a5f8a"/>
<circle cx="15.34" cy="239.26" r="4.037012035232257" fill="#d4a76a"/>
<circle cx="10.71" cy="216.04" r="4.037012035232257" fill="#8cb369"/>
<circle cx="12.83" cy="232.08" r="4.037012035232257" fill="#2d5a27"/>
<circle cx="28.15" cy="279.57" r="4.037012035232257" fill="#1a5f8a"/>
<circle cx="19.86" cy="255.2" r="4.037012035232257" fill="#1a5f8a"/>
<circle cx="21.55" cy="264.04" r="4.037012035232257" fill="#1a5f8a"/>
<circle cx="46.95" cy="277.31" r="4.037012035232257" fill="#1a5f8a"/>
<circle cx="58.09" cy="270.54" r="4.037012035232257" fill="#1a5f8a"/>
<circle cx="42.94" cy="250.39" r="4.037012035232257" fill="#d4a76a"/>
<circle cx="48.78" cy="266.32" r="4.037012035232257" fill="#1a5f8a"/>
<circle cx="72.09" cy="262.2" r="4.037012035232257" fill="#1a5f8a"/>
<circle cx="88.32" cy="252.57" r="4.037012035232257" fill="#1a5f8a"/>
<circle cx="72.09" cy="233.33" r="4.037012035232257" fill="#2d5a27"/>
<circle cx="77.06" cy="249.55" r="4.037012035232257" fill="#d4a76a"/>
<circle cx="42.94" cy="222.01" r="4.037012035232257" fill="#d4a76a"/>
<circle cx="58.09" cy="213.34" r="4.037012035232257" fill="#2d5a27"/>
<circle cx="46.95" cy="193.39" r="4.037012035232257" fill="#2d5a27"/>
<circle cx="48.78" cy="209.61" r="4.037012035232257" fill="#1a5f8a"/>
<circle cx="61.61" cy="258.66" r="4.037012035232257" fill="#1a5f8a"/>
<circle cx="61.61" cy="229.77" r="4.037012035232257" fill="#2d5a27"/>
<circle cx="46.73" cy="238.4" r="4.037012035232257" fill="#d4a76a"/>
<circle cx="56.11" cy="242.44" r="4.037012035232257" fill="#d4a76a"/>
<circle cx="10.71" cy="189.74" r="4.037012035232257" fill="#8cb369"/>
<circle cx="15.34" cy="183.73" r="4.037012035232257" fill="#d4a76a"/>
<circle cx="14.48" cy="165.18" r="4.037012035232257" fill="#2d5a27"/>
<circle cx="12.83" cy="179.48" r="4.037012035232257" fill="#8cb369"/>
<circle cx="24.68" cy="177.9" r="4.037012035232257" fill="#1a5f8a"/>
<circle cx="38.3" cy="172.49" r="4.037012035232257" fill="#1a5f8a"/>
<circle cx="33.29" cy="153.42" r="4.037012035232257" fill="#1a5f8a"/>
<circle cx="31.48" cy="167.82" r="4.037012035232257" fill="#1a5f8a"/>
<circle cx="21.95" cy="141.05" r="4.037012035232257" fill="#1a5f8a"/>
<circle cx="31.44" cy="135.12" r="4.037012035232257" fill="#1a5f8a"/>
<circle cx="32.79" cy="118.42" r="4.037012035232257" fill="#1a5f8a"/>
<circle cx="28.11" cy="131.29" r="4.037012035232257" fill="#1a5f8a"/>
<circle cx="19.86" cy="173.49" r="4.037012035232257" fill="#2d5a27"/>
<circle cx="28.15" cy="148.94" r="4.037012035232257" fill="#1a5f8a"/>
<circle cx="18.65" cy="154.88" r="4.037012035232257" fill="#d4a76a"/>
<circle cx="21.55" cy="158.94" r="4.037012035232257" fill="#1a5f8a"/>
<circle cx="38.43" cy="272.66" r="4.037012035232257" fill="#1a5f8a"/>
<circle cx="34.39" cy="245.7" r="4.037012035232257" fill="#1a5f8a"/>
<circle cx="24.77" cy="251.71" r="4.037012035232257" fill="#1a5f8a"/>
<circle cx="31.81" cy="256.93" r="4.037012035232257" fill="#1a5f8a"/>
<circle cx="34.39" cy="217.16" r="4.037012035232257" fill="#2d5a27"/>
<circle cx="38.43" cy="188.49" r="4.037012035232257" fill="#1a5f8a"/>
<circle cx="24.77" cy="193.92" r="4.037012035232257" fill="#1a5f8a"/>
<circle cx="31.81" cy="199.85" r="4.037012035232257" fill="#2d5a27"/>
<circle cx="15.38" cy="229.03" r="4.037012035232257" fill="#2d5a27"/>
<circle cx="15.38" cy="199.78" r="4.037012035232257" fill="#2d5a27"/>
<circle cx="10.76" cy="205.79" r="4.037012035232257" fill="#8cb369"/>
<circle cx="13.04" cy="211.59" r="4.037012035232257" fill="#2d5a27"/>
<circle cx="29.72" cy="228.83" r="4.037012035232257" fill="#1a5f8a"/>
<circle cx="20.1" cy="205.58" r="4.037012035232257" fill="#1a5f8a"/>
<circle cx="20.1" cy="234.84" r="4.037012035232257" fill="#1a5f8a"/>
<circle cx="22.51" cy="223.19" r="4.037012035232257" fill="#1a5f8a"/>
<circle cx="200.0" cy="200.0" r="190.0" fill="none" stroke="#fff" stroke-width="2"/>
</svg>