<?xml version="1.0" encoding="UTF-8"?>
<svg xmlns="http://www.w3.org/2000/svg" width="1024" height="805" viewBox="0 0 1024 805">
  <rect width="100%" height="100%" fill="#ffffff"/>
  
  <rect x="20.0" y="20.0" width="984.0" height="765.3333333333334" fill="#f0f0f0" stroke="none"/>
<line x1="20.0" y1="20.0" x2="140.26666666666665" y2="20.0" stroke="#000000" stroke-width="3"/>
<line x1="205.86666666666667" y1="20.0" x2="1004.0" y2="20.0" stroke="#000000" stroke-width="3"/>
<line x1="20.0" y1="785.3333333333334" x2="184.0" y2="785.3333333333334" stroke="#000000" stroke-width="3"/>
<line x1="249.60000000000002" y1="785.3333333333334" x2="490.1333333333334" y2="785.3333333333334" stroke="#000000" stroke-width="3"/>
<line x1="555.7333333333333" y1="785.3333333333334" x2="774.4000000000001" y2="785.3333333333334" stroke="#000000" stroke-width="3"/>
<line x1="840.0" y1="785.3333333333334" x2="1004.0" y2="785.3333333333334" stroke="#000000" stroke-width="3"/>
<line x1="20.0" y1="20.0" x2="20.0" y2="380.8" stroke="#000000" stroke-width="3"/>
<line x1="20.0" y1="446.40000000000003" x2="20.0" y2="785.3333333333334" stroke="#000000" stroke-width="3"/>
<line x1="1004.0" y1="20.0" x2="1004.0" y2="380.8" stroke="#000000" stroke-width="3"/>
<line x1="1004.0" y1="446.40000000000003" x2="1004.0" y2="785.3333333333334" stroke="#000000" stroke-width="3"/>
<rect x="227.7333333333333" y="249.59999999999997" width="109.33333333333334" height="65.6" fill="none" stroke="#666666" stroke-width="1.5" rx="2"/>
<rect x="621.3333333333334" y="249.59999999999997" width="109.33333333333334" height="65.6" fill="none" stroke="#666666" stroke-width="1.5" rx="2"/>
<rect x="238.66666666666666" y="550.2666666666667" width="131.2" height="32.8" fill="none" stroke="#666666" stroke-width="1.5" rx="4"/>
<rect x="697.8666666666667" y="501.0666666666667" width="43.733333333333334" height="43.733333333333334" fill="none" stroke="#666666" stroke-width="1.5" rx="1"/>
<line x1="697.8666666666667" y1="501.0666666666667" x2="741.6" y2="501.0666666666667" stroke="#666666" stroke-width="3.0"/>
<circle cx="129.33333333333334" cy="676.0" r="16" fill="none" stroke="#444444" stroke-width="1"/>
</svg>
